<svg viewBox="0 0 1624.2000732421875 400" xmlns="http://www.w3.org/2000/svg"><g><g><g><g><g><line x1="53.1875" y1="349.72717836024447" x2="48.1875" y2="349.72717836024447" style="visibility: inherit;" fill="rgb(0, 0, 0)" stroke="rgb(204, 204, 204)" stroke-width="1px"></line><line x1="53.1875" y1="318.8457451107222" x2="48.1875" y2="318.8457451107222" style="visibility: inherit;" fill="rgb(0, 0, 0)" stroke="rgb(204, 204, 204)" stroke-width="1px"></line><line x1="53.1875" y1="287.9643118611999" x2="48.1875" y2="287.9643118611999" style="visibility: inherit;" fill="rgb(0, 0, 0)" stroke="rgb(204, 204, 204)" stroke-width="1px"></line><line x1="53.1875" y1="257.08287861167764" x2="48.1875" y2="257.08287861167764" style="visibility: inherit;" fill="rgb(0, 0, 0)" stroke="rgb(204, 204, 204)" stroke-width="1px"></line><line x1="53.1875" y1="226.20144536215534" x2="48.1875" y2="226.20144536215534" style="visibility: inherit;" fill="rgb(0, 0, 0)" stroke="rgb(204, 204, 204)" stroke-width="1px"></line><line x1="53.1875" y1="195.32001211263307" x2="48.1875" y2="195.32001211263307" style="visibility: inherit;" fill="rgb(0, 0, 0)" stroke="rgb(204, 204, 204)" stroke-width="1px"></line><line x1="53.1875" y1="164.43857886311076" x2="48.1875" y2="164.43857886311076" style="visibility: inherit;" fill="rgb(0, 0, 0)" stroke="rgb(204, 204, 204)" stroke-width="1px"></line><line x1="53.1875" y1="133.55714561358843" x2="48.1875" y2="133.55714561358843" style="visibility: inherit;" fill="rgb(0, 0, 0)" stroke="rgb(204, 204, 204)" stroke-width="1px"></line><line x1="53.1875" y1="102.67571236406621" x2="48.1875" y2="102.67571236406621" style="visibility: inherit;" fill="rgb(0, 0, 0)" stroke="rgb(204, 204, 204)" stroke-width="1px"></line><line x1="53.1875" y1="71.79427911454388" x2="48.1875" y2="71.79427911454388" style="visibility: inherit;" fill="rgb(0, 0, 0)" stroke="rgb(204, 204, 204)" stroke-width="1px"></line><line x1="53.1875" y1="40.91284586502161" x2="48.1875" y2="40.91284586502161" style="visibility: inherit;" fill="rgb(0, 0, 0)" stroke="rgb(204, 204, 204)" stroke-width="1px"></line><line x1="53.1875" y1="10.031412615499335" x2="48.1875" y2="10.031412615499335" style="visibility: inherit;" fill="rgb(0, 0, 0)" stroke="rgb(204, 204, 204)" stroke-width="1px"></line></g><g transform="translate(43.1875, 0)"><text x="0" y="349.72717836024447" dx="0em" dy="0.3em" style="text-anchor: end; visibility: inherit; font-family: &quot;Helvetica Neue&quot;, sans-serif; font-size: 12px; font-weight: 200;" fill="rgb(50, 49, 63)" stroke="none" stroke-width="1px">0.45</text><text x="0" y="318.8457451107222" dx="0em" dy="0.3em" style="text-anchor: end; visibility: inherit; font-family: &quot;Helvetica Neue&quot;, sans-serif; font-size: 12px; font-weight: 200;" fill="rgb(50, 49, 63)" stroke="none" stroke-width="1px">0.5</text><text x="0" y="287.9643118611999" dx="0em" dy="0.3em" style="text-anchor: end; visibility: inherit; font-family: &quot;Helvetica Neue&quot;, sans-serif; font-size: 12px; font-weight: 200;" fill="rgb(50, 49, 63)" stroke="none" stroke-width="1px">0.55</text><text x="0" y="257.08287861167764" dx="0em" dy="0.3em" style="text-anchor: end; visibility: inherit; font-family: &quot;Helvetica Neue&quot;, sans-serif; font-size: 12px; font-weight: 200;" fill="rgb(50, 49, 63)" stroke="none" stroke-width="1px">0.6</text><text x="0" y="226.20144536215534" dx="0em" dy="0.3em" style="text-anchor: end; visibility: inherit; font-family: &quot;Helvetica Neue&quot;, sans-serif; font-size: 12px; font-weight: 200;" fill="rgb(50, 49, 63)" stroke="none" stroke-width="1px">0.65</text><text x="0" y="195.32001211263307" dx="0em" dy="0.3em" style="text-anchor: end; visibility: inherit; font-family: &quot;Helvetica Neue&quot;, sans-serif; font-size: 12px; font-weight: 200;" fill="rgb(50, 49, 63)" stroke="none" stroke-width="1px">0.7</text><text x="0" y="164.43857886311076" dx="0em" dy="0.3em" style="text-anchor: end; visibility: inherit; font-family: &quot;Helvetica Neue&quot;, sans-serif; font-size: 12px; font-weight: 200;" fill="rgb(50, 49, 63)" stroke="none" stroke-width="1px">0.75</text><text x="0" y="133.55714561358843" dx="0em" dy="0.3em" style="text-anchor: end; visibility: inherit; font-family: &quot;Helvetica Neue&quot;, sans-serif; font-size: 12px; font-weight: 200;" fill="rgb(50, 49, 63)" stroke="none" stroke-width="1px">0.8</text><text x="0" y="102.67571236406621" dx="0em" dy="0.3em" style="text-anchor: end; visibility: inherit; font-family: &quot;Helvetica Neue&quot;, sans-serif; font-size: 12px; font-weight: 200;" fill="rgb(50, 49, 63)" stroke="none" stroke-width="1px">0.85</text><text x="0" y="71.79427911454388" dx="0em" dy="0.3em" style="text-anchor: end; visibility: inherit; font-family: &quot;Helvetica Neue&quot;, sans-serif; font-size: 12px; font-weight: 200;" fill="rgb(50, 49, 63)" stroke="none" stroke-width="1px">0.9</text><text x="0" y="40.91284586502161" dx="0em" dy="0.3em" style="text-anchor: end; visibility: inherit; font-family: &quot;Helvetica Neue&quot;, sans-serif; font-size: 12px; font-weight: 200;" fill="rgb(50, 49, 63)" stroke="none" stroke-width="1px">0.95</text><text x="0" y="10.031412615499335" dx="0em" dy="0.3em" style="text-anchor: end; visibility: inherit; font-family: &quot;Helvetica Neue&quot;, sans-serif; font-size: 12px; font-weight: 200;" fill="rgb(50, 49, 63)" stroke="none" stroke-width="1px">1</text></g><line x1="53.1875" y1="0" x2="53.1875" y2="377" fill="rgb(0, 0, 0)" stroke="rgb(204, 204, 204)" stroke-width="1px"></line></g></g><g transform="translate(53, 0)" clip-path="url(#clip_0)"><clipPath id="clip_0"><rect width="1571" height="377"></rect></clipPath><g><g><g><line x1="84.80012710538382" y1="0" x2="84.80012710538382" y2="377" fill="rgb(0, 0, 0)" stroke="rgb(60, 60, 60)" stroke-width="1px" opacity="0.25"></line><line x1="210.5979147352677" y1="0" x2="210.5979147352677" y2="377" fill="rgb(0, 0, 0)" stroke="rgb(60, 60, 60)" stroke-width="1px" opacity="0.25"></line><line x1="336.39570236515164" y1="0" x2="336.39570236515164" y2="377" fill="rgb(0, 0, 0)" stroke="rgb(60, 60, 60)" stroke-width="1px" opacity="0.25"></line><line x1="462.1934899950356" y1="0" x2="462.1934899950356" y2="377" fill="rgb(0, 0, 0)" stroke="rgb(60, 60, 60)" stroke-width="1px" opacity="0.25"></line><line x1="587.9912776249193" y1="0" x2="587.9912776249193" y2="377" fill="rgb(0, 0, 0)" stroke="rgb(60, 60, 60)" stroke-width="1px" opacity="0.25"></line><line x1="713.7890652548033" y1="0" x2="713.7890652548033" y2="377" fill="rgb(0, 0, 0)" stroke="rgb(60, 60, 60)" stroke-width="1px" opacity="0.25"></line><line x1="839.5868528846872" y1="0" x2="839.5868528846872" y2="377" fill="rgb(0, 0, 0)" stroke="rgb(60, 60, 60)" stroke-width="1px" opacity="0.25"></line><line x1="965.3846405145711" y1="0" x2="965.3846405145711" y2="377" fill="rgb(0, 0, 0)" stroke="rgb(60, 60, 60)" stroke-width="1px" opacity="0.25"></line><line x1="1091.182428144455" y1="0" x2="1091.182428144455" y2="377" fill="rgb(0, 0, 0)" stroke="rgb(60, 60, 60)" stroke-width="1px" opacity="0.25"></line><line x1="1216.9802157743388" y1="0" x2="1216.9802157743388" y2="377" fill="rgb(0, 0, 0)" stroke="rgb(60, 60, 60)" stroke-width="1px" opacity="0.25"></line><line x1="1342.7780034042228" y1="0" x2="1342.7780034042228" y2="377" fill="rgb(0, 0, 0)" stroke="rgb(60, 60, 60)" stroke-width="1px" opacity="0.25"></line><line x1="1468.5757910341067" y1="0" x2="1468.5757910341067" y2="377" fill="rgb(0, 0, 0)" stroke="rgb(60, 60, 60)" stroke-width="1px" opacity="0.25"></line></g><g><line x1="0" y1="349.72717836024447" x2="1571.0125" y2="349.72717836024447" fill="rgb(0, 0, 0)" stroke="rgb(60, 60, 60)" stroke-width="1px" opacity="0.25"></line><line x1="0" y1="318.8457451107222" x2="1571.0125" y2="318.8457451107222" fill="rgb(0, 0, 0)" stroke="rgb(60, 60, 60)" stroke-width="1px" opacity="0.25"></line><line x1="0" y1="287.9643118611999" x2="1571.0125" y2="287.9643118611999" fill="rgb(0, 0, 0)" stroke="rgb(60, 60, 60)" stroke-width="1px" opacity="0.25"></line><line x1="0" y1="257.08287861167764" x2="1571.0125" y2="257.08287861167764" fill="rgb(0, 0, 0)" stroke="rgb(60, 60, 60)" stroke-width="1px" opacity="0.25"></line><line x1="0" y1="226.20144536215534" x2="1571.0125" y2="226.20144536215534" fill="rgb(0, 0, 0)" stroke="rgb(60, 60, 60)" stroke-width="1px" opacity="0.25"></line><line x1="0" y1="195.32001211263307" x2="1571.0125" y2="195.32001211263307" fill="rgb(0, 0, 0)" stroke="rgb(60, 60, 60)" stroke-width="1px" opacity="0.25"></line><line x1="0" y1="164.43857886311076" x2="1571.0125" y2="164.43857886311076" fill="rgb(0, 0, 0)" stroke="rgb(60, 60, 60)" stroke-width="1px" opacity="0.25"></line><line x1="0" y1="133.55714561358843" x2="1571.0125" y2="133.55714561358843" fill="rgb(0, 0, 0)" stroke="rgb(60, 60, 60)" stroke-width="1px" opacity="0.25"></line><line x1="0" y1="102.67571236406621" x2="1571.0125" y2="102.67571236406621" fill="rgb(0, 0, 0)" stroke="rgb(60, 60, 60)" stroke-width="1px" opacity="0.25"></line><line x1="0" y1="71.79427911454388" x2="1571.0125" y2="71.79427911454388" fill="rgb(0, 0, 0)" stroke="rgb(60, 60, 60)" stroke-width="1px" opacity="0.25"></line><line x1="0" y1="40.91284586502161" x2="1571.0125" y2="40.91284586502161" fill="rgb(0, 0, 0)" stroke="rgb(60, 60, 60)" stroke-width="1px" opacity="0.25"></line><line x1="0" y1="10.031412615499335" x2="1571.0125" y2="10.031412615499335" fill="rgb(0, 0, 0)" stroke="rgb(60, 60, 60)" stroke-width="1px" opacity="0.25"></line></g></g></g><g><g><line x1="0" y1="627.6600776059452" x2="1571.0125" y2="627.6600776059452" fill="rgb(0, 0, 0)" stroke="rgb(153, 153, 153)" stroke-width="1.5px"></line></g></g><g><g><line x1="84.80012710538382" y1="0" x2="84.80012710538382" y2="377" fill="rgb(0, 0, 0)" stroke="rgb(153, 153, 153)" stroke-width="1.5px"></line></g></g><g><g><g><g><g><path stroke="rgb(255, 112, 67)" stroke-width="2px" d="M91.09001648687803,364.1385074956751L92.34799436317687,369.2854196330209L97.37990586837222,328.84544265277486L98.63788374467104,303.43530481867305L101.15383949726873,292.26042557404634L102.41181737356757,293.0492949367043L103.66979524986641,274.8595085059046L106.18575100246409,265.9522344553337L107.44372887876293,267.35970966823413L108.70170675506178,259.909908853529L109.9596846313606,265.38700916109514L114.99159613655597,267.0099231147951L126.31339702324551,241.5947841288401L127.57137489954435,223.0703617586963L130.08733065214204,211.96500327254546L133.86126428103853,198.7152243095904L135.1192421573374,177.5894533320039L137.63519790993504,171.50498150445299L140.15115366253272,144.7951444694957L141.4091315388316,141.9468460463435L143.92508729142926,123.76747557941866L146.4410430440269,126.03636230888037L147.69902092032578,129.04469644340452L151.4729545492223,114.37950692575049L152.73093242552113,108.87446345861525L153.98891030181997,102.27742537079575L155.2468881781188,106.55427388715839L156.50486605441765,133.82553313115443L160.27879968331416,128.77714871114404L161.536777559613,110.92502742382231L164.05273331221068,96.91974033515163L166.56868906480835,93.45759427192178L167.8266669411072,83.14525067869005L169.08464481740603,72.01682008855227L170.34262269370487,88.39790662210157L174.11655632260138,75.16841383698721L175.37453419890022,77.11278225540275L176.6325120751991,70.044347529773L177.8904899514979,78.97936708673853L180.40644570409557,69.51729023957557L184.1803793329921,58.89901952761903L190.47026871448628,54.17506530928517L191.72824659078515,54.634709185884674L192.98622446708399,56.557503714641825L194.2442023433828,51.12314762061027L195.50218021968166,47.86253396455294L196.76015809598047,40.96514116307293L203.05004747747466,40.12072188761795L213.1138704878654,49.496119538071866L216.88780411676194,46.88631711521202L218.14578199306075,45.32043566150975L226.95162712715262,41.08689038408971L230.72556075604913,36.89975501504574L233.2415165086468,34.38747379362417L234.49949438494565,37.821129668566755L235.75747226124452,31.646267455128168L240.78938376643987,32.88238946027343L242.0473616427387,30.330031532751207L243.30533951903755,28.798616776238077L247.07927314793406,27.87976792233036L248.3372510242329,25.68145040738864L252.11118465312938,24.362459898423765L257.14309615832474,26.865096723653608L259.65905191092247,30.013687021388364L262.1750076635201,22.020777259032798L263.43298553981896,22.166056009410113L264.6909634161178,20.60621505703972L265.94894129241663,27.90536622401703L270.980852797612,25.696809388400766L273.49680855020966,24.371675287030882L277.2707421791062,25.22360302880594L278.528720055405,24.087751471274146L279.7866979317038,21.759232334158014L282.3026536843015,26.950168387691065L283.56063156060037,23.47668248400828L284.81860943689924,34.568671287988934L288.5925430657957,32.988823557392664L291.1084988183934,35.334931324228705L292.36647669469227,31.80155665112477L294.88243244728994,31.328554775274142L296.14041032358875,27.750722519155033L299.91434395248524,30.545062498689276L306.20423333397946,27.28062715320408L307.4622112102783,23.6749577433161L308.72018908657714,21.511556097383277L311.2361448391748,21.86052331242047L312.4941227154737,20.4228954388459L315.01007846807136,17.913310512104204L317.52603422066903,18.054567758656162L318.7840120969679,21.433338511781244L320.0419899732667,23.460600963656248L321.2999678495655,21.382942029587298L323.81592360216325,23.430363074339823L325.07390147846206,26.30583862920321L333.87974661255396,26.384101034109335L338.9116581177493,23.13704207185924L343.94356962294466,21.18880669450914L345.20154749924353,21.66687367069602L346.45952537554234,20.306705653811264L351.4914368807377,24.43164417688604L355.26537050963424,25.259584362719067L359.0393041385307,25.756348474218896L360.2972820148296,24.407398738521863L364.0712156437261,23.59802889710369L365.32919352002494,24.759415194849623L367.8451492726226,25.456246973497286L369.1031271489215,22.580329635492035L370.3611050252203,22.501787435285735L372.877060777818,20.80765391256506L374.13503865411684,21.438182001529583L376.65099440671446,21.816498854908275L377.9089722830133,18.74947256174164L379.1669501593122,16.909256785841592L382.9408837882087,27.334199463895004L386.7148174171052,27.001117534924447L393.0047067985994,23.50725197234823L395.52066255119706,23.057940837399485L398.03661830379474,22.788354156430216L399.29459618009355,20.979593945251736L405.58448556158777,19.89433781854467L409.35841919048426,20.890192345117327L410.6163970667831,19.840696858464014L411.87437494308205,17.56399136387506L413.13235281938086,17.844976269718643L415.64830857197853,14.719550808030931L420.68022007717383,17.785320138809027L423.1961758297715,21.271789939872917L425.71213158236924,26.657702951119973L428.2280873349669,20.00718681687175L434.517976716461,22.604909946710563L437.0339324690588,22.516535622016875L442.0658439742541,17.52248641940986L448.3557333557483,16.17306510044267L450.871689108346,18.657428714256127L452.1296669846448,23.442078013152923L455.9036006135413,26.312867592491045L458.419556366139,19.800285601694327L459.6775342424379,22.480769217604063L460.9355121187367,20.795042981956044L463.4514678713344,21.430615443164186L464.7094457476332,18.517942514695164L465.96742362393206,18.417346960210693L470.99933512912736,16.709981424923058L472.2573130054263,27.21463424734395L474.77326875802396,26.929378404993827L478.54720238692045,21.81720029179303L483.57911389211586,25.33794095967511L484.83709176841467,27.45038536040437L486.0950696447135,23.776812667636193L487.35304752101234,23.21967725457222L489.86900327360996,26.1794271373426L493.64293690250645,23.014237733799177L494.9009147788053,21.11512409167318L496.15889265510424,19.97565590639755L499.9328262840007,19.291974995232067L501.19080416029954,15.587750043338986L503.7067599128972,18.30623967999395L511.25462717069024,16.643317056792966L513.770582923288,22.23361101867505L517.5445165521844,23.940764467792462L518.8024944284832,21.671040132069095L521.318450181081,20.309205530635097L522.5764280573799,19.49210476977464L528.8663174388739,22.295860718452275L530.1242953151728,19.037089679868018L532.6402510677706,18.728835259314394L535.1562068203682,26.77893834538179L536.414184696667,23.373944458622702L537.6721625729658,18.03693172137332L541.4460962018624,18.128740484217587L542.7040740781612,16.536817539327274L546.4780077070577,13.93465556979612L547.7359855833566,17.314382995868186L550.2519413359543,16.04820304631761L551.5099192122531,15.28849507658731L554.0258749648507,14.83267029474905L559.0577864700462,12.912167223049153L560.315764346345,19.994921118428806L561.5737422226438,20.95054232504782L564.0896979752415,16.582890441228358L565.3476758515403,15.609307513533736L569.1216094804369,15.025157756916883L570.3795873567357,21.262715438749467L571.6375652330345,18.417202512046288L572.8955431093334,18.35690295862139L575.411498861931,16.673715023969464L576.6694767382298,17.31081046577532L577.9274546145286,22.634107064064494L579.1854324908276,24.181062095026164L590.5072333775171,23.462226911006212L591.765211253816,24.67793400319124L594.2811670064136,20.46633365071142L598.0551006353102,17.939373439223573L606.8609457694021,16.423197312330842L608.1189236457009,17.160499838792134L613.1508351508961,15.955873152072002L614.408813027195,13.586088937442923L615.666790903494,13.811226611262327L618.1827466560916,18.887333823344818L620.6987024086892,15.34496534020667L625.7306139138846,14.866552452920644L637.0524148005741,14.57950472054904L638.310392676873,19.348300688916936L639.5683705531718,15.621545459549907L640.8263484294707,15.032500524526597L643.3423041820683,13.032065360915738L644.6002820583672,13.478812465346152L648.3742156872637,12.099852525407357L652.1481493161602,14.566492966638066L660.953994450252,14.39946902877955L662.2119723265508,14.299254666064485L663.4699502028498,14.239126048435367L664.7279280791486,14.203048877857839L667.2438838317463,14.181402575511413L668.5018617080451,15.815422996700477L669.7598395843439,15.148827046816905L672.2757953369417,18.042885882080725L673.5337732132405,19.77932118323895L674.7917510895394,20.821182363933872L677.307706842137,19.799290869753918L679.8236625947346,19.186155973245945L681.0816404710336,20.46528323793808L686.1135519762288,17.93874319155958L694.9193971103207,21.363843771523193L698.6933307392172,23.418904119501462L699.9513086155162,18.06390751790059L702.4672643681138,19.791934164730833L704.9832201207114,20.82875015282906L708.7571537496079,19.803831543091064L722.5949103888952,15.894863972054395L726.3688440177917,15.196491632029279L727.6268218940905,14.7774682280143L728.8847997703893,12.879045983008325L731.4007555229871,13.387000838601693L733.9167112755847,12.044765549360704L735.1746891518836,14.533440781010029L737.6906449044812,16.02664591999968L743.9805342859754,15.275560800796427L745.2385121622742,13.177901526677601L752.7863794200673,15.213322367400167L755.3023351726649,19.728591277027647L756.5603130489638,22.437752622804L757.8182909252627,19.122224822479097L759.0762688015616,22.073932750074903L760.3342466778604,18.903932898841674L761.5922245541592,20.295949393295587L762.850202430458,16.190134682177018L764.1081803067568,15.37365405810283L765.3661581830557,16.530773886255304L766.6241360593546,15.578037580549847L769.1400918119522,16.65340399972348L772.9140254408487,15.65161564863081L774.1720033171476,16.69755084057209L775.4299811934465,17.32511195573693L777.9459369460441,19.34865682743265L782.9778484512395,18.915775547853286L785.4938042038372,15.362030374911683L788.0097599564348,13.229783271146744L793.0416714616301,11.950435008887723L794.299649337929,14.476842456726274L795.5576272142278,14.345678722832417L798.0735829668255,15.913988685093045L800.5895387194233,15.2079664598524L803.105494472021,13.13734492211114L805.6214502246186,11.894971999466406L806.8794281009174,14.44356465107353L810.6533617298139,15.972720242037724L813.1693174824115,20.184230001810135L814.4272953587105,17.770111249882746L815.6852732350093,16.32163999872631L816.9432511113082,17.099565450629427L818.2012289876069,19.21332892436817L819.4592068639058,20.481587008611484L821.9751626165034,17.948525453963498L823.2331404928022,18.075696723771728L829.5230298742964,16.504991283059724L830.7810077505953,15.562568018632419L833.2969635031931,16.64412226257309L834.5549413794918,18.94006301153439L835.8129192557907,18.670619258314275L839.5868528846872,15.214936601188299L842.102808637285,13.141527006912725L844.6187643898826,15.19149765554124L847.1347201424802,14.7744718421215L849.6506758950779,14.524256354069564L852.1666316476756,12.727118858641461L853.4246095239745,11.64883636138461L854.6825874002732,11.0018668630305L858.4565210291698,10.613685164018023L863.4884325343651,12.027784347207557L864.746410410664,11.229235654524189L867.2623661632617,10.750106438914258L868.5203440395604,13.75664531474223L871.036299792158,13.913560437642047L876.0682112973536,12.36070130878494L882.3581006788477,16.370010439261478L891.1639458129396,15.481579512353505L892.4219236892385,14.948520956208768L894.9378794418361,12.981677619924994L896.195857318135,13.448579820751604L897.4538351944337,15.375729343844569L898.7118130707327,14.885010855103417L899.9697909470315,14.590579761858748L901.2277688233304,12.76691290331496L903.743724575928,14.966729193382605L905.0017024522267,12.992602562229251L910.0336139574223,16.74915119132811L911.291591833721,19.00308036878738L913.8075475863186,15.414413267472128L916.3235033389163,14.908221209279986L920.0974369678129,14.6045059743646L922.6133927204105,21.010324369218097L923.8713705967094,19.912776072924487L925.1293484730082,17.607238892551266L928.9032821019048,19.51793298952134L930.1612599782035,20.66434944770333L931.4192378545024,19.705191120015627L932.6772157308013,20.7767043259999L933.9351936071001,18.125595844396628L936.4511493596978,16.534930755434686L937.7091272359967,15.580531702057442L938.9671051122954,15.007892270031164L941.4830608648931,13.017300408218432L942.741038741192,13.469953493727758L943.999016617491,17.035561750227146L945.2569944937896,19.174926704126847L946.5149723700886,17.16452927127284L947.7729502463873,17.60529901415731L950.288905998985,14.575744454694075L951.5468838752839,17.699036326806947L955.3208175041805,17.92600324747775L960.3527290093758,14.768166994686453L964.1266626382721,14.520473445608445L965.3846405145711,16.018865518758673L966.64261839087,15.270892560051834L969.1585741434677,14.822108784827833L970.4165520197664,14.55283851969341L971.6745298960653,12.744268158015757L972.932507772364,13.30613414360613L975.4484635249618,11.996245532363446L976.7064414012607,11.210312365617824L977.9644192775594,10.738752465570428L982.9963307827549,13.749832930735863L988.0282422879502,12.26246480464124L989.2862201642489,14.664060334178373L991.8021759168467,12.81100124670678L993.0601537931456,16.640190402014582L994.3181316694445,17.290695692602412L995.5761095457432,16.0339906643581L996.8340874220421,16.92697585000849L998.0920652983408,15.815758758801735L1001.8659989272375,15.149028504077705L1003.1239768035364,16.39599855384023L1010.6718440613294,15.497172381100768L1013.187799813927,16.6048848800541L1014.4457776902259,18.916520582022997L1015.7037555665246,17.009485598010542L1016.9617334428235,17.51227281019993L1019.4776891954212,17.813945137513542L1023.2516228243176,17.99494853390172L1024.5096007006166,14.8095341665408L1028.283534329513,14.545293748721178L1029.5415122058118,12.739741295432452L1030.7994900821109,13.303418026056193L1033.3154458347085,13.641624064430346L1035.8314015873061,13.844547687454792L1039.6053352162028,15.613310063866493L1040.8633130925014,16.674567489713525L1043.379268845099,15.664313742624756L1047.1532024739956,15.058161494371461L1048.4111803502944,17.988486550613402L1049.6691582265933,16.452665179164683L1052.1851139791909,13.88416415369852L1053.44309185549,15.637079943612775L1054.7010697317887,15.04182121496433L1057.2170254843863,16.33167418037226L1058.4750033606852,13.811569554423102L1059.732981236984,17.240531386644307L1066.0228706184782,19.297908485977132L1071.0547821236735,17.238318340382932L1072.3127599999725,16.00256425302649L1074.8287157525701,13.614103598015618L1077.3446715051678,12.181027205009059L1079.8606272577654,14.615197774399064L1081.1186051340644,12.781683710839161L1082.376583010363,14.975591677897114L1083.634560886662,16.29193645813183L1084.8925387629606,17.081743326272772L1086.1505166392596,17.555627447157292L1088.6664723918573,16.19294971709104L1091.182428144455,20.316367686842057L1093.6983838970525,17.84939386090184L1097.4723175259492,16.369209565337712L1099.9882732785468,13.834090785402282L1101.2462511548458,12.313019517441148L1102.5042290311444,16.34140136445518L1107.5361405363399,15.464414067469818L1110.0520962889377,13.291213486681613L1111.3100741652363,13.63430134080562L1113.8260299178341,13.840154053280116L1117.5999635467306,12.316657478167826L1120.1159192993282,11.40255953310043L1121.373897175627,10.854100766060014L1122.631875051926,13.819041911029672L1126.4058086808225,15.598006598011409L1130.179742309719,18.312393612797393L1131.437720186018,16.647009416475157L1133.9536759386156,15.647778898681793L1136.4696316912132,15.048240588005854L1138.9855874438108,13.041509399003246L1145.275476825305,15.131487090795531L1147.7914325779027,18.032481908467844L1149.0494104542017,14.832054191280406L1150.3073883305003,14.558805763564862L1151.5653662067994,14.394856706935627L1155.3392998356958,17.590503678151947L1162.8871670934889,14.566867253090834L1165.4031228460865,16.04670180324814L1166.6611007223853,13.640586128148641L1167.919078598684,13.84392492568577L1169.177056474983,12.318920001611161L1170.4350343512817,16.34494165495721L1175.4669458564772,15.466538241771048L1177.9829016090748,16.586504396456235L1179.2408794853736,13.96446768407344L1183.0148131142703,15.685262061837648L1184.272790990569,16.71773868849624L1185.530768866868,14.043208259297444L1186.7887467431667,14.085498204375199L1188.0467246194655,14.11087217142176L1190.5626803720634,14.12609655164971L1191.820658248362,14.135231179786558L1193.078636124661,14.140711956668554L1194.3366140009598,12.496992220200866L1196.8525697535574,14.804776783514171L1200.6265033824538,14.54243931890511L1203.1424591350515,12.738028637542811L1204.4004370113505,14.949398633919316L1206.9163927639481,12.98220422655129L1208.1743706402472,15.095903987324391L1211.9483042691434,14.717115641191299L1213.2062821454424,14.489842633511387L1215.72223789804,12.706470626306611L1216.9802157743388,11.63644742198369L1225.7860609084307,12.641441701986935L1227.0440387847295,11.597430067391883L1228.3020166610283,10.97102308663483L1229.5599945373272,13.88919530337455L1230.8179724136262,15.640098633418347L1232.075950289925,16.69064063144458L1233.3339281662238,14.026949425066505L1235.8498839188214,12.428734701239648L1237.1078617951202,14.76382227213736L1238.365839671419,16.16487481467601L1242.1397733003157,17.005506340199247L1243.3977511766145,14.215868850319282L1244.6557290529133,14.189094558988245L1245.9137069292121,15.820038186786519L1248.4296626818098,16.798604363465586L1255.9775299396028,17.385744069472935L1257.2355078159017,14.444011487883472L1258.4934856922007,15.972988344123678L1261.0094414447983,13.596358052673963L1266.0413529499936,12.170379877804066L1269.8152865788902,12.961801175479195L1273.5892202077866,15.0836621566811L1278.621131712982,14.709770542805359L1282.3950653418785,14.48543557447988L1283.6530432181773,14.350834593484535L1284.9110210944762,14.270074004887363L1287.4269768470738,15.868625854326012L1288.6849547233726,15.180748761392238L1289.9429325996716,16.415030708228983L1293.716866228568,17.155599876331053L1294.9748441048669,17.599941377192238L1297.4907998574645,16.21953807511204L1300.0067556100623,18.685312499057716L1301.2647334863611,15.22375254563434L1303.7806892389588,13.146816573580338L1306.2966449915564,13.547663192944867L1307.5546228678552,12.141162961966643L1310.0705786204528,14.591279228573626L1312.5865343730507,12.767332583343887L1313.8445122493495,11.672964596206043L1315.1024901256483,12.66335200652037L1316.360468001947,14.904592655305805L1320.1344016308437,12.95532063938316L1321.3923795071426,11.78575742982963L1322.6503573834414,12.731027706694363L1326.424291012338,18.23921448060412L1327.6822688886366,16.60310193715918L1337.7460918990275,15.621434411092082L1341.520025527924,15.032433895451902L1342.7780034042228,13.032025383470852L1345.2939591568204,11.831780276282188L1347.809914909418,14.405649617162908L1349.067892785717,14.30296301909442L1352.8418264146135,14.241351060253294L1354.0998042909123,14.204383884948584L1356.61576004351,12.535195377168861L1357.8737379198087,11.53368227250104L1359.1317157961078,12.579782612297322L1360.3896936724063,14.85445101877201L1364.163627301303,14.572243860059814L1374.2274503116937,12.755911362235622L1375.4854281879925,16.6071364713319L1376.7434060642915,15.623855131595803L1379.2593618168892,13.386878125157182L1381.7753175694868,16.985716529084755L1383.0332954457856,17.498011368844516L1384.2912733220844,14.511371867506455L1386.807229074682,14.36639636930056L1389.3231848272799,14.279411070377023L1390.5811627035787,15.874228093619877L1391.8391405798775,15.18411010496851L1395.613074208774,14.770039311777794L1396.871052085073,12.874588633266399L1398.1290299613718,13.38432642875648L1404.4189193428658,12.043160903453611L1406.9348750954637,12.885469790868797L1408.1928529717625,11.743846920721012L1410.70880872436,12.705881401229249L1411.966786600659,14.93011029213119L1414.4827423532565,14.617639424075435L1422.0306096110496,16.077165105838844L1423.2885874873484,18.599888717493855L1425.804543239946,16.819506479292954L1428.3204989925437,14.104268933775472L1433.3524104977391,12.475126406465051L1435.868366250337,14.791657295272671L1438.3843220029346,14.534567625960221L1440.9002777555322,14.38031382437282L1443.4162335081298,12.640753340823437L1445.9321892607275,14.89103345588768L1447.1901671370265,16.241201524926225L1448.4481450133253,18.698310568946283L1449.706122889624,18.525567792761365L1450.964100765923,15.127905721856564L1455.9960122711184,13.089308479313615L1458.511968023716,13.513158336384834L1459.7699459000148,13.76746825062753L1467.3178131578077,13.920054199173194L1469.8337689104055,12.364597565703605L1472.3497246630031,11.43132358562184L1473.607702539302,12.518367400169836L1474.865680415601,14.817601891495542L1482.4135476733939,14.550134383693944L1486.1874813022905,16.03666208160996L1488.7034370548881,15.281570497762687L1492.4773706837848,14.828515547454344L1496.251304312681,14.556682577269214L1497.50928218898,12.746574592561217L1500.0252379415776,14.954526206930382L1501.2832158178765,14.632288972954882L1502.5411936941753,14.438946632569582L1503.7991715704743,12.675933025741472L1506.315127323072,11.618124861644617L1507.5731051993707,14.277456368380399L1510.0890609519683,14.226047069824858L1511.3470388282672,17.489217895885474L1512.605016704566,16.153103986327835L1516.3789503334626,15.351435640593479L1517.6369282097614,14.87043463315274L1520.152883962359,16.228842231285284L1530.2167069727498,13.749870384970905L1531.4746848490486,15.55650368237616L1532.7326627253474,13.346467255625384L1533.9906406016464,15.314461804768825L1537.7645742305426,13.20124212906103L1539.0225521068417,11.933310323636363L1540.2805299831405,14.466567645575424L1544.054463612037,14.339513836141919L1545.312441488336,14.263281550481906L1546.5704193646345,12.570533976488832L1550.3443529935312,13.201893634689952L1565.4400875091173,11.933701227013728L1569.2140211380138,12.819793985004935L1571.7299768906114,13.351449639799569" style="fill: none;" fill="none"></path></g></g></g></g><g opacity="0.2"><g><g><g><path stroke="rgb(255, 112, 67)" stroke-width="2px" d="M91.09001648687803,364.1385074956751L92.34799436317687,372.3735669154284L97.37990586837222,290.0230647517386L98.63788374467104,273.5529827257693L101.15383949726873,277.67050323226164L102.41181737356757,294.140585258231L103.66979524986641,248.8478228732781L106.18575100246409,252.96534337977042L107.44372887876293,269.4354622192769L108.70170675506178,248.8478228732781L109.9596846313606,273.5529827257693L114.99159613655597,269.4354622192769L126.31339702324551,203.55506048832515L127.57137489954435,195.3200194753405L130.08733065214204,195.3200194753405L133.86126428103853,178.84990063583393L135.1192421573374,145.9097365838952L137.63519790993504,162.3798186098646L140.15115366253272,104.73445789189748L141.4091315388316,137.67465875737338L143.92508729142926,96.49941687891277L146.4410430440269,129.4396177443887L147.69902092032578,133.55713825088105L151.4729545492223,92.3818963724205L152.73093242552113,100.61693738540515L153.98891030181997,92.3818963724205L155.2468881781188,112.96953571841937L156.50486605441765,174.73238012934164L160.27879968331416,121.20457673140402L161.536777559613,84.14685535943579L164.05273331221068,75.91181434645114L166.56868906480835,88.26437586592812L167.8266669411072,67.67673651992925L169.08464481740603,55.32417500045227L170.34262269370487,112.96953571841937L174.11655632260138,55.32417500045227L175.37453419890022,80.02933485294346L176.6325120751991,59.44169550694454L177.8904899514979,92.3818963724205L180.40644570409557,55.32417500045227L184.1803793329921,42.971613480975236L190.47026871448628,47.08913398746756L191.72824659078515,55.32417500045227L192.98622446708399,59.44169550694454L194.2442023433828,42.971613480975236L195.50218021968166,42.971613480975236L196.76015809598047,30.6190519614982L203.05004747747466,38.85409297448285L213.1138704878654,63.559216013436924L216.88780411676194,42.971613480975236L218.14578199306075,42.971613480975236L226.95162712715262,34.73657246799053L230.72556075604913,30.6190519614982L233.2415165086468,30.6190519614982L234.49949438494565,42.971613480975236L235.75747226124452,22.38397413497637L240.78938376643987,34.73657246799053L242.0473616427387,26.501494641468696L243.30533951903755,26.501494641468696L247.07927314793406,26.501494641468696L248.3372510242329,22.38397413497637L252.11118465312938,22.38397413497637L257.14309615832474,30.6190519614982L259.65905191092247,34.73657246799053L262.1750076635201,10.031412615499335L263.43298553981896,22.38397413497637L264.6909634161178,18.266453628483987L265.94894129241663,38.85409297448285L270.980852797612,22.38397413497637L273.49680855020966,22.38397413497637L277.2707421791062,26.501494641468696L278.528720055405,22.38397413497637L279.7866979317038,18.266453628483987L282.3026536843015,34.73657246799053L283.56063156060037,18.266453628483987L284.81860943689924,51.20665449395989L288.5925430657957,30.6190519614982L291.1084988183934,38.85409297448285L292.36647669469227,26.501494641468696L294.88243244728994,30.6190519614982L296.14041032358875,22.38397413497637L299.91434395248524,34.73657246799053L306.20423333397946,22.38397413497637L307.4622112102783,18.266453628483987L308.72018908657714,18.266453628483987L311.2361448391748,22.38397413497637L312.4941227154737,18.266453628483987L315.01007846807136,14.14893312199166L317.52603422066903,18.266453628483987L318.7840120969679,26.501494641468696L320.0419899732667,26.501494641468696L321.2999678495655,18.266453628483987L323.81592360216325,26.501494641468696L325.07390147846206,30.6190519614982L333.87974661255396,26.501494641468696L338.9116581177493,18.266453628483987L343.94356962294466,18.266453628483987L345.20154749924353,22.38397413497637L346.45952537554234,18.266453628483987L351.4914368807377,30.6190519614982L355.26537050963424,26.501494641468696L359.0393041385307,26.501494641468696L360.2972820148296,22.38397413497637L364.0712156437261,22.38397413497637L365.32919352002494,26.501494641468696L367.8451492726226,26.501494641468696L369.1031271489215,18.266453628483987L370.3611050252203,22.38397413497637L372.877060777818,18.266453628483987L374.13503865411684,22.38397413497637L376.65099440671446,22.38397413497637L377.9089722830133,14.14893312199166L379.1669501593122,14.14893312199166L382.9408837882087,42.971613480975236L386.7148174171052,26.501494641468696L393.0047067985994,18.266453628483987L395.52066255119706,22.38397413497637L398.03661830379474,22.38397413497637L399.29459618009355,18.266453628483987L405.58448556158777,18.266453628483987L409.35841919048426,22.38397413497637L410.6163970667831,18.266453628483987L411.87437494308205,14.14893312199166L413.13235281938086,18.266453628483987L415.64830857197853,10.031412615499335L420.68022007717383,22.38397413497637L423.1961758297715,26.501494641468696L425.71213158236924,34.73657246799053L428.2280873349669,10.031412615499335L434.517976716461,26.501494641468696L437.0339324690588,22.38397413497637L442.0658439742541,10.031412615499335L448.3557333557483,14.14893312199166L450.871689108346,22.38397413497637L452.1296669846448,30.6190519614982L455.9036006135413,30.6190519614982L458.419556366139,10.031412615499335L459.6775342424379,26.501494641468696L460.9355121187367,18.266453628483987L463.4514678713344,22.38397413497637L464.7094457476332,14.14893312199166L465.96742362393206,18.266453628483987L470.99933512912736,14.14893312199166L472.2573130054263,42.971613480975236L474.77326875802396,26.501494641468696L478.54720238692045,14.14893312199166L483.57911389211586,30.6190519614982L484.83709176841467,30.6190519614982L486.0950696447135,18.266453628483987L487.35304752101234,22.38397413497637L489.86900327360996,30.6190519614982L493.64293690250645,18.266453628483987L494.9009147788053,18.266453628483987L496.15889265510424,18.266453628483987L499.9328262840007,18.266453628483987L501.19080416029954,10.031412615499335L503.7067599128972,22.38397413497637L511.25462717069024,14.14893312199166L513.770582923288,30.6190519614982L517.5445165521844,26.501494641468696L518.8024944284832,18.266453628483987L521.318450181081,18.266453628483987L522.5764280573799,18.266453628483987L528.8663174388739,26.501494641468696L530.1242953151728,14.14893312199166L532.6402510677706,18.266453628483987L535.1562068203682,38.85409297448285L536.414184696667,18.266453628483987L537.6721625729658,10.031412615499335L541.4460962018624,18.266453628483987L542.7040740781612,14.14893312199166L546.4780077070577,10.031412615499335L547.7359855833566,22.38397413497637L550.2519413359543,14.14893312199166L551.5099192122531,14.14893312199166L554.0258749648507,14.14893312199166L559.0577864700462,10.031412615499335L560.315764346345,30.6190519614982L561.5737422226438,22.38397413497637L564.0896979752415,10.031412615499335L565.3476758515403,14.14893312199166L569.1216094804369,14.14893312199166L570.3795873567357,30.6190519614982L571.6375652330345,14.14893312199166L572.8955431093334,18.266453628483987L575.411498861931,14.14893312199166L576.6694767382298,18.266453628483987L577.9274546145286,30.6190519614982L579.1854324908276,26.501494641468696L590.5072333775171,22.38397413497637L591.765211253816,26.501494641468696L594.2811670064136,14.14893312199166L598.0551006353102,14.14893312199166L606.8609457694021,14.14893312199166L608.1189236457009,18.266453628483987L613.1508351508961,14.14893312199166L614.408813027195,10.031412615499335L615.666790903494,14.14893312199166L618.1827466560916,26.501494641468696L620.6987024086892,10.031412615499335L625.7306139138846,14.14893312199166L637.0524148005741,14.14893312199166L638.310392676873,26.501494641468696L639.5683705531718,10.031412615499335L640.8263484294707,14.14893312199166L643.3423041820683,10.031412615499335L644.6002820583672,14.14893312199166L648.3742156872637,10.031412615499335L652.1481493161602,18.266453628483987L660.953994450252,14.14893312199166L662.2119723265508,14.14893312199166L663.4699502028498,14.14893312199166L664.7279280791486,14.14893312199166L667.2438838317463,14.14893312199166L668.5018617080451,18.266453628483987L669.7598395843439,14.14893312199166L672.2757953369417,22.38397413497637L673.5337732132405,22.38397413497637L674.7917510895394,22.38397413497637L677.307706842137,18.266453628483987L679.8236625947346,18.266453628483987L681.0816404710336,22.38397413497637L686.1135519762288,14.14893312199166L694.9193971103207,26.501494641468696L698.6933307392172,26.501494641468696L699.9513086155162,10.031412615499335L702.4672643681138,22.38397413497637L704.9832201207114,22.38397413497637L708.7571537496079,18.266453628483987L722.5949103888952,10.031412615499335L726.3688440177917,14.14893312199166L727.6268218940905,14.14893312199166L728.8847997703893,10.031412615499335L731.4007555229871,14.14893312199166L733.9167112755847,10.031412615499335L735.1746891518836,18.266453628483987L737.6906449044812,18.266453628483987L743.9805342859754,14.14893312199166L745.2385121622742,10.031412615499335L752.7863794200673,18.266453628483987L755.3023351726649,26.501494641468696L756.5603130489638,26.501494641468696L757.8182909252627,14.14893312199166L759.0762688015616,26.501494641468696L760.3342466778604,14.14893312199166L761.5922245541592,22.38397413497637L762.850202430458,10.031412615499335L764.1081803067568,14.14893312199166L765.3661581830557,18.266453628483987L766.6241360593546,14.14893312199166L769.1400918119522,18.266453628483987L772.9140254408487,14.14893312199166L774.1720033171476,18.266453628483987L775.4299811934465,18.266453628483987L777.9459369460441,22.38397413497637L782.9778484512395,18.266453628483987L785.4938042038372,10.031412615499335L788.0097599564348,10.031412615499335L793.0416714616301,10.031412615499335L794.299649337929,18.266453628483987L795.5576272142278,14.14893312199166L798.0735829668255,18.266453628483987L800.5895387194233,14.14893312199166L803.105494472021,10.031412615499335L805.6214502246186,10.031412615499335L806.8794281009174,18.266453628483987L810.6533617298139,18.266453628483987L813.1693174824115,26.501494641468696L814.4272953587105,14.14893312199166L815.6852732350093,14.14893312199166L816.9432511113082,18.266453628483987L818.2012289876069,22.38397413497637L819.4592068639058,22.38397413497637L821.9751626165034,14.14893312199166L823.2331404928022,18.266453628483987L829.5230298742964,14.14893312199166L830.7810077505953,14.14893312199166L833.2969635031931,18.266453628483987L834.5549413794918,22.38397413497637L835.8129192557907,18.266453628483987L839.5868528846872,10.031412615499335L842.102808637285,10.031412615499335L844.6187643898826,18.266453628483987L847.1347201424802,14.14893312199166L849.6506758950779,14.14893312199166L852.1666316476756,10.031412615499335L853.4246095239745,10.031412615499335L854.6825874002732,10.031412615499335L858.4565210291698,10.031412615499335L863.4884325343651,14.14893312199166L864.746410410664,10.031412615499335L867.2623661632617,10.031412615499335L868.5203440395604,18.266453628483987L871.036299792158,14.14893312199166L876.0682112973536,10.031412615499335L882.3581006788477,22.38397413497637L891.1639458129396,14.14893312199166L892.4219236892385,14.14893312199166L894.9378794418361,10.031412615499335L896.195857318135,14.14893312199166L897.4538351944337,18.266453628483987L898.7118130707327,14.14893312199166L899.9697909470315,14.14893312199166L901.2277688233304,10.031412615499335L903.743724575928,18.266453628483987L905.0017024522267,10.031412615499335L910.0336139574223,22.38397413497637L911.291591833721,22.38397413497637L913.8075475863186,10.031412615499335L916.3235033389163,14.14893312199166L920.0974369678129,14.14893312199166L922.6133927204105,30.6190519614982L923.8713705967094,18.266453628483987L925.1293484730082,14.14893312199166L928.9032821019048,22.38397413497637L930.1612599782035,22.38397413497637L931.4192378545024,18.266453628483987L932.6772157308013,22.38397413497637L933.9351936071001,14.14893312199166L936.4511493596978,14.14893312199166L937.7091272359967,14.14893312199166L938.9671051122954,14.14893312199166L941.4830608648931,10.031412615499335L942.741038741192,14.14893312199166L943.999016617491,22.38397413497637L945.2569944937896,22.38397413497637L946.5149723700886,14.14893312199166L947.7729502463873,18.266453628483987L950.288905998985,10.031412615499335L951.5468838752839,22.38397413497637L955.3208175041805,18.266453628483987L960.3527290093758,10.031412615499335L964.1266626382721,14.14893312199166L965.3846405145711,18.266453628483987L966.64261839087,14.14893312199166L969.1585741434677,14.14893312199166L970.4165520197664,14.14893312199166L971.6745298960653,10.031412615499335L972.932507772364,14.14893312199166L975.4484635249618,10.031412615499335L976.7064414012607,10.031412615499335L977.9644192775594,10.031412615499335L982.9963307827549,18.266453628483987L988.0282422879502,10.031412615499335L989.2862201642489,18.266453628483987L991.8021759168467,10.031412615499335L993.0601537931456,22.38397413497637L994.3181316694445,18.266453628483987L995.5761095457432,14.14893312199166L996.8340874220421,18.266453628483987L998.0920652983408,14.14893312199166L1001.8659989272375,14.14893312199166L1003.1239768035364,18.266453628483987L1010.6718440613294,14.14893312199166L1013.187799813927,18.266453628483987L1014.4457776902259,22.38397413497637L1015.7037555665246,14.14893312199166L1016.9617334428235,18.266453628483987L1019.4776891954212,18.266453628483987L1023.2516228243176,18.266453628483987L1024.5096007006166,10.031412615499335L1028.283534329513,14.14893312199166L1029.5415122058118,10.031412615499335L1030.7994900821109,14.14893312199166L1033.3154458347085,14.14893312199166L1035.8314015873061,14.14893312199166L1039.6053352162028,18.266453628483987L1040.8633130925014,18.266453628483987L1043.379268845099,14.14893312199166L1047.1532024739956,14.14893312199166L1048.4111803502944,22.38397413497637L1049.6691582265933,14.14893312199166L1052.1851139791909,10.031412615499335L1053.44309185549,18.266453628483987L1054.7010697317887,14.14893312199166L1057.2170254843863,18.266453628483987L1058.4750033606852,10.031412615499335L1059.732981236984,22.38397413497637L1066.0228706184782,22.38397413497637L1071.0547821236735,14.14893312199166L1072.3127599999725,14.14893312199166L1074.8287157525701,10.031412615499335L1077.3446715051678,10.031412615499335L1079.8606272577654,18.266453628483987L1081.1186051340644,10.031412615499335L1082.376583010363,18.266453628483987L1083.634560886662,18.266453628483987L1084.8925387629606,18.266453628483987L1086.1505166392596,18.266453628483987L1088.6664723918573,14.14893312199166L1091.182428144455,26.501494641468696L1093.6983838970525,14.14893312199166L1097.4723175259492,14.14893312199166L1099.9882732785468,10.031412615499335L1101.2462511548458,10.031412615499335L1102.5042290311444,22.38397413497637L1107.5361405363399,14.14893312199166L1110.0520962889377,10.031412615499335L1111.3100741652363,14.14893312199166L1113.8260299178341,14.14893312199166L1117.5999635467306,10.031412615499335L1120.1159192993282,10.031412615499335L1121.373897175627,10.031412615499335L1122.631875051926,18.266453628483987L1126.4058086808225,18.266453628483987L1130.179742309719,22.38397413497637L1131.437720186018,14.14893312199166L1133.9536759386156,14.14893312199166L1136.4696316912132,14.14893312199166L1138.9855874438108,10.031412615499335L1145.275476825305,18.266453628483987L1147.7914325779027,22.38397413497637L1149.0494104542017,10.031412615499335L1150.3073883305003,14.14893312199166L1151.5653662067994,14.14893312199166L1155.3392998356958,22.38397413497637L1162.8871670934889,10.031412615499335L1165.4031228460865,18.266453628483987L1166.6611007223853,10.031412615499335L1167.919078598684,14.14893312199166L1169.177056474983,10.031412615499335L1170.4350343512817,22.38397413497637L1175.4669458564772,14.14893312199166L1177.9829016090748,18.266453628483987L1179.2408794853736,10.031412615499335L1183.0148131142703,18.266453628483987L1184.272790990569,18.266453628483987L1185.530768866868,10.031412615499335L1186.7887467431667,14.14893312199166L1188.0467246194655,14.14893312199166L1190.5626803720634,14.14893312199166L1191.820658248362,14.14893312199166L1193.078636124661,14.14893312199166L1194.3366140009598,10.031412615499335L1196.8525697535574,18.266453628483987L1200.6265033824538,14.14893312199166L1203.1424591350515,10.031412615499335L1204.4004370113505,18.266453628483987L1206.9163927639481,10.031412615499335L1208.1743706402472,18.266453628483987L1211.9483042691434,14.14893312199166L1213.2062821454424,14.14893312199166L1215.72223789804,10.031412615499335L1216.9802157743388,10.031412615499335L1225.7860609084307,14.14893312199166L1227.0440387847295,10.031412615499335L1228.3020166610283,10.031412615499335L1229.5599945373272,18.266453628483987L1230.8179724136262,18.266453628483987L1232.075950289925,18.266453628483987L1233.3339281662238,10.031412615499335L1235.8498839188214,10.031412615499335L1237.1078617951202,18.266453628483987L1238.365839671419,18.266453628483987L1242.1397733003157,18.266453628483987L1243.3977511766145,10.031412615499335L1244.6557290529133,14.14893312199166L1245.9137069292121,18.266453628483987L1248.4296626818098,18.266453628483987L1255.9775299396028,18.266453628483987L1257.2355078159017,10.031412615499335L1258.4934856922007,18.266453628483987L1261.0094414447983,10.031412615499335L1266.0413529499936,10.031412615499335L1269.8152865788902,14.14893312199166L1273.5892202077866,18.266453628483987L1278.621131712982,14.14893312199166L1282.3950653418785,14.14893312199166L1283.6530432181773,14.14893312199166L1284.9110210944762,14.14893312199166L1287.4269768470738,18.266453628483987L1288.6849547233726,14.14893312199166L1289.9429325996716,18.266453628483987L1293.716866228568,18.266453628483987L1294.9748441048669,18.266453628483987L1297.4907998574645,14.14893312199166L1300.0067556100623,22.38397413497637L1301.2647334863611,10.031412615499335L1303.7806892389588,10.031412615499335L1306.2966449915564,14.14893312199166L1307.5546228678552,10.031412615499335L1310.0705786204528,18.266453628483987L1312.5865343730507,10.031412615499335L1313.8445122493495,10.031412615499335L1315.1024901256483,14.14893312199166L1316.360468001947,18.266453628483987L1320.1344016308437,10.031412615499335L1321.3923795071426,10.031412615499335L1322.6503573834414,14.14893312199166L1326.424291012338,26.501494641468696L1327.6822688886366,14.14893312199166L1337.7460918990275,14.14893312199166L1341.520025527924,14.14893312199166L1342.7780034042228,10.031412615499335L1345.2939591568204,10.031412615499335L1347.809914909418,18.266453628483987L1349.067892785717,14.14893312199166L1352.8418264146135,14.14893312199166L1354.0998042909123,14.14893312199166L1356.61576004351,10.031412615499335L1357.8737379198087,10.031412615499335L1359.1317157961078,14.14893312199166L1360.3896936724063,18.266453628483987L1364.163627301303,14.14893312199166L1374.2274503116937,10.031412615499335L1375.4854281879925,22.38397413497637L1376.7434060642915,14.14893312199166L1379.2593618168892,10.031412615499335L1381.7753175694868,22.38397413497637L1383.0332954457856,18.266453628483987L1384.2912733220844,10.031412615499335L1386.807229074682,14.14893312199166L1389.3231848272799,14.14893312199166L1390.5811627035787,18.266453628483987L1391.8391405798775,14.14893312199166L1395.613074208774,14.14893312199166L1396.871052085073,10.031412615499335L1398.1290299613718,14.14893312199166L1404.4189193428658,10.031412615499335L1406.9348750954637,14.14893312199166L1408.1928529717625,10.031412615499335L1410.70880872436,14.14893312199166L1411.966786600659,18.266453628483987L1414.4827423532565,14.14893312199166L1422.0306096110496,18.266453628483987L1423.2885874873484,22.38397413497637L1425.804543239946,14.14893312199166L1428.3204989925437,10.031412615499335L1433.3524104977391,10.031412615499335L1435.868366250337,18.266453628483987L1438.3843220029346,14.14893312199166L1440.9002777555322,14.14893312199166L1443.4162335081298,10.031412615499335L1445.9321892607275,18.266453628483987L1447.1901671370265,18.266453628483987L1448.4481450133253,22.38397413497637L1449.706122889624,18.266453628483987L1450.964100765923,10.031412615499335L1455.9960122711184,10.031412615499335L1458.511968023716,14.14893312199166L1459.7699459000148,14.14893312199166L1467.3178131578077,14.14893312199166L1469.8337689104055,10.031412615499335L1472.3497246630031,10.031412615499335L1473.607702539302,14.14893312199166L1474.865680415601,18.266453628483987L1482.4135476733939,14.14893312199166L1486.1874813022905,18.266453628483987L1488.7034370548881,14.14893312199166L1492.4773706837848,14.14893312199166L1496.251304312681,14.14893312199166L1497.50928218898,10.031412615499335L1500.0252379415776,18.266453628483987L1501.2832158178765,14.14893312199166L1502.5411936941753,14.14893312199166L1503.7991715704743,10.031412615499335L1506.315127323072,10.031412615499335L1507.5731051993707,18.266453628483987L1510.0890609519683,14.14893312199166L1511.3470388282672,22.38397413497637L1512.605016704566,14.14893312199166L1516.3789503334626,14.14893312199166L1517.6369282097614,14.14893312199166L1520.152883962359,18.266453628483987L1530.2167069727498,10.031412615499335L1531.4746848490486,18.266453628483987L1532.7326627253474,10.031412615499335L1533.9906406016464,18.266453628483987L1537.7645742305426,10.031412615499335L1539.0225521068417,10.031412615499335L1540.2805299831405,18.266453628483987L1544.054463612037,14.14893312199166L1545.312441488336,14.14893312199166L1546.5704193646345,10.031412615499335L1550.3443529935312,14.14893312199166L1565.4400875091173,10.031412615499335L1569.2140211380138,14.14893312199166L1571.7299768906114,14.14893312199166" style="fill: none;" fill="none"></path></g></g></g></g></g></g><g transform="translate(53, 377)" clip-path="url(#clip_1)"><clipPath id="clip_1"><rect width="1571" height="23"></rect></clipPath><g><g><line x1="84.80012710538382" y1="0" x2="84.80012710538382" y2="5" style="visibility: inherit;" fill="rgb(0, 0, 0)" stroke="rgb(204, 204, 204)" stroke-width="1px"></line><line x1="210.5979147352677" y1="0" x2="210.5979147352677" y2="5" style="visibility: inherit;" fill="rgb(0, 0, 0)" stroke="rgb(204, 204, 204)" stroke-width="1px"></line><line x1="336.39570236515164" y1="0" x2="336.39570236515164" y2="5" style="visibility: inherit;" fill="rgb(0, 0, 0)" stroke="rgb(204, 204, 204)" stroke-width="1px"></line><line x1="462.1934899950356" y1="0" x2="462.1934899950356" y2="5" style="visibility: inherit;" fill="rgb(0, 0, 0)" stroke="rgb(204, 204, 204)" stroke-width="1px"></line><line x1="587.9912776249193" y1="0" x2="587.9912776249193" y2="5" style="visibility: inherit;" fill="rgb(0, 0, 0)" stroke="rgb(204, 204, 204)" stroke-width="1px"></line><line x1="713.7890652548033" y1="0" x2="713.7890652548033" y2="5" style="visibility: inherit;" fill="rgb(0, 0, 0)" stroke="rgb(204, 204, 204)" stroke-width="1px"></line><line x1="839.5868528846872" y1="0" x2="839.5868528846872" y2="5" style="visibility: inherit;" fill="rgb(0, 0, 0)" stroke="rgb(204, 204, 204)" stroke-width="1px"></line><line x1="965.3846405145711" y1="0" x2="965.3846405145711" y2="5" style="visibility: inherit;" fill="rgb(0, 0, 0)" stroke="rgb(204, 204, 204)" stroke-width="1px"></line><line x1="1091.182428144455" y1="0" x2="1091.182428144455" y2="5" style="visibility: inherit;" fill="rgb(0, 0, 0)" stroke="rgb(204, 204, 204)" stroke-width="1px"></line><line x1="1216.9802157743388" y1="0" x2="1216.9802157743388" y2="5" style="visibility: inherit;" fill="rgb(0, 0, 0)" stroke="rgb(204, 204, 204)" stroke-width="1px"></line><line x1="1342.7780034042228" y1="0" x2="1342.7780034042228" y2="5" style="visibility: inherit;" fill="rgb(0, 0, 0)" stroke="rgb(204, 204, 204)" stroke-width="1px"></line><line x1="1468.5757910341067" y1="0" x2="1468.5757910341067" y2="5" style="visibility: inherit;" fill="rgb(0, 0, 0)" stroke="rgb(204, 204, 204)" stroke-width="1px"></line></g><g transform="translate(0, 8)"><text x="84.80012710538382" y="0" dx="0em" dy="0.95em" style="text-anchor: middle; visibility: inherit; font-family: &quot;Helvetica Neue&quot;, sans-serif; font-size: 12px; font-weight: 200;" fill="rgb(50, 49, 63)" stroke="none" stroke-width="1px">0</text><text x="210.5979147352677" y="0" dx="0em" dy="0.95em" style="text-anchor: middle; visibility: inherit; font-family: &quot;Helvetica Neue&quot;, sans-serif; font-size: 12px; font-weight: 200;" fill="rgb(50, 49, 63)" stroke="none" stroke-width="1px">100</text><text x="336.39570236515164" y="0" dx="0em" dy="0.95em" style="text-anchor: middle; visibility: inherit; font-family: &quot;Helvetica Neue&quot;, sans-serif; font-size: 12px; font-weight: 200;" fill="rgb(50, 49, 63)" stroke="none" stroke-width="1px">200</text><text x="462.1934899950356" y="0" dx="0em" dy="0.95em" style="text-anchor: middle; visibility: inherit; font-family: &quot;Helvetica Neue&quot;, sans-serif; font-size: 12px; font-weight: 200;" fill="rgb(50, 49, 63)" stroke="none" stroke-width="1px">300</text><text x="587.9912776249193" y="0" dx="0em" dy="0.95em" style="text-anchor: middle; visibility: inherit; font-family: &quot;Helvetica Neue&quot;, sans-serif; font-size: 12px; font-weight: 200;" fill="rgb(50, 49, 63)" stroke="none" stroke-width="1px">400</text><text x="713.7890652548033" y="0" dx="0em" dy="0.95em" style="text-anchor: middle; visibility: inherit; font-family: &quot;Helvetica Neue&quot;, sans-serif; font-size: 12px; font-weight: 200;" fill="rgb(50, 49, 63)" stroke="none" stroke-width="1px">500</text><text x="839.5868528846872" y="0" dx="0em" dy="0.95em" style="text-anchor: middle; visibility: inherit; font-family: &quot;Helvetica Neue&quot;, sans-serif; font-size: 12px; font-weight: 200;" fill="rgb(50, 49, 63)" stroke="none" stroke-width="1px">600</text><text x="965.3846405145711" y="0" dx="0em" dy="0.95em" style="text-anchor: middle; visibility: inherit; font-family: &quot;Helvetica Neue&quot;, sans-serif; font-size: 12px; font-weight: 200;" fill="rgb(50, 49, 63)" stroke="none" stroke-width="1px">700</text><text x="1091.182428144455" y="0" dx="0em" dy="0.95em" style="text-anchor: middle; visibility: inherit; font-family: &quot;Helvetica Neue&quot;, sans-serif; font-size: 12px; font-weight: 200;" fill="rgb(50, 49, 63)" stroke="none" stroke-width="1px">800</text><text x="1216.9802157743388" y="0" dx="0em" dy="0.95em" style="text-anchor: middle; visibility: inherit; font-family: &quot;Helvetica Neue&quot;, sans-serif; font-size: 12px; font-weight: 200;" fill="rgb(50, 49, 63)" stroke="none" stroke-width="1px">900</text><text x="1342.7780034042228" y="0" dx="0em" dy="0.95em" style="text-anchor: middle; visibility: inherit; font-family: &quot;Helvetica Neue&quot;, sans-serif; font-size: 12px; font-weight: 200;" fill="rgb(50, 49, 63)" stroke="none" stroke-width="1px">1k</text><text x="1468.5757910341067" y="0" dx="0em" dy="0.95em" style="text-anchor: middle; visibility: inherit; font-family: &quot;Helvetica Neue&quot;, sans-serif; font-size: 12px; font-weight: 200;" fill="rgb(50, 49, 63)" stroke="none" stroke-width="1px">1.1k</text></g><line x1="0" y1="0" x2="1571.0125" y2="0" fill="rgb(0, 0, 0)" stroke="rgb(204, 204, 204)" stroke-width="1px"></line></g></g></g></g></svg>