<svg viewBox="0 0 1641 400" xmlns="http://www.w3.org/2000/svg"><g><g><g><g><g><line x1="53.1875" y1="368.3658629588577" x2="48.1875" y2="368.3658629588577" style="visibility: inherit;" fill="rgb(0, 0, 0)" stroke="rgb(204, 204, 204)" stroke-width="1px"></line><line x1="53.1875" y1="336.0638175043123" x2="48.1875" y2="336.0638175043123" style="visibility: inherit;" fill="rgb(0, 0, 0)" stroke="rgb(204, 204, 204)" stroke-width="1px"></line><line x1="53.1875" y1="303.7617720497668" x2="48.1875" y2="303.7617720497668" style="visibility: inherit;" fill="rgb(0, 0, 0)" stroke="rgb(204, 204, 204)" stroke-width="1px"></line><line x1="53.1875" y1="271.4597265952214" x2="48.1875" y2="271.4597265952214" style="visibility: inherit;" fill="rgb(0, 0, 0)" stroke="rgb(204, 204, 204)" stroke-width="1px"></line><line x1="53.1875" y1="239.15768114067598" x2="48.1875" y2="239.15768114067598" style="visibility: inherit;" fill="rgb(0, 0, 0)" stroke="rgb(204, 204, 204)" stroke-width="1px"></line><line x1="53.1875" y1="206.85563568613054" x2="48.1875" y2="206.85563568613054" style="visibility: inherit;" fill="rgb(0, 0, 0)" stroke="rgb(204, 204, 204)" stroke-width="1px"></line><line x1="53.1875" y1="174.55359023158513" x2="48.1875" y2="174.55359023158513" style="visibility: inherit;" fill="rgb(0, 0, 0)" stroke="rgb(204, 204, 204)" stroke-width="1px"></line><line x1="53.1875" y1="142.25154477703967" x2="48.1875" y2="142.25154477703967" style="visibility: inherit;" fill="rgb(0, 0, 0)" stroke="rgb(204, 204, 204)" stroke-width="1px"></line><line x1="53.1875" y1="109.94949932249426" x2="48.1875" y2="109.94949932249426" style="visibility: inherit;" fill="rgb(0, 0, 0)" stroke="rgb(204, 204, 204)" stroke-width="1px"></line><line x1="53.1875" y1="77.64745386794885" x2="48.1875" y2="77.64745386794885" style="visibility: inherit;" fill="rgb(0, 0, 0)" stroke="rgb(204, 204, 204)" stroke-width="1px"></line><line x1="53.1875" y1="45.34540841340339" x2="48.1875" y2="45.34540841340339" style="visibility: inherit;" fill="rgb(0, 0, 0)" stroke="rgb(204, 204, 204)" stroke-width="1px"></line><line x1="53.1875" y1="13.043362958857983" x2="48.1875" y2="13.043362958857983" style="visibility: inherit;" fill="rgb(0, 0, 0)" stroke="rgb(204, 204, 204)" stroke-width="1px"></line></g><g transform="translate(43.1875, 0)"><text x="0" y="368.3658629588577" dx="0em" dy="0.3em" style="text-anchor: end; visibility: inherit; font-family: &quot;Helvetica Neue&quot;, sans-serif; font-size: 12px; font-weight: 200;" fill="rgb(50, 49, 63)" stroke="none" stroke-width="1px">0</text><text x="0" y="336.0638175043123" dx="0em" dy="0.3em" style="text-anchor: end; visibility: inherit; font-family: &quot;Helvetica Neue&quot;, sans-serif; font-size: 12px; font-weight: 200;" fill="rgb(50, 49, 63)" stroke="none" stroke-width="1px">0.02</text><text x="0" y="303.7617720497668" dx="0em" dy="0.3em" style="text-anchor: end; visibility: inherit; font-family: &quot;Helvetica Neue&quot;, sans-serif; font-size: 12px; font-weight: 200;" fill="rgb(50, 49, 63)" stroke="none" stroke-width="1px">0.04</text><text x="0" y="271.4597265952214" dx="0em" dy="0.3em" style="text-anchor: end; visibility: inherit; font-family: &quot;Helvetica Neue&quot;, sans-serif; font-size: 12px; font-weight: 200;" fill="rgb(50, 49, 63)" stroke="none" stroke-width="1px">0.06</text><text x="0" y="239.15768114067598" dx="0em" dy="0.3em" style="text-anchor: end; visibility: inherit; font-family: &quot;Helvetica Neue&quot;, sans-serif; font-size: 12px; font-weight: 200;" fill="rgb(50, 49, 63)" stroke="none" stroke-width="1px">0.08</text><text x="0" y="206.85563568613054" dx="0em" dy="0.3em" style="text-anchor: end; visibility: inherit; font-family: &quot;Helvetica Neue&quot;, sans-serif; font-size: 12px; font-weight: 200;" fill="rgb(50, 49, 63)" stroke="none" stroke-width="1px">0.1</text><text x="0" y="174.55359023158513" dx="0em" dy="0.3em" style="text-anchor: end; visibility: inherit; font-family: &quot;Helvetica Neue&quot;, sans-serif; font-size: 12px; font-weight: 200;" fill="rgb(50, 49, 63)" stroke="none" stroke-width="1px">0.12</text><text x="0" y="142.25154477703967" dx="0em" dy="0.3em" style="text-anchor: end; visibility: inherit; font-family: &quot;Helvetica Neue&quot;, sans-serif; font-size: 12px; font-weight: 200;" fill="rgb(50, 49, 63)" stroke="none" stroke-width="1px">0.14</text><text x="0" y="109.94949932249426" dx="0em" dy="0.3em" style="text-anchor: end; visibility: inherit; font-family: &quot;Helvetica Neue&quot;, sans-serif; font-size: 12px; font-weight: 200;" fill="rgb(50, 49, 63)" stroke="none" stroke-width="1px">0.16</text><text x="0" y="77.64745386794885" dx="0em" dy="0.3em" style="text-anchor: end; visibility: inherit; font-family: &quot;Helvetica Neue&quot;, sans-serif; font-size: 12px; font-weight: 200;" fill="rgb(50, 49, 63)" stroke="none" stroke-width="1px">0.18</text><text x="0" y="45.34540841340339" dx="0em" dy="0.3em" style="text-anchor: end; visibility: inherit; font-family: &quot;Helvetica Neue&quot;, sans-serif; font-size: 12px; font-weight: 200;" fill="rgb(50, 49, 63)" stroke="none" stroke-width="1px">0.2</text><text x="0" y="13.043362958857983" dx="0em" dy="0.3em" style="text-anchor: end; visibility: inherit; font-family: &quot;Helvetica Neue&quot;, sans-serif; font-size: 12px; font-weight: 200;" fill="rgb(50, 49, 63)" stroke="none" stroke-width="1px">0.22</text></g><line x1="53.1875" y1="0" x2="53.1875" y2="377" fill="rgb(0, 0, 0)" stroke="rgb(204, 204, 204)" stroke-width="1px"></line></g></g><g transform="translate(53, 0)" clip-path="url(#clip_0)"><clipPath id="clip_0"><rect width="1587" height="377"></rect></clipPath><g><g><g><line x1="28.01169750360185" y1="0" x2="28.01169750360185" y2="377" fill="rgb(0, 0, 0)" stroke="rgb(60, 60, 60)" stroke-width="1px" opacity="0.25"></line><line x1="188.79923163346365" y1="0" x2="188.79923163346365" y2="377" fill="rgb(0, 0, 0)" stroke="rgb(60, 60, 60)" stroke-width="1px" opacity="0.25"></line><line x1="349.58676576332545" y1="0" x2="349.58676576332545" y2="377" fill="rgb(0, 0, 0)" stroke="rgb(60, 60, 60)" stroke-width="1px" opacity="0.25"></line><line x1="510.3742998931873" y1="0" x2="510.3742998931873" y2="377" fill="rgb(0, 0, 0)" stroke="rgb(60, 60, 60)" stroke-width="1px" opacity="0.25"></line><line x1="671.1618340230491" y1="0" x2="671.1618340230491" y2="377" fill="rgb(0, 0, 0)" stroke="rgb(60, 60, 60)" stroke-width="1px" opacity="0.25"></line><line x1="831.949368152911" y1="0" x2="831.949368152911" y2="377" fill="rgb(0, 0, 0)" stroke="rgb(60, 60, 60)" stroke-width="1px" opacity="0.25"></line><line x1="992.7369022827727" y1="0" x2="992.7369022827727" y2="377" fill="rgb(0, 0, 0)" stroke="rgb(60, 60, 60)" stroke-width="1px" opacity="0.25"></line><line x1="1153.5244364126345" y1="0" x2="1153.5244364126345" y2="377" fill="rgb(0, 0, 0)" stroke="rgb(60, 60, 60)" stroke-width="1px" opacity="0.25"></line><line x1="1314.3119705424965" y1="0" x2="1314.3119705424965" y2="377" fill="rgb(0, 0, 0)" stroke="rgb(60, 60, 60)" stroke-width="1px" opacity="0.25"></line><line x1="1475.099504672358" y1="0" x2="1475.099504672358" y2="377" fill="rgb(0, 0, 0)" stroke="rgb(60, 60, 60)" stroke-width="1px" opacity="0.25"></line></g><g><line x1="0" y1="368.3658629588577" x2="1587.8125" y2="368.3658629588577" fill="rgb(0, 0, 0)" stroke="rgb(60, 60, 60)" stroke-width="1px" opacity="0.25"></line><line x1="0" y1="336.0638175043123" x2="1587.8125" y2="336.0638175043123" fill="rgb(0, 0, 0)" stroke="rgb(60, 60, 60)" stroke-width="1px" opacity="0.25"></line><line x1="0" y1="303.7617720497668" x2="1587.8125" y2="303.7617720497668" fill="rgb(0, 0, 0)" stroke="rgb(60, 60, 60)" stroke-width="1px" opacity="0.25"></line><line x1="0" y1="271.4597265952214" x2="1587.8125" y2="271.4597265952214" fill="rgb(0, 0, 0)" stroke="rgb(60, 60, 60)" stroke-width="1px" opacity="0.25"></line><line x1="0" y1="239.15768114067598" x2="1587.8125" y2="239.15768114067598" fill="rgb(0, 0, 0)" stroke="rgb(60, 60, 60)" stroke-width="1px" opacity="0.25"></line><line x1="0" y1="206.85563568613054" x2="1587.8125" y2="206.85563568613054" fill="rgb(0, 0, 0)" stroke="rgb(60, 60, 60)" stroke-width="1px" opacity="0.25"></line><line x1="0" y1="174.55359023158513" x2="1587.8125" y2="174.55359023158513" fill="rgb(0, 0, 0)" stroke="rgb(60, 60, 60)" stroke-width="1px" opacity="0.25"></line><line x1="0" y1="142.25154477703967" x2="1587.8125" y2="142.25154477703967" fill="rgb(0, 0, 0)" stroke="rgb(60, 60, 60)" stroke-width="1px" opacity="0.25"></line><line x1="0" y1="109.94949932249426" x2="1587.8125" y2="109.94949932249426" fill="rgb(0, 0, 0)" stroke="rgb(60, 60, 60)" stroke-width="1px" opacity="0.25"></line><line x1="0" y1="77.64745386794885" x2="1587.8125" y2="77.64745386794885" fill="rgb(0, 0, 0)" stroke="rgb(60, 60, 60)" stroke-width="1px" opacity="0.25"></line><line x1="0" y1="45.34540841340339" x2="1587.8125" y2="45.34540841340339" fill="rgb(0, 0, 0)" stroke="rgb(60, 60, 60)" stroke-width="1px" opacity="0.25"></line><line x1="0" y1="13.043362958857983" x2="1587.8125" y2="13.043362958857983" fill="rgb(0, 0, 0)" stroke="rgb(60, 60, 60)" stroke-width="1px" opacity="0.25"></line></g></g></g><g><g><line x1="0" y1="368.3658629588577" x2="1587.8125" y2="368.3658629588577" fill="rgb(0, 0, 0)" stroke="rgb(153, 153, 153)" stroke-width="1.5px"></line></g></g><g><g><line x1="28.01169750360185" y1="0" x2="28.01169750360185" y2="377" fill="rgb(0, 0, 0)" stroke="rgb(153, 153, 153)" stroke-width="1.5px"></line></g></g><g><g><g><g><g><path stroke="rgb(255, 112, 67)" stroke-width="2px" d="M32.031385856848395,19.735190304382286L32.83532352749771,16.872959094825603L36.05107421009494,31.183875701518843L36.85501188074425,39.575519597967855L38.46288722204287,49.41585588381014L39.26682489269218,52.478759695755514L40.07076256334149,59.274583629486074L41.678637904640105,65.05097723431692L42.48257557528942,65.38971763206968L43.28651324593872,72.02494674133067L44.09045091658803,73.32849376305529L47.30620159918527,79.87406494350046L54.54164063502905,98.56163011393812L55.34557830567835,118.32363021532296L56.95345364697697,126.68045846700645L59.365266658924895,140.00547502267494L60.16920432957421,150.01728677653105L61.77707967087283,158.38608514945534L63.38495501217144,175.17245795186955L64.18889268282075,180.80345863145862L65.79676802411937,190.88094643854862L67.40464336541798,201.44861779858226L68.2085810360673,197.1468764625891L70.62039404801523,212.31179084473507L71.42433171866453,216.97115140198872L72.22826938931385,224.546376600574L73.03220705996316,220.3476771112659L73.83614473061246,190.36040496560636L76.24795774256039,201.2399150462597L77.05189541320969,219.692798654088L78.65977075450832,227.39109255102116L80.26764609580694,230.60553832025388L81.07158376645624,244.9841576272702L81.87552143710555,258.25767726598207L82.67945910775487,239.94613732599305L85.09127211970278,259.8806693594099L85.8952097903521,255.52756844861457L86.69914746100142,265.9401218288383L87.50308513165072,255.13466240404068L89.11096047294933,270.3133410231387L91.52277348489726,278.55940082993396L95.54246183814381,284.3059350260835L96.34639950879311,283.0034707874851L97.15033717944243,284.3246907640966L97.95427485009174,292.5640222335884L98.75821252074104,295.0856992429648L99.56215019139036,307.8210849538923L103.58183854463691,308.79856620121245L110.01333990983137,298.314745757787L112.42515292177929,305.14152250868074L113.2290905924286,307.5555000191871L118.85665428697376,313.53383171775397L121.26846729892169,318.9190528961502L122.8763426402203,323.4559917824857L123.68028031086962,321.861177914022L124.48421798151894,331.84689079177434L127.69996866411617,331.134030656114L128.50390633476547,335.46284962398397L129.30784400541478,337.3049722448319L131.71965701736272,336.99333359402647L132.52359468801203,339.94525769593537L134.93540769995994,342.6689932685833L138.15115838255718,337.9405998508029L139.7590337238558,333.7901729375147L141.3669090651544,346.889783598875L142.17084673580374,346.47748264087056L142.97478440645304,347.8374478418833L143.77872207710234,339.6871008607528L146.9944727596996,342.6333133498631L148.6023481009982,343.9616568776706L151.01416111294614,344.2006779505669L151.81809878359542,344.04875484276135L152.62203645424475,347.6961458968949L154.22991179554336,339.8408082257869L155.0338494661927,345.7269087484412L155.83778713684197,327.95273755489757L158.2496001487899,329.6511699723207L159.85747549008852,326.54194032314433L160.66141316073782,331.7638709316452L162.26928850203646,334.74454142271475L163.07322617268576,339.88437376410957L165.4850391846337,334.13984378185995L169.50472753788023,338.9540943958775L170.30866520852953,344.75465294001606L171.11260287917887,348.90245463859554L172.72047822047747,349.03688148357L173.52441589112678,351.2245350596096L175.1322912324254,355.65379578015387L176.740166573724,355.3721048192766L177.54410424437333,350.78033962169405L178.34804191502263,347.44152161521237L179.15197958567194,350.51262341650676L180.75985492697055,345.71962761006677L181.56379259761988,342.1161241051323L187.19135629216504,342.6567642766878L190.40710697476229,346.8693533118L193.6228576573595,349.33163910695487L194.4267953280088,348.83748087783164L195.2307329986581,351.2433178742406L198.44648368125536,343.4806005330736L200.8582966932033,342.15056191135943L203.2701097051512,342.1666521479958L204.07404737580052,343.84792031371165L206.48586038774846,345.66008184425044L207.28979805839774,344.8550020798272L208.89767339969637,344.1591426640206L209.70161107034568,348.68964854314817L210.50554874099498,349.4047593500033L212.11342408229362,351.2551946455102L212.9173617529429,350.6864785312362L214.52523709424153,348.72652786689736L215.32917476489084,354.0513347275239L216.13311243554017,356.9126516194568L218.5449254474881,338.7526994193368L220.956738459436,339.4168720959299L224.97642681268255,345.80414742762383L226.58430215398118,345.927610907704L228.1921774952798,347.0118092501261L228.99611516592907,350.68025244848275L233.01580351917565,352.2275181841738L235.4276165311236,349.8024139258436L236.23155420177287,351.82087520449045L237.03549187242223,356.01581322906105L237.8394295430715,355.71823444815726L239.4473048843701,360.5463807815808L242.66305556696736,355.46507042048324L244.27093090826597,349.36476442450135L245.8788062495646,343.2139672112809L247.48668159086324,353.1739587190573L251.50636994410976,348.9293261994109L253.1142452854084,348.547080291187L256.3299959680056,355.1826730277645L260.34968432125214,357.5123087962013L261.95755966255075,354.5480017601005L262.76149733320005,346.66219394934814L265.173310345148,340.93159119154245L266.78118568644663,351.7777382718726L267.58512335709594,348.1831865331509L268.38906102774524,350.5172576754643L269.99693636904385,350.43351273055083L270.80087403969316,354.6911718486756L271.6048117103425,354.72777489842724L274.82056239293973,357.2929870593915L275.62450006358904,340.3293522048331L277.23237540488765,339.92267175542463L279.64418841683556,349.8507471092783L282.85993909943284,345.0377988303017L283.6638767700821,340.7242333437213L284.46781444073144,345.9794742751697L285.27175211138075,348.0524458524968L286.87962745267936,341.78434243656375L289.29144046462727,347.46767041803577L290.0953781352766,350.48654880615493L290.8993158059259,351.831622985305L293.31112881787385,353.29633522683724L294.1150664885231,358.9002890388678L295.72294182982176,355.8641019793254L300.54656785371765,357.8509681360654L302.1544431950162,350.4172939134746L304.56625620696417,348.02934928818286L305.3701938776135,350.4154549199807L306.9780692189121,351.8818745116986L307.7820068895614,353.372465953806L311.8016952428079,347.81505369443266L312.6056329134572,353.0955150977215L314.2135082547559,353.58957525842254L315.82138359605443,341.3955451201753L316.6253212667038,347.11772833546775L317.4292589373531,355.51280920342975L319.841071949301,356.2522613065274L320.6450096199503,358.1994411054539L323.0568226318982,362.0641252636221L323.8607603025476,356.4739630060732L325.4686356438462,359.0233594783558L326.2725733144955,359.85151358121675L327.8804486557941,359.87019855865196L331.09619933839133,363.1608827687141L331.9001370090407,352.09623723552613L332.70407467969,351.0882872830291L334.3119500209886,357.9446950366515L335.1158876916379,359.70691074330995L337.5277007035858,360.2544829334632L338.3316383742351,350.67432339962204L339.13557604488443,354.82685879005794L339.9395137155338,355.15675941808087L341.54738905683234,357.64096858855066L342.3513267274817,358.8074182498052L343.155264398131,349.14704383877944L343.9592020687803,346.8873321180293L351.19464110462405,347.65784752829984L351.99857877527336,346.49383124017805L353.606454116572,352.195656246303L356.01826712851994,355.70681259556005L361.64583082306507,357.85183685313734L362.4497684937144,356.92536272255995L365.6655191763116,358.6438949924679L366.46945684696095,362.5035234171528L367.27339451761026,361.9152372897096L368.88126985890887,352.7370094468312L370.4891452002075,358.9549167111773L373.7048958828047,359.8132851075021L380.9403349186485,360.534354302071L381.74427258929785,353.27593319613413L382.54821025994715,359.27132259779813L383.3521479305964,360.6776361333824L384.96002327189507,363.7124432083552L385.7639609425444,362.6793663542725L388.1757739544923,364.9292321205667L390.5875869664402,362.98434335155264L396.2151506609854,362.5100361987797L397.0190883316347,361.92484550462365L397.823026002284,361.92083474009013L398.62696367293324,361.5929216631786L400.23483901423197,362.1329822402576L401.0387766848812,359.2606449536119L401.8427143555305,360.6164881810441L403.4505896968291,355.6720129756298L404.2545273674785,352.66298936311426L405.0584650381278,350.228151772921L406.6663403794264,352.82055548694376L408.274215720725,353.2758726726146L409.07815339137426,350.68626439730923L412.29390407397153,354.8014347011502L417.9214677685167,350.2878587734081L420.3332807804647,347.38046636573404L421.137218451114,355.75004118475044L422.74509379241255,352.81572832248685L424.35296913371116,350.38939361298804L426.7647821456591,351.80713965122874L435.6080965228016,358.381781427575L438.01990953474944,359.46298108358724L438.82384720539875,360.10429940314793L439.62778487604805,363.3923856656041L441.2356602173467,362.41339169554277L442.8435355586453,364.6306354859396L443.64747322929463,361.0313144010708L445.2553485705932,359.4898541870219L449.27503692383976,360.1091193434388L450.07897459448907,363.34747353945227L454.90260061838495,360.3092300395298L456.5104759596835,352.8364255991267L457.3144136303329,347.53998449165124L458.11835130098217,352.961663074214L458.9222889716315,347.75388468467804L459.7262266422808,353.08995054368785L460.5301643129301,351.05291860423455L461.3341019835794,357.7492201900481L462.13803965422875,359.09820607459943L462.94197732487805,357.1581351616914L463.74591499552736,358.9876496729706L465.35379033682597,357.24777889514513L467.76560334877394,359.4941366957625L468.56954101942324,358.1342076991038L469.3734786900725,357.7707516294002L470.9813540313711,354.0183750047419L474.1971047139684,354.52381836268484L475.804980055267,360.02706944095667L477.41285539656553,363.34745833997886L480.6286060791628,365.3343102560736L481.4325437498121,362.0293733780049L482.2364814204614,361.4991136612785L483.8443567617601,358.4749235057371L485.4522321030587,360.00462119438964L487.0601074443573,363.3273848508225L488.66798278565597,365.32168918687216L489.47192045630527,361.560274320951L491.8837334682531,358.9003989996916L493.4916088095518,353.57778183602954L494.2955464802011,356.5913663079135L495.0994841508504,359.07664822823085L495.9034218214997,357.02776120530496L496.707359492149,352.9391501888657L497.5112971627983,352.87763470634144L499.119172504097,356.8847478785565L499.9231101747463,356.4378351899835L503.94279852799275,358.4899159687678L504.7467361986421,360.26161403615265L506.3546115399407,358.4623418006149L507.15854921059,354.47269593634536L507.96248688123933,354.71030737765636L510.3742998931873,360.1621478548593L511.98217523448585,363.4355862837474L513.5900505757845,360.77981362064384L515.1979259170831,361.0781436848924L516.8058012583817,361.1104497604369L518.4136765996803,364.00285684343453L519.2176142703296,365.7282621355644L520.0215519409791,366.76797155035985L522.4333649529269,367.390656670289L525.6491156355241,364.897516525745L526.4530533061735,366.27032779680343L528.0609286474721,367.09863524193656L528.8648663181214,362.19925358872024L530.4727416594201,362.31328918809675L533.6884923420172,364.7267962080385L537.7081806952638,358.4197071097159L543.335744389809,360.1012457881374L544.1396820604582,360.5147116387577L545.7475574017568,363.6350998980156L546.5514950724062,362.6436301270418L547.3554327430555,359.89517653185703L548.1593704137048,360.26467524235454L548.9633080843541,360.60582571000066L549.7672457550034,363.6807624200789L551.3751210963021,360.07833758042176L552.1790587669514,363.38451564510524L555.3948094495486,357.8962241351471L556.1987471201978,353.46167978247195L557.8066224614965,359.4064986990775L559.4144978027952,360.7764229929828L561.826310814743,361.63946638484623L563.4341861560417,351.3302700983871L564.238123826691,352.38292824967294L565.0420614973402,355.8931700811845L567.4538745092882,353.19054142169153L568.2578121799376,351.731932633004L569.0617498505868,353.16428542052125L569.8656875212362,352.6064557548695L570.6696251918854,356.0246503563192L572.277500533184,358.6663166872804L573.0814382038334,359.6640653404168L573.8853758744827,360.94855603160045L575.4932512157812,363.8933753179731L576.2971888864306,362.7932898310633L577.1011265570799,356.3978446333011L577.9050642277292,352.5598260257127L578.7090018983786,355.98608849818095L579.5129395690278,355.4565640142478L581.1208149103264,360.61038917507324L581.9247525809758,356.3270976981611L584.3365655929238,355.3930053120141L587.5523162755209,360.5727341312669L589.9641292874688,360.81184924066474L590.7680669581182,358.3326556308804L591.5720046287674,360.18290327340765L593.179879970066,360.57188015143436L593.9838176407154,360.8018851797336L594.7877553113648,363.81336032047415L595.591692982014,363.46028795421324L597.1995683233126,365.4154389203056L598.0035059939619,366.58553441723444L598.8074436646112,367.28615656905146L602.0231943472085,362.689621216707L605.2389450298058,364.94581417148765L606.042882700455,361.4852420397985L607.6507580417536,364.23305190036433L608.4546957124029,358.2816835412481L609.2586333830524,357.6869166314427L610.0625710537016,359.08952883108003L610.8665087243509,357.17263058102776L611.6704463950002,359.38239954386785L614.0822594069481,360.0981499822397L614.8861970775974,358.42519443976016L619.7098231014933,359.52295780387374L621.3176984427919,357.3012129004609L622.1216361134412,353.1033090501417L622.9255737840905,356.33043034843917L623.7295114547398,356.0055803326698L625.3373867960385,355.19305472299857L627.7491998079864,355.406029325181L628.5531374786357,360.5833543183384L630.9649504905836,360.8195468373872L631.7688881612329,363.7947889017576L632.5728258318823,363.3716814254271L634.1807011731809,362.5238084105346L635.7885765144795,362.6934813064355L638.2003895264274,359.2339180807747L639.0043271970767,357.85480226180806L640.6122025383753,359.34090877055047L643.0240155503233,360.0702492616892L643.8279532209725,356.1863403472656L644.6318908916219,358.8323309334257L646.2397662329205,362.6376426660589L647.0437039035698,359.2833945570088L647.8476415742191,360.0641273404646L649.4555169155177,358.3537530114321L650.259454586167,362.3468891160688L651.0633922568163,356.1574206143263L655.0830806100629,356.9024903048344L658.2988312926601,358.608437627574L659.1027689633095,359.95458490110803L660.7106443046081,363.3054534838704L662.3185196459067,365.31810344243286L663.9263949872053,360.9791698453113L664.7303326578545,363.9286101816207L665.5342703285039,359.9569157494513L666.3382079991532,358.2914729466105L667.1421456698025,357.2993852176253L667.9460833404519,356.6410965575603L669.5539586817505,358.4517993294564L671.1618340230491,351.88725382416703L672.7697093643477,355.5996380908163L675.1815223762956,357.830126049527L676.7893977175942,362.03603736682805L677.5933353882435,364.5633764474551L678.3972730588929,357.46364742939363L681.6130237414901,358.9362488097741L683.2208990827887,362.7008075845903L684.0248367534381,362.80397855741325L685.6327120947366,362.1495601171735L688.0445251066845,364.6237417185932L689.6524004479832,366.11379856626723L690.4563381186325,367.0104356084502L691.2602757892818,361.80400623283646L693.6720888012297,358.68051382266526L696.0839018131777,354.4565335479591L696.887839483827,357.14669107228065L698.4957148251256,358.7607344447125L700.1035901664242,359.99237743840393L701.7114655077228,363.3385702172256L705.7311538609694,360.2193389230624L707.339029202268,356.21909252931414L708.1429668729172,361.0754106679509L708.9469045435666,361.11415430610015L709.7508422142159,361.1400869566252L712.1626552261638,356.1741834600642L716.9862812500597,361.0465283407354L718.5941565913582,358.21753026860307L719.3980942620076,362.27103235394L720.202031932657,361.88275281036715L721.0059696033062,364.46065157268384L721.8099072739556,357.7653571018182L725.0256579565528,359.84658108310344L726.6335332978514,357.5031315961968L727.4374709685007,361.8382689764744L729.8492839804486,359.25012167626716L730.653221651098,357.13993415898506L731.4571593217472,361.626444256872L732.2610969923966,361.45215698081626L733.0650346630458,362.00883621136853L734.6729100043444,361.6692494442028L735.4768476749938,362.08384777663264L736.2807853456432,362.3939179541745L737.0847230162924,364.7384759335148L738.692598357591,361.69465842222803L741.104411369539,361.48734552454437L742.7122867108376,364.21562236776066L743.5162243814868,361.2727478210368L745.1240997227854,364.098424431158L745.9280373934348,360.1627582623828L748.3398504053828,360.56310866103576L749.143788076032,361.49054560000275L750.7516634173306,364.22787781485414L751.55560108798,365.8794905339285L757.1831647825252,364.47659878309554L757.9871024531744,366.0293215780445L758.7910401238238,366.9595127146828L759.594977794473,362.3475924465263L760.3989154651224,359.80821453492274L761.2028531357716,358.7412484781255L762.006790806421,362.5887234773899L763.6146661477196,364.86081551435393L764.4186038183689,360.51009707638724L765.2225414890182,357.9074221735825L767.6343545009662,356.3444418086041L768.4382921716154,361.1483036254831L769.2422298422648,361.16079946790984L770.046167512914,358.29747418159167L771.6540428542127,356.57834365382575L776.4776688781085,356.13854524333397L777.2816065487578,361.01935053085754L778.0855442194072,358.2124784681389L779.6934195607058,362.26873003241667L782.909170243303,364.67207529929857L785.320983255251,363.86811133368326L787.7327962671989,359.9070595563073L790.9485469497961,361.10727272561144L793.360359961744,361.13487680288046L794.1642976323934,361.1529626839682L794.9682353030427,361.16169241461046L796.5761106443413,359.01664335131494L797.3800483149905,359.87565150310894L798.1839859856399,358.22636063988733L800.5957989975877,357.2434391154325L801.3997366682372,357.357906538138L803.0076120095358,359.47881346261977L804.6154873508344,354.411215328781L805.4194250214837,359.98539024291284L807.0273003627823,363.33207379163275L808.6351757040809,362.7983431196152L809.4391133747301,365.014221790133L811.0469887160287,360.603768967593L812.6548640573276,363.70193666268386L813.4588017279768,365.5311997910457L814.2627393986261,363.79006726103836L815.0666770692754,360.97326011934723L817.4784900812233,363.9268615875788L818.2824277518725,365.6921832538808L819.0863654225219,363.9739431691586L821.4981784344698,355.8514998155202L822.3021161051191,357.98370242062265L828.7336174703138,359.26270389392323L831.1454304822616,360.35027847204407L831.949368152911,363.55463870228533L833.5572434942096,365.4774824659394L835.1651188355081,361.70517493465667L835.9690565061575,361.4956797590698L838.3808695181056,361.3673370998109L839.1848071887548,361.33884525904944L840.7926825300534,364.1427435729945L841.5966202007027,365.82184178121116L842.400557871352,363.9716153660449L843.2044955420013,360.73116182413094L845.6163085539491,361.067535562451L852.0478099191437,363.98453073486496L852.851747589793,357.120705135702L853.6556852604423,359.37996285636524L855.2635606017409,362.9729398572397L856.8714359430395,356.8104539622235L857.6753736136887,356.5082688360998L858.4793112843381,361.24858794295966L860.0871866256368,361.66106023713115L861.6950619669354,362.17935489394375L862.4989996375847,359.16689279893933L863.302937308234,359.88314400767433L865.7147503201819,360.8279582668007L866.5186879908313,363.83758638082776L867.3226256614805,362.7710108861541L871.3423140147272,365.00465492466884L872.9501893560257,364.1876297440238L873.7541270266751,365.8526473080412L875.3620023679737,363.9972558771616L876.1659400386229,360.453930239716L877.7738153799215,360.74493143792415L882.5974414038175,358.706942972087L883.4013790744668,354.651255631615L885.0092544157653,357.2631512855349L886.6171297570639,361.70090034725234L889.8328804396612,364.36454704188066L891.4407557809599,360.42207360534155L893.0486311222585,360.74334297337737L894.6565064635571,360.91762602890833L896.2643818048557,363.89270632311246L897.8722571461543,359.93717965513963L898.6761948168036,357.62741771703753L899.4801324874528,353.61663980192543L900.2840701581022,354.4780864464604L901.0880078287516,360.02907556377113L904.3037585113489,363.35804476993445L905.9116338526474,362.491988811245L906.7155715232967,361.9655455068715L911.5391975471924,361.6495895742112L913.1470728884913,364.33232700949003L914.7549482297899,365.9341849694991L915.5588859004391,364.743199198486L916.3628235710884,361.0947606540434L921.1864495949842,361.7338961858739L923.5982626069323,358.7658778146292L925.2061379482309,359.7322109914452L927.6179509601787,360.32221255531624L930.0297639721266,360.6669083278567L930.833701642776,363.74330173444883L932.4415769840745,360.3623555551264L933.2455146547239,360.68990058800534L934.0494523253733,360.88685810439415L934.8533899960225,363.8743695202801L936.4612653373212,365.6685319163033L937.2652030079705,362.2124238776474L938.873078349269,361.822234449513L939.6770160199184,355.82599397693446L940.4809536905676,358.62421019106773L942.8927667025155,359.68546234707236L943.696704373165,360.28375293055956L945.3045797144636,357.7718238647649L951.736081079658,362.00719352174707L952.5400187503072,360.07675166767086L953.3439564209566,363.3911861724551L954.147894091606,359.6347399183115L956.5597071035539,363.12566125233343L957.3636447742032,365.17100880778423L958.1675824448525,361.38051863231686L960.5793954568004,361.298849617148L961.3833331274496,361.24872488552137L962.187270798099,364.0827439248205L964.5990838100471,362.92129638256205L974.2463358578386,365.09519395192603L976.6581488697866,363.53110690478337L978.2660242110852,362.5920108869412L979.0699618817346,359.68908550416273L980.6778372230332,360.2870718075485L981.4817748936824,360.6453175718018L983.8935879056303,363.73221677108427L986.3054009175784,361.2508301782139L987.1093385882276,361.5225580910248L987.913276258877,359.2151706440753L988.7172139295262,362.87286866864235L989.5211516001756,360.04452537343786L990.3250892708248,357.65102272859804L991.1290269414742,359.0640106208823L991.9329646121234,362.7834129843351L993.540839953422,365.01523284567077L995.1487152947207,366.35388300200543L995.9526529653701,364.8283869297427L997.5605283066686,363.3712194383752L999.1684036479672,362.8710701803049L1000.7762789892658,362.7182495923783L1001.5802166599152,364.97523770235597L1002.3841543305645,363.4586548254175L1003.1880920012137,365.42002936124646L1003.9920296718631,363.9713734980444L1004.7959673425123,362.8542626386187L1008.0117180251098,362.1851182421437L1012.0314063783562,359.6285012390916L1012.8353440490055,363.1222831789138L1014.4432193903041,365.21852020062875L1015.2471570609533,364.32293868925007L1018.4629077435508,363.0677483321254L1019.2668454142,362.314229493106L1020.0707830848493,358.99103517457127L1021.6786584261479,357.39951172486894L1024.0904714380958,359.14938471349643L1026.5022844500436,362.8315596236852L1028.1101597913425,365.04271726009614L1029.718035132641,355.612804425577L1030.5219728032903,357.84517311780616L1032.129848144589,359.17839259402757L1032.9337858152383,360.5173003839644L1035.345598827186,363.6544108813834L1036.1495364978355,365.5363201896005L1036.9534741684847,363.7950997491201L1038.5613495097834,365.62222720294363L1039.3652871804327,360.97560877496534L1040.1692248510822,363.9294033622685L1041.7771001923807,363.55238940530154L1042.58103786303,363.26591014476L1043.3849755336792,362.43357693254006L1044.1889132043286,361.9332829198987L1044.9928508749779,364.50524498098304L1045.7967885456271,361.02309437922685L1049.8164768988738,363.9593308269965L1050.620414569523,362.85004870760247L1052.2282899108216,357.0689694358194L1055.4440405934188,358.8757173101028L1056.2479782640683,358.1416913910038L1057.8558536053667,362.2199389288854L1061.0716042879642,364.64918917209894L1062.6794796292627,363.84686582098067L1064.2873549705612,363.4914337495933L1065.89523031186,365.4388138928524L1066.6991679825092,366.6074787920146L1067.5031056531584,361.5669546702923L1068.3070433238076,359.1923941331353L1069.9149186651066,362.8562744952573L1072.3267316770543,362.18740926910453L1073.1306693477036,364.65716372169715L1074.7385446890023,360.39717717208003L1075.5424823596516,358.47676437616474L1076.3464200303008,359.55964784378057L1077.9542953715995,360.2135526288717L1081.1700460541967,363.46901741567285L1082.7779213954955,360.9701426040582L1083.5818590661447,363.9268675532745L1085.1897344074432,365.7008118832539L1085.9936720780927,361.0644037423733L1088.4054850900404,363.9761701408339L1089.2094227606897,360.5360650775086L1093.2291111139364,363.6617940225964L1094.0330487845858,362.6690257732878L1094.836986455235,364.9459347470673L1095.6409241258843,364.11237242847403L1097.2487994671828,362.9333597020217L1098.8566748084816,362.2835540837961L1099.6606124791308,359.0011161126817L1100.46455014978,359.8732865829586L1101.2684878204295,361.09999784716007L1102.0724254910788,361.1320632883064L1102.8763631617282,364.0228420571475L1105.288176173676,365.7579426358815L1107.699989185624,361.0552655075938L1109.3078645269225,361.75542561518836L1110.9157398682212,364.39514886050983L1111.7196775388707,361.5139224951051L1112.52361520952,364.2514638695873L1113.3275528801692,363.02886817237305L1114.1314905508184,365.16240007390496L1117.3472412334156,366.440955727307L1120.5629919160128,367.20869815012685L1122.1708672573116,367.6697787754871L1122.9748049279608,365.1708961792795L1125.3866179399088,363.57573794438935L1126.190555610558,365.48993492746087L1126.9944932812075,364.41806522612535L1129.4063062931552,363.1237935892876L1131.8181193051032,365.2191397315534L1132.6220569757527,363.60490579206356L1133.425994646402,365.5069879745518L1135.0338699877004,366.64732987498024L1135.83780765835,362.48859526051956L1136.6417453289991,362.64814963662616L1139.053558340947,364.9325962365405L1140.6614336822456,363.4229817034098L1141.4653713528949,365.39803559840976L1142.269309023544,366.58313457989146L1143.0732466941936,364.4231965058732L1143.8771843648428,365.9977114184518L1144.6811220354923,366.94247688208236L1146.2889973767908,365.3561344729829L1147.09293504744,361.34456392849614L1149.504748059388,361.5889482551421L1153.5244364126345,364.2981538604794L1163.1716884604261,365.92373038738003L1163.9756261310756,364.6407143562593L1164.779563801725,363.25906805115596L1165.5835014723743,363.09048170106155L1168.7992521549716,365.19640181195876L1171.2110651669193,361.3968958075214L1172.0150028375685,364.18340413304014L1173.6228781788673,362.9840306067619L1174.4268158495165,360.4075011086334L1175.230753520166,363.5902484931963L1176.0346911908152,354.0441363793822L1177.642566532114,354.7471981556993L1179.2504418734125,360.1925410917654L1180.0543795440617,360.5895633224856L1180.8583172147112,358.6920947570834L1182.4661925560097,362.56049606623304L1183.270130226659,362.1470429136469L1184.0740678973082,364.6323215052674L1185.6819432386071,363.86892055940615L1187.2898185799056,360.8148136468943L1192.1134446038013,363.8324053406152L1193.7213199451,362.77092265789L1197.7410082983465,362.1284350874753L1198.544945968996,361.7440387924901L1201.7606966515932,364.39006084502284L1205.7803850048397,360.23621750599546L1206.5843226754891,359.0583222000573L1209.8000733580861,362.776041754497L1213.0158240406834,365.01108638582735L1215.4276370526313,354.8746479857159L1217.8394500645793,360.2645117296612L1218.6433877352288,363.5029286325605L1219.447325405878,365.4456107274525L1221.8591384178258,361.48692236666983L1222.6630760884752,358.9726369675173L1225.074889100423,362.72836299914627L1226.6827644417217,362.1027239047003L1227.4867021123712,358.8631583154508L1228.2906397830204,362.6603194469384L1233.9182034775654,359.1976428384232L1234.7221411482149,362.8632938397714L1235.526078818864,365.06310568682113L1236.3300164895134,366.3826241336044L1237.937891830812,367.1746793700859L1238.7418295014613,367.6498716924042L1239.5457671721108,367.93533420028666L1240.34970484276,365.233427852589L1241.1536425134093,364.21688637088664L1241.9575801840585,365.87565070755846L1242.7615178547078,362.09937025495503L1243.5654555253573,361.7338611773361L1244.3693931960065,364.3844272354511L1246.7812062079543,365.97355800953386L1248.3890815492532,366.9290730947952L1252.4087699024997,364.6312659222097L1253.212707573149,366.12415628378176L1254.0166452437982,367.0194853276299L1255.624520585097,364.6855845600997L1261.252084279642,363.28559457380277L1262.8599596209406,362.44498416856607L1266.879647974187,364.81238780528497L1267.6835856448365,363.3748411148368L1270.8993363274337,365.37017217476864L1272.5072116687325,363.71817973114986L1273.3111493393817,365.57384094962845L1274.9190246806802,366.6855350601092L1275.7229623513294,367.3546559769683L1277.3308376926282,367.7560666535299L1278.1347753632774,365.8381812097333L1282.9584013871734,363.97636617764795L1283.7623390578226,362.858019963744L1284.5662767284718,357.0818464894149L1288.5859650817185,361.59514488823675L1289.3899027523678,364.3022837228286L1296.6253417882115,365.92698938980783L1297.429279458861,361.28539371070224L1299.8410924708087,364.11505776142474L1300.645030141458,365.81435400761706L1301.4489678121074,364.57386231988164L1303.0568431534061,366.0895000757099L1304.6647184947046,364.12692765834555L1306.2725938360034,365.82192738290286L1308.684406847951,361.77912496858727L1309.4883445186006,359.4454028414269L1311.096219859899,357.2942627522887L1311.9001575305485,361.72217728561964L1313.508032871847,364.3791393159201L1315.1159082131458,365.9730860673191L1315.919845883795,366.92813731812214L1317.5277212250935,361.96180535633624L1318.331658895743,364.5126395695027L1321.5474095783402,363.1901607433308L1322.3513472489897,362.3885298105735L1323.9592225902882,359.03352936655403L1324.7631602609374,362.76530587050587L1325.5670979315867,365.00441933445506L1326.3710356022361,366.34807878653857L1327.9789109435346,367.15414426547017L1328.7828486141839,367.6383041478516L1329.5867862848331,367.9271665335886L1330.3907239554826,362.35882868582996L1333.6064746380798,361.8887760226791L1335.2143499793785,362.32464679442495L1336.0182876500278,361.8690045383L1336.822225320677,358.9019519361663L1338.4301006619755,359.92648945564906L1340.0379760032743,363.30145358907134L1341.6458513445727,360.9425622108482L1343.2537266858717,363.91094285091646L1344.057664356521,362.8207911972821L1344.8616020271702,356.97750788853466L1346.4694773684687,361.53195790019123L1347.2734150391182,361.4927071726355L1348.0773527097674,361.3698810772826L1348.8812903804167,361.85702810731595L1349.685228051066,364.45997446627865L1350.4891657217152,366.02160266940297L1352.0970410630139,364.0866142961704L1352.9009787336631,365.796392831652L1355.312791745611,363.9522783894897L1356.1167294162606,365.71677629835665L1357.724604757559,363.9042067307624L1358.5285424282083,362.9947633543019L1360.9403554401563,360.1009892386638L1361.7442931108055,363.40594828202677L1362.5482307814548,365.38911384426103L1363.3521684521043,366.57855435837297L1364.1561061227537,364.4207079946384L1365.7639814640522,363.27947268744674L1368.9797321466494,365.3132880262809L1370.587607487948,366.53390525220874L1371.3915451585972,367.2657805516682L1372.1954828292467,364.83080849734205L1374.6072958411944,364.0429072461244L1375.4112335118439,357.8638333706948L1377.0191088531426,359.1924328515868L1380.2348595357398,359.9879346315957L1381.038797206389,363.3382859529009L1381.8427348770383,362.47713809456945L1382.6466725476876,361.9568041468338L1384.2545478889863,364.5182022863726L1387.4702985715835,366.05657351004504L1388.2742362422327,366.978847706098L1389.8821115835315,365.3552942212385L1390.6860492541807,366.5585035692984L1391.48998692483,367.2796742240781L1392.2939245954794,362.32243985877795L1393.901799936778,362.46662382370954L1396.313612948726,362.5112778034784L1397.1175506193754,361.9810700854058L1397.9214882900246,364.5341307922729L1398.7254259606739,363.6197248022462L1399.5293636313231,365.51716484033324L1401.941176643271,366.6559612571926L1402.7451143139203,364.4675630762359L1405.9608649965176,366.024703597778L1406.764802667167,364.25692569986666L1408.3726780084655,363.02879756484657L1409.1766156791148,362.2916526387434L1409.9805533497643,364.72032234294363L1413.1963040323615,361.0913881208013L1415.6081170443092,364.0006958097634L1417.215992385608,365.7452414145624L1419.627805397556,363.9915903275878L1420.4317430682052,362.86888787213076L1421.2356807388544,365.0670963573528L1422.0396184095039,366.3859651954507L1422.8435560801531,364.3060548997555L1424.4514314214516,357.784259884102L1425.2553690921009,362.0161491145478L1426.0593067627503,364.5548034076092L1428.4711197746983,357.52776814170164L1429.2750574453476,359.0339041492532L1430.8829327866463,362.76608039863896L1431.6868704572955,362.5754546986451L1432.4908081279448,364.89120152319407L1434.9026211398927,363.4090167963292L1436.5104964811912,365.3911093712919L1437.3144341518405,358.6611501886203L1438.11837182249,362.542450541901L1438.9223094931394,362.0436359532889L1444.5498731876844,361.69730814458313L1445.3538108583336,364.363969080269L1447.7656238702816,363.6205247501189L1451.7853122235283,362.64668142900075L1455.0010629061255,359.50572194815436L1456.608938247424,360.17585634570275L1458.2168135887225,360.5798223249565L1459.8246889300215,357.9951107826353L1460.6286266006707,362.14272348713735L1461.43256427132,361.7602371284976L1462.2365019419692,364.4018488842334L1465.4522526245664,365.9861054177779L1466.2561902952157,364.5035698195133L1467.0601279658651,363.1760138958566L1468.6680033071636,365.2503359256154L1469.4719409778131,357.88470861551525L1470.2758786484624,356.8381198443289L1473.4916293310596,356.7682334528629L1475.099504672358,358.5350437197722L1476.7073800136568,362.4660556846019L1478.3152553549553,357.4344092800252L1479.1191930256045,361.8056693772832L1480.7270683669035,361.93114945168975L1483.9428190495007,364.50256880058686L1485.5506943907992,360.808866038996L1486.3546320614485,358.4077438096915L1488.7664450733964,359.8222112722924L1491.1782580853444,360.89463629768994L1494.3940087679416,358.13869082163353L1496.00188410924,362.2284256491926L1496.8058217798896,361.9069191240727L1499.2176347918373,364.4889224755062L1502.4333854744348,360.66729467458913L1503.237323145084,363.74573205263863L1504.0412608157333,362.72190237894614L1504.8451984863827,362.1073293095697L1507.2570114983305,360.0340250623988L1508.0609491689797,360.7242200917463L1508.8648868396292,363.7803901523262L1510.4727621809277,362.757563663299L1511.276699851577,364.9998836339466L1512.0806375222264,366.345884619351L1513.6885128635251,364.2819412726313L1514.4924505341744,357.4876560488835L1516.9042635461224,361.82990100296155L1517.7082012167716,364.44266856239824L1519.31607655807,366.00664422912035L1520.9239518993688,366.9494295015229L1521.727889570018,367.5148441340573L1522.5318272406676,367.8538620809604L1528.1593909352125,362.3161877438896L1528.9633286058618,364.7343853404878L1529.7672662765112,364.0116451698962L1530.5712039471605,365.75202851908637L1535.3948299710564,366.79698587968295L1536.1987676417057,362.1627688548979L1537.002705312355,364.6434497552431L1537.8066429830044,360.9833783416216L1538.6105806536536,363.9344445528304L1540.2184559949521,360.2776517987481L1542.6302690069,357.78804966457824L1545.042082018848,357.10674689357734L1548.2578327014453,361.6096826583348L1549.0617703720945,364.3115095348966L1549.8657080427438,363.0614389631451L1550.6696457133933,362.4624452935465L1551.4735833840425,361.96869201635184L1553.081458725341,364.5266796633084L1553.8853963959905,366.0618350049414L1557.1011470785877,364.7839842919747L1559.5129600905357,363.8839024787041L1560.316897761185,362.80473754810356L1562.728710773133,356.4141890034562L1563.5326484437821,358.98779486010017L1564.3365861144316,357.0147082935931L1565.1405237850809,361.55420322222255L1565.94446145573,362.05791769296656L1567.5523367970288,361.7086033664091L1568.356274467678,364.3707868995566L1569.1602121383273,365.96839325475014L1569.9641498089766,361.18449309916775L1570.768087479626,361.18529889571585L1573.983838162223,364.05721756183965L1574.7877758328725,360.47224575646385L1575.591713503522,363.62924548250396L1578.0035265154697,365.5236216342022L1579.6114018567685,363.7873960808973L1580.4153395274177,365.6184319540155L1581.219277198067,363.84540709949175L1582.8271525393654,363.42490807667025L1583.631090210015,365.4003985907281L1584.4350278806642,358.1924668175225L1586.042903221963,359.71935771884336L1586.8468408926121,360.3082143176552L1589.2586539045599,357.8030256317614" style="fill: none;" fill="none"></path></g></g></g></g><g opacity="0.2"><g><g><g><path stroke="rgb(255, 112, 67)" stroke-width="2px" d="M32.031385856848395,19.735190304382286L32.83532352749771,15.15562036909165L36.05107421009494,44.922355643944286L36.85501188074425,49.444092820191884L38.46288722204287,62.26339893860569L39.26682489269218,56.715858313048386L40.07076256334149,68.99272058790376L41.678637904640105,73.47301456353875L42.48257557528942,65.88929392182013L43.28651324593872,81.87748867244204L44.09045091658803,75.27199122009625L47.30620159918527,89.65680100485673L54.54164063502905,126.53195972694584L55.34557830567835,147.92791455192992L56.95345364697697,139.20587770662513L59.365266658924895,159.98360202212217L60.16920432957421,165.03076774411568L61.77707967087283,170.93715787184158L63.38495501217144,200.3494599205491L64.18889268282075,189.2494449550759L65.79676802411937,205.99662547580206L67.40464336541798,217.29977710490522L68.2085810360673,190.69434938897788L70.62039404801523,235.05898277508587L71.42433171866453,223.9601591211285L72.22826938931385,235.9091820935768L73.03220705996316,214.04963862062502L73.83614473061246,145.37954278464332L76.24795774256039,217.55917014567336L77.05189541320969,247.3721138672021L78.65977075450832,238.93853084358284L80.26764609580694,235.42720633453587L81.07158376645624,266.55208487127635L81.87552143710555,278.1679557732948L82.67945910775487,212.47882820298034L85.09127211970278,289.7824668955022L85.8952097903521,248.99791714977118L86.69914746100142,281.5589518025143L87.50308513165072,238.9264733270283L89.11096047294933,293.0813589010606L91.52277348489726,290.9284905235925L95.54246183814381,292.92573631339434L96.34639950879311,281.04977443052775L97.15033717944243,286.30652072844157L97.95427485009174,304.9230194356849L98.75821252074104,298.86821475663623L99.56215019139036,326.9241635190922L103.58183854463691,310.2647880721378L110.01333990983137,282.58901509300193L112.42515292177929,315.3816876348834L113.2290905924286,311.1764662849173L118.85665428697376,322.5013292655609L121.26846729892169,326.9968846637211L122.8763426402203,330.26140011197697L123.68028031086962,319.46895711132896L124.48421798151894,346.8254601083935L127.69996866411617,330.06474045262394L128.50390633476547,341.9560780757875L129.30784400541478,340.06815617610334L131.71965701736272,336.5258756178183L132.52359468801203,344.3731438487986L134.93540769995994,346.75459662755503L138.15115838255718,330.84800972413245L139.7590337238558,327.56453256758243L141.3669090651544,366.53919959091536L142.17084673580374,345.8590312038639L142.97478440645304,349.8773956434024L143.77872207710234,327.46158038905713L146.9944727596996,347.0526320835285L148.6023481009982,345.95417216938176L151.01416111294614,344.5592095599114L151.81809878359542,343.820870181053L152.62203645424475,353.16723247809523L154.22991179554336,328.05780171912477L155.0338494661927,354.55605953242264L155.83778713684197,301.2914807645822L158.2496001487899,332.19881859845543L159.85747549008852,321.8780958493797L160.66141316073782,339.59676684439665L162.26928850203646,339.215547159319L163.07322617268576,347.59412227620174L165.4850391846337,325.52304880848556L169.50472753788023,346.17547031690384L170.30866520852953,353.4554907562238L171.11260287917887,355.1241571864648L172.72047822047747,349.2385217510318L173.52441589112678,354.50601542366894L175.1322912324254,362.29768686097026L176.740166573724,354.9495683779607L177.54410424437333,343.8926918253203L178.34804191502263,342.4332946054897L179.15197958567194,355.1192761184484L180.75985492697055,338.5301339004068L181.56379259761988,336.7108688477306L187.19135629216504,343.46772453402104L190.40710697476229,353.1882368644684L193.6228576573595,353.0250677996871L194.4267953280088,348.0962435341467L195.2307329986581,354.85207336885406L198.44648368125536,331.83652452132304L200.8582966932033,340.15550397878826L203.2701097051512,342.19078750295034L204.07404737580052,346.36982256228544L206.48586038774846,348.37832414005857L207.28979805839774,343.6473824331924L208.89767339969637,343.11535354031054L209.70161107034568,355.48540736183963L210.50554874099498,350.47742556028595L212.11342408229362,354.0308475887705L212.9173617529429,349.8334043598253L214.52523709424153,345.78660187038906L215.32917476489084,362.0385450184637L216.13311243554017,361.2046269573563L218.5449254474881,311.5127711191568L220.956738459436,340.4131311108195L224.97642681268255,355.3850604251647L226.58430215398118,346.11280612782423L228.1921774952798,348.6381067637593L228.99611516592907,356.1829172460178L233.01580351917565,354.5484167877104L235.4276165311236,346.1647575383483L236.23155420177287,354.84856712246074L237.03549187242223,362.3082202659169L237.8394295430715,355.2718662768016L239.4473048843701,367.7886002817162L242.66305556696736,347.8431048788369L244.27093090826597,340.21430543052855L245.8788062495646,333.9877713914501L247.48668159086324,368.11394598072184L251.50636994410976,342.5623774199414L253.1142452854084,347.9737114288512L256.3299959680056,365.13606213263074L260.34968432125214,361.00676244885653L261.95755966255075,350.10154120594916L262.76149733320005,334.8334822332196L265.173310345148,332.335687054834L266.78118568644663,368.04695889236774L267.58512335709594,342.7913589250683L268.38906102774524,354.0183643889344L269.99693636904385,350.30789531318067L270.80087403969316,361.07766052586277L271.6048117103425,354.78267947305477L274.82056239293973,361.140805300838L275.62450006358904,314.8838999229955L277.23237540488765,339.31265108131186L279.64418841683556,364.74286014005884L282.85993909943284,337.8183764118369L283.6638767700821,334.2538851138507L284.46781444073144,353.8623356723423L285.27175211138075,351.16190321848745L286.87962745267936,332.3821873126642L289.29144046462727,355.99266239024377L290.0953781352766,355.01486638833364L290.8993158059259,353.8492342540302L293.31112881787385,355.49340358913554L294.1150664885231,367.30621975691366L295.72294182982176,351.30982139001196L300.54656785371765,360.8312673711753L302.1544431950162,339.26678257958855L304.56625620696417,344.44743235024515L305.3701938776135,353.9946133676774L306.9780692189121,354.0815038992754L307.7820068895614,355.6083531169671L311.8016952428079,339.47893530537266L312.6056329134572,361.0162072026547L314.2135082547559,354.33066549947415L315.82138359605443,323.10449991280444L316.6253212667038,355.70100315840637L317.4292589373531,368.10543050537274L319.841071949301,357.3614394611738L320.6450096199503,361.12021080384363L323.0568226318982,367.8611515008744L323.8607603025476,348.0887196197498L325.4686356438462,362.84745418677977L326.2725733144955,361.09374473550815L327.8804486557941,359.8982260248048L331.09619933839133,368.09690908380736L331.9001370090407,335.49926893574417L332.70407467969,349.57636235428356L334.3119500209886,368.2293066670852L335.1158876916379,362.35023430329755L337.5277007035858,361.07584121869303L338.3316383742351,336.30408409886036L339.13557604488443,361.0556618757118L339.9395137155338,355.6516103601152L341.54738905683234,361.36728234425544L342.3513267274817,360.5570927416869L343.155264398131,334.65648222224087L343.9592020687803,343.49776453690407L351.19464110462405,348.81362064370563L351.99857877527336,344.74780680799535L353.606454116572,360.7483937554903L356.01826712851994,360.9735471194457L361.64583082306507,361.0693732395033L362.4497684937144,355.53565152669387L365.6655191763116,361.22169339732983L366.46945684696095,368.2929660541801L367.27339451761026,361.0328080985447L368.88126985890887,338.9696676825137L370.4891452002075,368.2817776076964L373.7048958828047,361.10083770198935L380.9403349186485,361.61595809392435L381.74427258929785,342.3883015372288L382.54821025994715,368.26440670029405L383.3521479305964,362.78710643675885L384.96002327189507,368.2646538208144L385.7639609425444,361.12975107314844L388.1757739544923,368.3040307700081L390.5875869664402,360.0670101980314L396.2151506609854,361.7985754696203L397.0190883316347,361.04705946338953L397.823026002284,361.9148185932898L398.62696367293324,361.1010520478113L400.23483901423197,362.9430731058762L401.0387766848812,354.9521390236433L401.8427143555305,362.6502530221923L403.4505896968291,348.2553001675083L404.2545273674785,348.14945394434096L405.0584650381278,346.57589538763125L406.6663403794264,356.70916105797784L408.274215720725,353.95884845112084L409.07815339137426,346.8018519843511L412.29390407397153,360.9741901569117L417.9214677685167,343.5174948817951L420.3332807804647,343.0193777542229L421.137218451114,368.30440341327505L422.74509379241255,348.4142590290915L424.35296913371116,346.7498915487398L426.7647821456591,353.9337587085897L435.6080965228016,368.24374409209446L438.01990953474944,361.08478056760566L438.82384720539875,361.0662768824889L439.62778487604805,368.3245150592884L441.2356602173467,360.94490074045086L442.8435355586453,367.95650117153474L443.64747322929463,355.6323327737676L445.2553485705932,357.1776638659485L449.27503692383976,361.03801707806423L450.07897459448907,368.2050048334725L454.90260061838495,355.751864789646L456.5104759596835,341.6272189385221L457.3144136303329,339.595322830438L458.11835130098217,361.0941809480582L458.9222889716315,339.94221710037414L459.7262266422808,361.0940493322026L460.5301643129301,347.99737069505454L461.3341019835794,367.7936725687685L462.13803965422875,361.1216849014264L462.94197732487805,354.2480287923293L463.74591499552736,361.7319214398894L465.35379033682597,354.637972728407L467.76560334877394,362.8636733966885L468.56954101942324,356.09431420411573L469.3734786900725,357.2255675248448L470.9813540313711,348.3898100677545L474.1971047139684,355.2819833995992L475.804980055267,368.28194605836444L477.41285539656553,368.32804168851214L480.6286060791628,368.31458813021567L481.4325437498121,357.0719680609018L482.2364814204614,360.7037240861889L483.8443567617601,353.9386382724249L485.4522321030587,362.29916772736846L487.0601074443573,368.3115303354718L488.66798278565597,368.3131456909467L489.47192045630527,355.9181520220692L491.8837334682531,354.9105860178026L493.4916088095518,345.5938560905364L494.2955464802011,361.11174301573936L495.0994841508504,362.80457110870685L495.9034218214997,353.95443067091617L496.707359492149,346.80623366420684L497.5112971627983,352.78536148255495L499.119172504097,362.895417636879L499.9231101747463,355.767466157124L503.94279852799275,361.5680371369442L504.7467361986421,362.91916113723L506.3546115399407,355.7634334473083L507.15854921059,348.488227139941L507.96248688123933,355.06672453962284L510.3742998931873,368.33990857066374L511.98217523448585,368.3457439270796L513.5900505757845,356.7961546259885L515.1979259170831,361.52563878126523L516.8058012583817,361.15890887375366L518.4136765996803,368.34146746793095L519.2176142703296,368.31637007375923L520.0215519409791,368.32753567255304L522.4333649529269,368.3246843501827L525.6491156355241,361.157806308929L526.4530533061735,368.3295447033911L528.0609286474721,368.34109640963624L528.8648663181214,354.85018110889575L530.4727416594201,362.48434258716145L533.6884923420172,368.3470567379511L537.7081806952638,348.959073462232L543.335744389809,362.62355380576975L544.1396820604582,361.13491041468814L545.7475574017568,368.3156822869024L546.5514950724062,361.15642547058104L547.3554327430555,355.77249613907986L548.1593704137048,360.81892330810086L548.9633080843541,361.11755141146983L549.7672457550034,368.29316748519625L551.3751210963021,354.674700320936L552.1790587669514,368.3437827421305L555.3948094495486,349.66378687021L556.1987471201978,346.80986325345907L557.8066224614965,368.32372707398576L559.4144978027952,362.8313094338408L561.826310814743,362.93403147264144L563.4341861560417,335.8664756686983L564.238123826691,353.96191547660175L565.0420614973402,361.15853282845194L567.4538745092882,349.136598432452L568.2578121799376,349.5440194499727L569.0617498505868,355.3128146017971L569.8656875212362,351.7697112563919L570.6696251918854,361.1519422584939L572.277500533184,362.6288161837221L573.0814382038334,361.16068832012144L573.8853758744827,362.875292068376L575.4932512157812,368.31060424753207L576.2971888864306,361.1431616006986L577.1011265570799,346.8046768366577L577.9050642277292,346.80279811433024L578.7090018983786,361.12548220688325L579.5129395690278,354.66227728834815L581.1208149103264,368.34112691631134L581.9247525809758,349.90216048279285L584.3365655929238,353.9918667327936L587.5523162755209,368.3423273601461L589.9641292874688,361.1705219047616L590.7680669581182,354.613865216204L591.5720046287674,362.95827473719845L593.179879970066,361.1553454684745L593.9838176407154,361.1468927221823L594.7877553113648,368.330573031585L595.591692982014,362.9306794048219L597.1995683233126,368.3481653694441L598.0035059939619,368.3406776626278L598.8074436646112,368.3370897967769L602.0231943472085,355.79481818819033L605.2389450298058,368.3301036036586L606.042882700455,356.2943838422648L607.6507580417536,368.35476669121306L608.4546957124029,349.3546310025739L609.2586333830524,356.79476626673454L610.0625710537016,361.19344713053596L610.8665087243509,354.2972832059494L611.6704463950002,362.697052988128L614.0822594069481,361.1717756397975L614.8861970775974,355.9157611260408L619.7098231014933,361.16960285004416L621.3176984427919,353.9685955453416L622.1216361134412,346.80645327466306L622.9255737840905,361.1711122958853L623.7295114547398,355.51830530901583L625.3373867960385,353.9742663084916L627.7491998079864,355.72549122845476L628.5531374786357,368.3493418080745L630.9649504905836,361.17383561596034L631.7688881612329,368.25765199831324L632.5728258318823,362.73702021093135L634.1807011731809,361.2519988881959L635.7885765144795,362.94799065028684L638.2003895264274,354.0445732422835L639.0043271970767,355.78612853335807L640.6122025383753,361.57006853366414L643.0240155503233,361.1642599983972L643.8279532209725,350.3604769756304L644.6318908916219,362.80131681266573L646.2397662329205,368.34561026500876L647.0437039035698,354.2520223934336L647.8476415742191,361.2352265156483L649.4555169155177,355.7881915178833L650.259454586167,368.33659327302377L651.0633922568163,346.87321786171265L655.0830806100629,358.02009484059636L658.2988312926601,361.1673586116834L659.1027689633095,361.97380581140914L660.7106443046081,368.33175635801393L662.3185196459067,368.3370783802766L663.9263949872053,354.4707694496288L664.7303326578545,368.3527706860848L665.5342703285039,353.99937410119725L666.3382079991532,355.7933087423492L667.1421456698025,355.8112536241476L667.9460833404519,355.6536635674627L669.5539586817505,361.16785348730053L671.1618340230491,342.04043556623304L672.7697093643477,361.16821449079015L675.1815223762956,361.1758579875931L676.7893977175942,368.3449043427796L677.5933353882435,368.35438506839563L678.3972730588929,346.8140539023015L681.6130237414901,361.1451508803447L683.2208990827887,368.3476457468145L684.0248367534381,362.9587350166477L685.6327120947366,361.1679324568139L688.0445251066845,368.3350141207227L689.6524004479832,368.3488838377784L690.4563381186325,368.3553911717247L691.2602757892818,353.99436216941587L693.6720888012297,353.99527520740844L696.0839018131777,348.12056313589994L696.887839483827,361.1819273587629L698.4957148251256,361.1817995033603L700.1035901664242,361.8398419289411L701.7114655077228,368.3578593854581L705.7311538609694,355.54049198181764L707.339029202268,350.21872293869177L708.1429668729172,368.359887875906L708.9469045435666,361.172269763324L709.7508422142159,361.1789859324128L712.1626552261638,348.7253282152228L716.9862812500597,368.35504566174217L718.5941565913582,353.97403316040453L719.3980942620076,368.3512854819453L720.202031932657,361.300333495008L721.0059696033062,368.3274997161589L721.8099072739556,347.72241539551976L725.0256579565528,362.9684170550313L726.6335332978514,353.98795736583685L727.4374709685007,368.34097504689083L729.8492839804486,355.3679007259563L730.653221651098,353.9746528830618L731.4571593217472,368.3562094037024L732.2610969923966,361.1907260667327L733.0650346630458,362.843855057197L734.6729100043444,361.1598692934543L735.4768476749938,362.7057452752774L736.2807853456432,362.8590232204874L737.0847230162924,368.25531290252513L738.692598357591,357.12893215529783L741.104411369539,361.1763761780188L742.7122867108376,368.30803763258507L743.5162243814868,356.858436000951L745.1240997227854,368.3369393463398L745.9280373934348,354.25925900922005L748.3398504053828,361.16363425901517L749.143788076032,362.88170100845326L750.7516634173306,368.3338761371312L751.55560108798,368.35690961254005L757.1831647825252,362.37226115684615L757.9871024531744,368.3584057704679L758.7910401238238,368.35479941964013L759.594977794473,355.4297120442916L760.3989154651224,355.9991476675173L761.2028531357716,357.1407993929297L762.006790806421,368.3599359762865L763.6146661477196,368.2689535698L764.4186038183689,353.9840194194372L765.2225414890182,354.0034098193754L767.6343545009662,353.9999712611364L768.4382921716154,368.3540963508017L769.2422298422648,361.17954323155L770.046167512914,354.00248625211435L771.6540428542127,353.9996478621769L776.4776688781085,355.47884762759634L777.2816065487578,368.34055846214284L778.0855442194072,354.0021703740609L779.6934195607058,368.3531073788333L782.909170243303,368.2770931996214L785.320983255251,362.6621653852604L787.7327962671989,353.9654818902433L790.9485469497961,362.9075924795677L793.360359961744,361.176282918784L794.1642976323934,361.1800915055999L794.9682353030427,361.1747870105737L796.5761106443413,355.79906975637164L797.3800483149905,361.1641637308L798.1839859856399,355.752424345055L800.5957989975877,355.7690568287503L801.3997366682372,357.5296076721962L803.0076120095358,362.66017384934247L804.6154873508344,346.80981812802287L805.4194250214837,368.34665261411055L807.0273003627823,368.35209911471264L808.6351757040809,361.9977471115888L809.4391133747301,368.33803979590965L811.0469887160287,353.98808973378306L812.6548640573276,368.34918820532016L813.4588017279768,368.2750944835885L814.2627393986261,361.1783684660274L815.0666770692754,356.74804940681054L817.4784900812233,368.35726378992615L818.2824277518725,368.3401657533337L819.0863654225219,361.3965830420753L821.4981784344698,343.66783478506267L822.3021161051191,361.18200632827626L828.7336174703138,361.1812061038742L831.1454304822616,361.9816403392253L831.949368152911,368.3611790476472L833.5572434942096,368.3617481114204L835.1651188355081,356.04671363773264L835.9690565061575,361.18143699568947L838.3808695181056,361.1748231109227L839.1848071887548,361.29610749790714L840.7926825300534,368.3485910439121L841.5966202007027,368.3404890935361L842.400557871352,361.1962757432956L843.2044955420013,355.87048151126L845.6163085539491,361.57209616993106L852.0478099191437,368.36002349348587L852.851747589793,346.8249667369576L853.6556852604423,362.76884943736L855.2635606017409,368.3624053585513L856.8714359430395,347.56672511969924L857.6753736136887,356.05499114691423L858.4793112843381,368.3590666032495L860.0871866256368,362.27976867838834L861.6950619669354,362.95679687916265L862.4989996375847,354.6481996564327L863.302937308234,360.9575208207768L865.7147503201819,362.2451796554903L866.5186879908313,368.3520285518683L867.3226256614805,361.1711476441436L871.3423140147272,368.35512098244095L872.9501893560257,362.96209197305626L873.7541270266751,368.35017365406725L875.3620023679737,361.2141687308423L876.1659400386229,355.13894178354747L877.7738153799215,361.18143323523645L882.5974414038175,355.64996027333126L883.4013790744668,348.5677246209071L885.0092544157653,361.18099476641464L886.6171297570639,368.3575239398286L889.8328804396612,368.3600170838231L891.4407557809599,354.50836345053295L893.0486311222585,361.22524702543114L894.6565064635571,361.1790506122047L896.2643818048557,368.35532676441875L897.8722571461543,354.0038896531804L898.6761948168036,354.1627748098844L899.4801324874528,347.6004729292573L900.2840701581022,355.7702564132628L901.0880078287516,368.35555923973726L904.3037585113489,368.35149857917935L905.9116338526474,361.19290487321086L906.7155715232967,361.17588055031115L911.5391975471924,361.1756556752207L913.1470728884913,368.35643316240834L914.7549482297899,368.33697190951267L915.5588859004391,362.9567205419664L916.3628235710884,355.62210283737943L921.1864495949842,362.6925994836197L923.5982626069323,354.31385025776217L925.2061379482309,361.18171075666913L927.6179509601787,361.20721490112277L930.0297639721266,361.1839519866674L930.833701642776,368.3578918443371L932.4415769840745,355.2909362861427L933.2455146547239,361.18121813732387L934.0494523253733,361.1822943789774L934.8533899960225,368.355636644109L936.4612653373212,368.3597755103382L937.2652030079705,357.0282618196634L938.873078349269,361.2369503073114L939.6770160199184,346.8316332680666L940.4809536905676,362.82153451226776L942.8927667025155,361.2773405810792L943.696704373165,361.1811888057903L945.3045797144636,354.003930266073L951.736081079658,368.36024800722026L952.5400187503072,357.1810888865566L953.3439564209566,368.3628379296314L954.147894091606,354.00007053709606L956.5597071035539,368.36204325336644L957.3636447742032,368.23903014096044L958.1675824448525,355.6947833691158L960.5793954568004,361.1763460943947L961.3833331274496,361.1735377880814L962.187270798099,368.33377248376917L964.5990838100471,361.17912506917446L974.2463358578386,368.356040305972L976.6581488697866,361.1849763340693L978.2660242110852,361.1833668601779L979.0699618817346,355.3346974299951L980.6778372230332,361.18405126262707L981.4817748936824,361.1826862181818L983.8935879056303,368.36256557000803L986.3054009175784,357.52875028890827L987.1093385882276,361.9301499602412L987.913276258877,355.754089473651L988.7172139295262,368.35941570549295L989.5211516001756,355.8020104306311L990.3250892708248,354.06076876133824L991.1290269414742,361.1834924593087L991.9329646121234,368.36251652951427L993.540839953422,368.36296263767434L995.1487152947207,368.3618582365074L995.9526529653701,362.54014282134864L997.5605283066686,361.18546820132394L999.1684036479672,362.1208462931994L1000.7762789892658,362.4890187104884L1001.5802166599152,368.36071986732253L1002.3841543305645,361.1837805100098L1003.1880920012137,368.36209116498986L1003.9920296718631,361.79838970324124L1004.7959673425123,361.17859634948024L1008.0117180251098,361.1814016474311L1012.0314063783562,355.7935757345134L1012.8353440490055,368.3629560886471L1014.4432193903041,368.3628757332011L1015.2471570609533,362.97956642218213L1018.4629077435508,361.1849627964384L1019.2668454142,361.1839512345768L1020.0707830848493,354.00624369676916L1021.6786584261479,355.0122265503155L1024.0904714380958,361.7741941964376L1026.5022844500436,368.3548219889684L1028.1101597913425,368.3594537147125L1029.718035132641,341.46793517379825L1030.5219728032903,361.19372615614986L1032.129848144589,361.1782218083597L1032.9337858152383,362.5256620688698L1035.345598827186,368.3600766275119L1036.1495364978355,368.3591841519261L1036.9534741684847,361.18326908839947L1038.5613495097834,368.362918383679L1039.3652871804327,354.0056811329978L1040.1692248510822,368.3600952432232L1041.7771001923807,362.98686846985106L1042.58103786303,362.8361912539478L1043.3849755336792,361.1850771142102L1044.1889132043286,361.1828419009367L1044.9928508749779,368.36318807260955L1045.7967885456271,355.7998684765925L1049.8164768988738,368.3636854986511L1050.620414569523,361.18612552851135L1052.2282899108216,348.3973505281447L1055.4440405934188,361.5858391215279L1056.2479782640683,357.0406525123553L1057.8558536053667,368.33731023570795L1061.0716042879642,368.29306453691925L1062.6794796292627,362.64338079430325L1064.2873549705612,362.9582856425122L1065.89523031186,368.3598841077411L1066.6991679825092,368.36047614075795L1067.5031056531584,354.00616848770886L1068.3070433238076,355.6305533273998L1069.9149186651066,368.3520950384403L1072.3267316770543,361.1841114298753L1073.1306693477036,368.361795400586L1074.7385446890023,354.00719734765437L1075.5424823596516,355.5961451822919L1076.3464200303008,361.1839730452043L1077.9542953715995,361.1944098065084L1081.1700460541967,368.35221459587456L1082.7779213954955,357.2218303866362L1083.5818590661447,368.36195497709906L1085.1897344074432,368.36172837822284L1085.9936720780927,354.10979153105245L1088.4054850900404,368.3438197385249L1089.2094227606897,355.3759074825207L1093.2291111139364,368.350387440228L1094.0330487845858,361.1798733993249L1094.836986455235,368.3612982077367L1095.6409241258843,362.8620289505841L1097.2487994671828,361.1648406123431L1098.8566748084816,361.30884565645783L1099.6606124791308,354.07745915601004L1100.46455014978,361.1815422883739L1101.2684878204295,362.94006474346236L1102.0724254910788,361.180161450026L1102.8763631617282,368.35901021040905L1105.288176173676,368.3605935039825L1107.699989185624,354.0012498151623L1109.3078645269225,362.8056657765802L1110.9157398682212,368.3547337284921L1111.7196775388707,357.1920829469979L1112.52361520952,368.3577759313107L1113.3275528801692,361.1949746265516L1114.1314905508184,368.3626979262028L1117.3472412334156,368.3587892074101L1120.5629919160128,368.36031178435655L1122.1708672573116,368.3613997135275L1122.9748049279608,361.42257228496817L1125.3866179399088,361.18300059205404L1126.190555610558,368.3612304020682L1126.9944932812075,362.810260674122L1129.4063062931552,361.182386134031L1131.8181193051032,368.36215894495206L1132.6220569757527,361.1835548828288L1133.425994646402,368.36011124828417L1135.0338699877004,368.35784272562296L1135.83780765835,356.2504933388285L1136.6417453289991,362.8874812007861L1139.053558340947,368.35926613641203L1140.6614336822456,361.15855990371364L1141.4653713528949,368.3606164409097L1142.269309023544,368.360783052114L1143.0732466941936,361.18328939484576L1143.8771843648428,368.3594837873197L1144.6811220354923,368.3596250775282L1146.2889973767908,362.9766208593337L1147.09293504744,355.32720811176597L1149.504748059388,361.95552474511106L1153.5244364126345,368.3619622684853L1163.1716884604261,368.3620951777311L1163.9756261310756,362.71619030957817L1164.779563801725,361.18659859350095L1165.5835014723743,362.83760217591987L1168.7992521549716,368.3552819783047L1171.2110651669193,355.6976368008653L1172.0150028375685,368.3631666213183L1173.6228781788673,361.1849703173445L1174.4268158495165,356.5427068614407L1175.230753520166,368.36436957004076L1176.0346911908152,339.72496820866104L1177.642566532114,355.8017908201749L1179.2504418734125,368.3605554958646L1180.0543795440617,361.18509666856585L1180.8583172147112,355.84589190898015L1182.4661925560097,368.36309802995754L1183.270130226659,361.52686318476765L1184.0740678973082,368.36023939269813L1185.6819432386071,362.72381914061424L1187.2898185799056,356.2336532781266L1192.1134446038013,368.35879288119645L1193.7213199451,361.1786986338023L1197.7410082983465,361.16470373185325L1198.544945968996,361.16744435001226L1201.7606966515932,368.35909392382206L1205.7803850048397,354.00545249745437L1206.5843226754891,357.2914792411501L1209.8000733580861,368.35262108615643L1213.0158240406834,368.36365333282293L1215.4276370526313,339.6699903855487L1217.8394500645793,368.34930734557906L1218.6433877352288,368.3605539869094L1219.447325405878,368.35963386979057L1221.8591384178258,355.5488898254958L1222.6630760884752,355.20120886878846L1225.074889100423,368.3619520465898L1226.6827644417217,361.16426526303144L1227.4867021123712,354.0038099315764L1228.2906397830204,368.35606114416987L1233.9182034775654,354.0036279256504L1234.7221411482149,368.3617703417938L1235.526078818864,368.36282345739573L1236.3300164895134,368.3619018037793L1237.937891830812,368.3627622248082L1238.7418295014613,368.3626601758817L1239.5457671721108,368.3635279621103L1240.34970484276,361.1805683310425L1241.1536425134093,362.6920741483332L1241.9575801840585,368.3637972125661L1242.7615178547078,356.4349495760499L1243.5654555253573,361.18559756090775L1244.3693931960065,368.3602763226236L1246.7812062079543,368.35725417065794L1248.3890815492532,368.36234572268734L1252.4087699024997,361.18455516333137L1253.212707573149,368.36349182613986L1254.0166452437982,368.3624788934021L1255.624520585097,361.1847334088044L1261.252084279642,361.1856095943574L1262.8599596209406,361.18406856071095L1266.879647974187,368.36349326036344L1267.6835856448365,361.2185210791645L1270.8993363274337,368.36316876466634L1272.5072116687325,361.2401910657217L1273.3111493393817,368.35733277734636L1274.9190246806802,368.3530762258303L1275.7229623513294,368.3583373522569L1277.3308376926282,368.3581826683723L1278.1347753632774,362.96135304403833L1282.9584013871734,361.18364362951996L1283.7623390578226,361.18050064288815L1284.5662767284718,348.4175862779212L1288.5859650817185,368.3650924864695L1289.3899027523678,368.36299197471635L1296.6253417882115,368.3640478902767L1297.429279458861,354.32300019204376L1299.8410924708087,368.35955383750854L1300.645030141458,368.36329837690556L1301.4489678121074,362.7131247882785L1303.0568431534061,368.36295670945236L1304.6647184947046,361.18306903229893L1306.2725938360034,368.3644269697389L1308.684406847951,355.71492134711383L1309.4883445186006,355.9448196506864L1311.096219859899,354.0675526185814L1311.9001575305485,368.364049085616L1313.508032871847,368.3645823613708L1315.1159082131458,368.3640061944177L1315.919845883795,368.3607141943266L1317.5277212250935,354.5123074136574L1318.331658895743,368.33889088925235L1321.5474095783402,361.20644250407304L1322.3513472489897,361.1860834114376L1323.9592225902882,354.00102870052484L1324.7631602609374,368.3629706264336L1325.5670979315867,368.3630895303789L1326.3710356022361,368.36356796466373L1327.9789109435346,368.3632424838675L1328.7828486141839,368.36454397142376L1329.5867862848331,368.3604601121942L1330.3907239554826,354.006321914192L1333.6064746380798,361.1836970279528L1335.2143499793785,362.9784529520437L1336.0182876500278,361.1855411541125L1336.822225320677,354.45137303296576L1338.4301006619755,361.46329573487327L1340.0379760032743,368.36389978920465L1341.6458513445727,357.40422514351354L1343.2537266858717,368.36351381101883L1344.057664356521,361.1855637168306L1344.8616020271702,348.21258292541347L1346.4694773684687,368.36363291767606L1347.2734150391182,361.43383108130183L1348.0773527097674,361.18564193425334L1348.8812903804167,362.5877486523659L1349.685228051066,368.36439400472267L1350.4891657217152,368.36404497408944L1352.0970410630139,361.1841317363216L1352.9009787336631,368.3610606348744L1355.312791745611,361.1861067262463L1356.1167294162606,368.363523161657L1357.724604757559,361.185352379371L1358.5285424282083,361.63059828961116L1360.9403554401563,355.76032806520664L1361.7442931108055,368.3633868470713L1362.5482307814548,368.3638621876123L1363.3521684521043,368.3627151295409L1364.1561061227537,361.18393844903653L1365.7639814640522,361.5676197266593L1368.9797321466494,368.36401103453204L1370.587607487948,368.3648310911006L1371.3915451585972,368.36359350085723L1372.1954828292467,361.1783504158529L1374.6072958411944,362.8610553692979L1375.4112335118439,348.59522255755047L1377.0191088531426,361.1853320729247L1380.2348595357398,361.1811873016091L1381.038797206389,368.36381293485863L1381.8427348770383,361.18541630707233L1382.6466725476876,361.1763032252303L1384.2545478889863,368.36029949568086L1387.4702985715835,368.36413034555375L1388.2742362422327,368.3622590001775L1389.8821115835315,362.9199639939492L1390.6860492541807,368.3633175913883L1391.48998692483,368.36143020624775L1392.2939245954794,354.8865883108277L1393.901799936778,362.682899771107L1396.313612948726,362.5782587731316L1397.1175506193754,361.1857585082969L1397.9214882900246,368.3637218525735L1398.7254259606739,362.24811581720616L1399.5293636313231,368.36332489746377L1401.941176643271,368.36415588248167L1402.7451143139203,361.18496580480087L1405.9608649965176,368.36041438009113L1406.764802667167,361.60525885299967L1408.3726780084655,361.18660536231636L1409.1766156791148,361.1859352495887L1409.9805533497643,368.363326899244L1413.1963040323615,355.6479867875878L1415.6081170443092,368.3646573432065L1417.215992385608,368.36205982176085L1419.627805397556,361.3611136971259L1420.4317430682052,361.1848341889453L1421.2356807388544,368.3644090851859L1422.0396184095039,368.36426845259757L1422.8435560801531,361.1861894562127L1424.4514314214516,348.0015673606218L1425.2553690921009,368.36398296021633L1426.0593067627503,368.36278484720145L1428.4711197746983,346.98721524284025L1429.2750574453476,361.2931081605806L1430.8829327866463,368.3643447727175L1431.6868704572955,362.28951614865434L1432.4908081279448,368.3648217600175L1434.9026211398927,361.1857397060318L1436.5104964811912,368.364248233736L1437.3144341518405,348.5662114146129L1438.11837182249,368.3644010718221L1438.9223094931394,361.2954140703708L1444.5498731876844,361.17781643152443L1445.3538108583336,368.3639604837977L1447.7656238702816,362.5053582548937L1451.7853122235283,361.1859164473236L1455.0010629061255,354.79428272688483L1456.608938247424,361.1810579420253L1458.2168135887225,361.18577129383715L1459.8246889300215,354.1180434691535L1460.6286266006707,368.3641425438904L1461.43256427132,361.18650759053793L1462.2365019419692,368.36426651783717L1465.4522526245664,368.36249021809454L1466.2561902952157,362.2797664221165L1467.0601279658651,361.18468001037155L1468.6680033071636,368.3618189702536L1469.4719409778131,346.8362676503651L1470.2758786484624,355.2682366875493L1473.4916293310596,356.66340386566384L1475.099504672358,361.1852591201362L1476.7073800136568,368.36257363184643L1478.3152553549553,349.8869396731602L1479.1191930256045,368.3625595231702L1480.7270683669035,362.11936956329953L1483.9428190495007,368.35969782393255L1485.5506943907992,355.26831189660965L1486.3546320614485,354.80606046573484L1488.7664450733964,361.94391246619375L1491.1782580853444,362.5032738357862L1494.3940087679416,354.00477260754883L1496.00188410924,368.3630278905313L1496.8058217798896,361.4246593363928L1499.2176347918373,368.36192750265644L1502.4333854744348,354.9348529732136L1503.237323145084,368.3633881197129L1504.0412608157333,361.18615786840735L1504.8451984863827,361.18546970550517L1507.2570114983305,356.9240686916424L1508.0609491689797,361.75951263576763L1508.8648868396292,368.3646452431961L1510.4727621809277,361.2233239297581L1511.276699851577,368.363363589918L1512.0806375222264,368.3648860974576L1513.6885128635251,361.1860262525517L1514.4924505341744,347.2962282132617L1516.9042635461224,368.34326843407865L1517.7082012167716,368.36181990155325L1519.31607655807,368.3526077292036L1520.9239518993688,368.36360741012663L1521.727889570018,368.3629660828589L1522.5318272406676,368.36238900131514L1528.1593909352125,354.00967623828336L1528.9633286058618,368.3616817353851L1529.7672662765112,362.92753491400885L1530.5712039471605,368.3626035428716L1535.3948299710564,368.36442192057785L1536.1987676417057,355.21144331772024L1537.002705312355,368.36447110576097L1537.8066429830044,355.49327122118933L1538.6105806536536,368.36104386964377L1540.2184559949521,354.7924626676245L1542.6302690069,354.05364646332356L1545.042082018848,356.084792737076L1548.2578327014453,368.36408630547095L1549.0617703720945,368.36424984973934L1549.8657080427438,361.1863331055179L1550.6696457133933,361.5639547891487L1551.4735833840425,361.22806210055984L1553.081458725341,368.36366113374316L1553.8853963959905,368.36456801739087L1557.1011470785877,362.86720822252477L1559.5129600905357,362.5337797587981L1560.316897761185,361.18599015220275L1562.728710773133,346.8283661864852L1563.5326484437821,362.8482036450661L1564.3365861144316,354.05507844383254L1565.1405237850809,368.36344561516665L1565.94446145573,362.8134893990826L1567.5523367970288,361.1846318765729L1568.356274467678,368.36406219927784L1569.1602121383273,368.3648027875405L1569.9641498089766,354.0086428657942L1570.768087479626,361.18650759053793L1573.983838162223,368.36509556102544L1574.7877758328725,355.0947880484L1575.591713503522,368.36474507156413L1578.0035265154697,368.3651858617496L1579.6114018567685,361.1830577509399L1580.4153395274177,368.3649857636928L1581.219277198067,361.1858698177062L1582.8271525393654,362.79415954243797L1583.631090210015,368.3636343618149L1584.4350278806642,347.38056915771404L1586.042903221963,362.00969407082465L1586.8468408926121,361.191499215873L1589.2586539045599,354.04524260292055" style="fill: none;" fill="none"></path></g></g></g></g></g></g><g transform="translate(53, 377)" clip-path="url(#clip_1)"><clipPath id="clip_1"><rect width="1587" height="23"></rect></clipPath><g><g><line x1="28.01169750360185" y1="0" x2="28.01169750360185" y2="5" style="visibility: inherit;" fill="rgb(0, 0, 0)" stroke="rgb(204, 204, 204)" stroke-width="1px"></line><line x1="188.79923163346365" y1="0" x2="188.79923163346365" y2="5" style="visibility: inherit;" fill="rgb(0, 0, 0)" stroke="rgb(204, 204, 204)" stroke-width="1px"></line><line x1="349.58676576332545" y1="0" x2="349.58676576332545" y2="5" style="visibility: inherit;" fill="rgb(0, 0, 0)" stroke="rgb(204, 204, 204)" stroke-width="1px"></line><line x1="510.3742998931873" y1="0" x2="510.3742998931873" y2="5" style="visibility: inherit;" fill="rgb(0, 0, 0)" stroke="rgb(204, 204, 204)" stroke-width="1px"></line><line x1="671.1618340230491" y1="0" x2="671.1618340230491" y2="5" style="visibility: inherit;" fill="rgb(0, 0, 0)" stroke="rgb(204, 204, 204)" stroke-width="1px"></line><line x1="831.949368152911" y1="0" x2="831.949368152911" y2="5" style="visibility: inherit;" fill="rgb(0, 0, 0)" stroke="rgb(204, 204, 204)" stroke-width="1px"></line><line x1="992.7369022827727" y1="0" x2="992.7369022827727" y2="5" style="visibility: inherit;" fill="rgb(0, 0, 0)" stroke="rgb(204, 204, 204)" stroke-width="1px"></line><line x1="1153.5244364126345" y1="0" x2="1153.5244364126345" y2="5" style="visibility: inherit;" fill="rgb(0, 0, 0)" stroke="rgb(204, 204, 204)" stroke-width="1px"></line><line x1="1314.3119705424965" y1="0" x2="1314.3119705424965" y2="5" style="visibility: inherit;" fill="rgb(0, 0, 0)" stroke="rgb(204, 204, 204)" stroke-width="1px"></line><line x1="1475.099504672358" y1="0" x2="1475.099504672358" y2="5" style="visibility: inherit;" fill="rgb(0, 0, 0)" stroke="rgb(204, 204, 204)" stroke-width="1px"></line></g><g transform="translate(0, 8)"><text x="28.01169750360185" y="0" dx="0em" dy="0.95em" style="text-anchor: middle; visibility: inherit; font-family: &quot;Helvetica Neue&quot;, sans-serif; font-size: 12px; font-weight: 200;" fill="rgb(50, 49, 63)" stroke="none" stroke-width="1px">0</text><text x="188.79923163346365" y="0" dx="0em" dy="0.95em" style="text-anchor: middle; visibility: inherit; font-family: &quot;Helvetica Neue&quot;, sans-serif; font-size: 12px; font-weight: 200;" fill="rgb(50, 49, 63)" stroke="none" stroke-width="1px">200</text><text x="349.58676576332545" y="0" dx="0em" dy="0.95em" style="text-anchor: middle; visibility: inherit; font-family: &quot;Helvetica Neue&quot;, sans-serif; font-size: 12px; font-weight: 200;" fill="rgb(50, 49, 63)" stroke="none" stroke-width="1px">400</text><text x="510.3742998931873" y="0" dx="0em" dy="0.95em" style="text-anchor: middle; visibility: inherit; font-family: &quot;Helvetica Neue&quot;, sans-serif; font-size: 12px; font-weight: 200;" fill="rgb(50, 49, 63)" stroke="none" stroke-width="1px">600</text><text x="671.1618340230491" y="0" dx="0em" dy="0.95em" style="text-anchor: middle; visibility: inherit; font-family: &quot;Helvetica Neue&quot;, sans-serif; font-size: 12px; font-weight: 200;" fill="rgb(50, 49, 63)" stroke="none" stroke-width="1px">800</text><text x="831.949368152911" y="0" dx="0em" dy="0.95em" style="text-anchor: middle; visibility: inherit; font-family: &quot;Helvetica Neue&quot;, sans-serif; font-size: 12px; font-weight: 200;" fill="rgb(50, 49, 63)" stroke="none" stroke-width="1px">1k</text><text x="992.7369022827727" y="0" dx="0em" dy="0.95em" style="text-anchor: middle; visibility: inherit; font-family: &quot;Helvetica Neue&quot;, sans-serif; font-size: 12px; font-weight: 200;" fill="rgb(50, 49, 63)" stroke="none" stroke-width="1px">1.2k</text><text x="1153.5244364126345" y="0" dx="0em" dy="0.95em" style="text-anchor: middle; visibility: inherit; font-family: &quot;Helvetica Neue&quot;, sans-serif; font-size: 12px; font-weight: 200;" fill="rgb(50, 49, 63)" stroke="none" stroke-width="1px">1.4k</text><text x="1314.3119705424965" y="0" dx="0em" dy="0.95em" style="text-anchor: middle; visibility: inherit; font-family: &quot;Helvetica Neue&quot;, sans-serif; font-size: 12px; font-weight: 200;" fill="rgb(50, 49, 63)" stroke="none" stroke-width="1px">1.6k</text><text x="1475.099504672358" y="0" dx="0em" dy="0.95em" style="text-anchor: middle; visibility: inherit; font-family: &quot;Helvetica Neue&quot;, sans-serif; font-size: 12px; font-weight: 200;" fill="rgb(50, 49, 63)" stroke="none" stroke-width="1px">1.8k</text></g><line x1="0" y1="0" x2="1587.8125" y2="0" fill="rgb(0, 0, 0)" stroke="rgb(204, 204, 204)" stroke-width="1px"></line></g></g></g></g></svg>