<svg viewBox="0 0 1624.2000732421875 400" xmlns="http://www.w3.org/2000/svg"><g><g><g><g><g><line x1="42.390625" y1="343.90955903515453" x2="37.390625" y2="343.90955903515453" style="visibility: inherit;" fill="rgb(0, 0, 0)" stroke="rgb(204, 204, 204)" stroke-width="1px"></line><line x1="42.390625" y1="291.9274777578775" x2="37.390625" y2="291.9274777578775" style="visibility: inherit;" fill="rgb(0, 0, 0)" stroke="rgb(204, 204, 204)" stroke-width="1px"></line><line x1="42.390625" y1="239.94539648060046" x2="37.390625" y2="239.94539648060046" style="visibility: inherit;" fill="rgb(0, 0, 0)" stroke="rgb(204, 204, 204)" stroke-width="1px"></line><line x1="42.390625" y1="187.96331520332342" x2="37.390625" y2="187.96331520332342" style="visibility: inherit;" fill="rgb(0, 0, 0)" stroke="rgb(204, 204, 204)" stroke-width="1px"></line><line x1="42.390625" y1="135.98123392604631" x2="37.390625" y2="135.98123392604631" style="visibility: inherit;" fill="rgb(0, 0, 0)" stroke="rgb(204, 204, 204)" stroke-width="1px"></line><line x1="42.390625" y1="83.99915264876927" x2="37.390625" y2="83.99915264876927" style="visibility: inherit;" fill="rgb(0, 0, 0)" stroke="rgb(204, 204, 204)" stroke-width="1px"></line><line x1="42.390625" y1="32.01707137149225" x2="37.390625" y2="32.01707137149225" style="visibility: inherit;" fill="rgb(0, 0, 0)" stroke="rgb(204, 204, 204)" stroke-width="1px"></line></g><g transform="translate(32.390625, 0)"><text x="0" y="343.90955903515453" dx="0em" dy="0.3em" style="text-anchor: end; visibility: inherit; font-family: &quot;Helvetica Neue&quot;, sans-serif; font-size: 12px; font-weight: 200;" fill="rgb(50, 49, 63)" stroke="none" stroke-width="1px">0.4</text><text x="0" y="291.9274777578775" dx="0em" dy="0.3em" style="text-anchor: end; visibility: inherit; font-family: &quot;Helvetica Neue&quot;, sans-serif; font-size: 12px; font-weight: 200;" fill="rgb(50, 49, 63)" stroke="none" stroke-width="1px">0.5</text><text x="0" y="239.94539648060046" dx="0em" dy="0.3em" style="text-anchor: end; visibility: inherit; font-family: &quot;Helvetica Neue&quot;, sans-serif; font-size: 12px; font-weight: 200;" fill="rgb(50, 49, 63)" stroke="none" stroke-width="1px">0.6</text><text x="0" y="187.96331520332342" dx="0em" dy="0.3em" style="text-anchor: end; visibility: inherit; font-family: &quot;Helvetica Neue&quot;, sans-serif; font-size: 12px; font-weight: 200;" fill="rgb(50, 49, 63)" stroke="none" stroke-width="1px">0.7</text><text x="0" y="135.98123392604631" dx="0em" dy="0.3em" style="text-anchor: end; visibility: inherit; font-family: &quot;Helvetica Neue&quot;, sans-serif; font-size: 12px; font-weight: 200;" fill="rgb(50, 49, 63)" stroke="none" stroke-width="1px">0.8</text><text x="0" y="83.99915264876927" dx="0em" dy="0.3em" style="text-anchor: end; visibility: inherit; font-family: &quot;Helvetica Neue&quot;, sans-serif; font-size: 12px; font-weight: 200;" fill="rgb(50, 49, 63)" stroke="none" stroke-width="1px">0.9</text><text x="0" y="32.01707137149225" dx="0em" dy="0.3em" style="text-anchor: end; visibility: inherit; font-family: &quot;Helvetica Neue&quot;, sans-serif; font-size: 12px; font-weight: 200;" fill="rgb(50, 49, 63)" stroke="none" stroke-width="1px">1</text></g><line x1="42.390625" y1="0" x2="42.390625" y2="377" fill="rgb(0, 0, 0)" stroke="rgb(204, 204, 204)" stroke-width="1px"></line></g></g><g transform="translate(42, 0)" clip-path="url(#clip_0)"><clipPath id="clip_0"><rect width="1581" height="377"></rect></clipPath><g><g><g><line x1="26.638451696243607" y1="0" x2="26.638451696243607" y2="377" fill="rgb(0, 0, 0)" stroke="rgb(60, 60, 60)" stroke-width="1px" opacity="0.25"></line><line x1="147.46427335534764" y1="0" x2="147.46427335534764" y2="377" fill="rgb(0, 0, 0)" stroke="rgb(60, 60, 60)" stroke-width="1px" opacity="0.25"></line><line x1="268.29009501445165" y1="0" x2="268.29009501445165" y2="377" fill="rgb(0, 0, 0)" stroke="rgb(60, 60, 60)" stroke-width="1px" opacity="0.25"></line><line x1="389.1159166735557" y1="0" x2="389.1159166735557" y2="377" fill="rgb(0, 0, 0)" stroke="rgb(60, 60, 60)" stroke-width="1px" opacity="0.25"></line><line x1="509.9417383326598" y1="0" x2="509.9417383326598" y2="377" fill="rgb(0, 0, 0)" stroke="rgb(60, 60, 60)" stroke-width="1px" opacity="0.25"></line><line x1="630.7675599917638" y1="0" x2="630.7675599917638" y2="377" fill="rgb(0, 0, 0)" stroke="rgb(60, 60, 60)" stroke-width="1px" opacity="0.25"></line><line x1="751.5933816508679" y1="0" x2="751.5933816508679" y2="377" fill="rgb(0, 0, 0)" stroke="rgb(60, 60, 60)" stroke-width="1px" opacity="0.25"></line><line x1="872.4192033099717" y1="0" x2="872.4192033099717" y2="377" fill="rgb(0, 0, 0)" stroke="rgb(60, 60, 60)" stroke-width="1px" opacity="0.25"></line><line x1="993.245024969076" y1="0" x2="993.245024969076" y2="377" fill="rgb(0, 0, 0)" stroke="rgb(60, 60, 60)" stroke-width="1px" opacity="0.25"></line><line x1="1114.0708466281799" y1="0" x2="1114.0708466281799" y2="377" fill="rgb(0, 0, 0)" stroke="rgb(60, 60, 60)" stroke-width="1px" opacity="0.25"></line><line x1="1234.896668287284" y1="0" x2="1234.896668287284" y2="377" fill="rgb(0, 0, 0)" stroke="rgb(60, 60, 60)" stroke-width="1px" opacity="0.25"></line><line x1="1355.722489946388" y1="0" x2="1355.722489946388" y2="377" fill="rgb(0, 0, 0)" stroke="rgb(60, 60, 60)" stroke-width="1px" opacity="0.25"></line><line x1="1476.548311605492" y1="0" x2="1476.548311605492" y2="377" fill="rgb(0, 0, 0)" stroke="rgb(60, 60, 60)" stroke-width="1px" opacity="0.25"></line></g><g><line x1="0" y1="343.90955903515453" x2="1581.809375" y2="343.90955903515453" fill="rgb(0, 0, 0)" stroke="rgb(60, 60, 60)" stroke-width="1px" opacity="0.25"></line><line x1="0" y1="291.9274777578775" x2="1581.809375" y2="291.9274777578775" fill="rgb(0, 0, 0)" stroke="rgb(60, 60, 60)" stroke-width="1px" opacity="0.25"></line><line x1="0" y1="239.94539648060046" x2="1581.809375" y2="239.94539648060046" fill="rgb(0, 0, 0)" stroke="rgb(60, 60, 60)" stroke-width="1px" opacity="0.25"></line><line x1="0" y1="187.96331520332342" x2="1581.809375" y2="187.96331520332342" fill="rgb(0, 0, 0)" stroke="rgb(60, 60, 60)" stroke-width="1px" opacity="0.25"></line><line x1="0" y1="135.98123392604631" x2="1581.809375" y2="135.98123392604631" fill="rgb(0, 0, 0)" stroke="rgb(60, 60, 60)" stroke-width="1px" opacity="0.25"></line><line x1="0" y1="83.99915264876927" x2="1581.809375" y2="83.99915264876927" fill="rgb(0, 0, 0)" stroke="rgb(60, 60, 60)" stroke-width="1px" opacity="0.25"></line><line x1="0" y1="32.01707137149225" x2="1581.809375" y2="32.01707137149225" fill="rgb(0, 0, 0)" stroke="rgb(60, 60, 60)" stroke-width="1px" opacity="0.25"></line></g></g></g><g><g><line x1="0" y1="551.8378841442627" x2="1581.809375" y2="551.8378841442627" fill="rgb(0, 0, 0)" stroke="rgb(153, 153, 153)" stroke-width="1.5px"></line></g></g><g><g><line x1="26.638451696243607" y1="0" x2="26.638451696243607" y2="377" fill="rgb(0, 0, 0)" stroke="rgb(153, 153, 153)" stroke-width="1.5px"></line></g></g><g><g><g><g><g><path stroke="rgb(255, 112, 67)" stroke-width="2px" d="M32.67974277919881,354.30597776930875L33.88800099578985,344.5593371425226L38.721033862154016,341.57567164452684L39.92929207874506,354.5926436700966L42.34580851192714,352.213710172908L43.55406672851818,329.1001103622624L44.76232494510922,309.5245030637734L47.1788413782913,306.59505825063343L48.387099594882336,311.17055525554974L49.595357811473384,290.87490421339965L50.80361602806442,270.42891872947655L55.63664889442858,249.87363542238603L66.51097284374795,245.89714131098967L67.71923106033898,245.5954957010016L70.13574749352107,241.25412854166066L73.76052214329418,228.2512625061329L74.96878035988523,212.13335784087556L77.38529679306731,208.70283866557085L79.8018132262494,192.08888190571133L81.01007144284043,175.88308392338595L83.42658787602251,178.63595803559122L85.84310430920459,192.76350806475764L87.05136252579562,190.84341823535308L90.67613717556874,170.9777291698533L91.88439539215979,152.8205144358831L93.09265360875082,162.71907917694278L94.30091182534187,158.26179023378322L95.50917004193292,149.34955975904043L99.13394469170603,154.39864754166766L100.34220290829708,161.58666247622125L102.75871934147915,136.78950401783118L105.17523577466125,136.46619347668727L106.38349399125228,130.03436306620335L107.59175220784331,124.09598368877204L108.80001042443436,128.85008138670932L112.42478507420748,129.6232586635882L113.63304329079853,117.61146494511746L114.84130150738957,118.7215262585159L116.0495597239806,113.14970683212954L118.46607615716269,113.96519011955934L122.0908508069358,106.13734261862669L128.132141889891,99.36135285295256L129.34040010648204,101.53360280183227L130.54865832307308,88.2819714978188L131.75691653966413,82.41027398522823L132.96517475625515,70.57013040501755L134.1734329728462,67.62460679378347L140.2147240558014,72.09513643164973L149.8807897885297,76.85674787595929L153.50556443830283,83.87227727880162L154.71382265489387,77.68517618626618L163.17163017103118,73.97291553076406L166.7964048208043,63.428421671433L169.21292125398637,55.022444087712074L170.4211794705774,58.29599500351247L171.62943768716846,64.41868808925699L176.46247055353263,61.85446013630474L177.67072877012367,54.07806716664277L178.87898698671472,57.72936885086909L182.50376163648784,55.7615873251404L183.71201985307886,50.42234347994503L187.336794502852,49.29807844096007L192.16982736921614,44.46495688130494L194.58634380239823,47.802940143402054L197.0028602355803,47.72643643903433L198.21111845217138,45.60125294828151L199.41937666876237,50.563999051719975L200.62763488535342,49.38307178402505L205.4606677517176,50.75380908503405L207.87718418489965,47.41767653588141L211.5019588346728,49.57457193614789L212.71021705126384,44.630852978417636L213.9184752678549,49.98175906980168L216.33499170103693,57.35086526089623L217.54324991762797,51.375910241398685L218.75150813421902,45.71165596156811L222.37628278399217,44.39238466180183L224.7927992171742,39.442259345677996L226.00105743376525,36.472184156003664L228.41757386694735,36.7694203103311L229.6258320835384,41.106324539191746L233.25060673331149,41.629185808376064L239.29189781626673,37.78434003362253L240.50015603285777,45.873851302924606L241.7084142494488,46.56898313474784L244.12493068263086,51.14463716359984L245.3331888992219,51.81074831277897L247.749705332404,45.97255880439627L250.16622176558607,42.469645099366744L251.37447998217712,46.60575307423909L252.58273819876817,44.928842929404425L253.7909964153592,46.00197811063572L256.2075128485413,46.64585921937447L257.41577106513233,42.87362534835353L265.8735785812696,44.76884756200519L270.70661144763375,41.74741835393206L275.5396443139979,42.01384209722016L276.74790253058893,42.173696343193114L277.95616074718,42.26960889077685L282.78919361354417,40.24787515119499L286.41396826331726,39.03483490744594L290.0387429130904,40.38629202932856L291.24700112968145,39.11788503432604L294.87177577945454,40.436122105456604L296.0800339960456,39.14778308000297L298.4965504292277,40.45406093286272L299.70480864581873,41.23782764457866L300.9130668624098,45.866662601366215L303.3295832955919,42.406107377548665L304.5378415121829,42.409055511390136L306.95435794536496,40.33154312356305L308.162616161956,41.16431695899877L309.37087437854706,43.743262528392336L312.9956490283202,43.21134860189642L316.6204236780933,40.81291897786673L322.66171476104853,37.29457993531696L325.0782311942306,41.42142031418325L327.49474762741266,45.97681820312897L328.7030058440037,44.55148200673841L334.74429692695895,49.93413648679416L338.36907157673204,42.767310440673384L339.5773297933231,44.70505861739707L340.78558800991414,43.788426255299214L341.9938462265052,41.15916556990851L344.4103626596872,47.89874662469623L349.2433955260514,45.704639059678755L351.6599119592335,40.22961198440413L354.07642839241555,43.182439543635496L356.49294482559765,38.7162922747782L362.53423590855283,38.11588518159584L364.9507523417349,43.99349712357656L369.78378520809906,47.52006428876501L375.8250762910543,49.636004587878006L378.24159272423634,46.74699383758781L379.4498509408274,47.092868655545715L383.07462559060053,43.14183101005631L385.49114202378263,47.00906462065285L386.6994002403736,45.17082985725267L387.90765845696467,41.98860773108049L390.32417489014676,40.07927445537723L391.5324331067378,36.854393221823216L392.74069132332886,39.07802701795492L397.57372418969305,38.332926027501856L398.7819824062841,39.96514670136207L401.1984988394661,43.02376037381026L404.8232734892392,40.70036604101506L409.6563063556034,39.306329441337994L410.86456457219447,38.46990748153172L412.0728227887855,40.04733557378006L413.28108100537656,36.8352298928649L415.69759743855866,41.14581028871197L419.3223720883317,41.652877258088154L420.53063030492274,44.03639870784593L421.7388885215138,43.387230309568565L425.36366317128693,47.15630420036018L426.571921387878,41.10061106881301L428.9884378210601,41.62575772614878L436.23798712060625,39.86156445241818L438.65450355378835,45.04090468606995L442.2792782035615,46.06921516463501L443.48753642015254,42.5276389155099L445.90405285333463,38.32341189790287L447.1123110699257,42.03871949173475L453.1536021528808,38.030060243637706L454.36186036947186,39.78342723104362L456.77837680265395,47.07330362137725L459.19489323583605,45.20937325768733L460.4031514524271,46.17029630760544L461.61140966901814,42.588287601292166L465.2361843187913,40.43908237750429L466.44444253538234,41.22884051136356L470.0692171851554,37.54413285541506L471.27747540174647,39.49187079811003L473.6939918349285,38.58123229559499L474.90225005151956,42.19341173035002L477.31876648470165,44.36071939120308L482.15179935106585,43.58182271958282L483.3600575676569,38.95592218034659L484.5683157842479,46.57680059095901L486.98483221743,44.91147143943641L488.19309043402103,52.22941141454493L491.8178650837942,46.22375666545594L493.0261233003852,42.62036381600251L494.2343815169762,40.45832810633044L495.44263973356726,37.08182541239512L497.85915616674936,35.055923796033994L499.0674143833404,35.91966409434934L500.27567259993145,36.43790827333851L501.48393081652245,40.9074173169962L512.3582547658418,41.50984147505869L513.5665129824329,46.02987089965427L515.983029415615,44.583313624653556L519.607804065388,39.55681672338898L528.0656115815253,38.62019985076233L529.2738697981164,40.137510995318394L534.1069026644806,36.88933514578787L535.3151608810716,37.0197109042017L536.5234190976626,35.01865509111792L538.9399355308447,40.055865407663816L541.3564519640267,38.919629061327214L546.1894848303909,40.31716852165732L557.0638087797103,41.15569219785533L558.2720669963013,37.50024386731013L559.4803252128924,35.306974868982934L560.6885834294834,36.070294738118776L563.1050998626655,36.52828665960021L564.3133580792565,34.723800544357005L567.9381327290297,39.878952679607266L571.5629073788028,38.81348142449332L580.02071489494,36.09491740329287L581.2289731115311,34.46377899057262L582.4372313281222,33.48509594294046L583.6454895447132,34.977167382493235L586.0620059778953,33.79312897809285L587.2702641944863,35.1619872035846L588.4785224110774,35.98330213887971L590.8950388442595,38.555372368188785L592.1032970608505,35.94005196951019L593.3115552774416,38.52942226656711L595.7280717106237,40.08304444480126L598.1445881438058,38.93593648360968L599.3528463603967,36.168390438762685L604.1858792267609,38.666425348118594L612.6436867428982,38.0859650256001L616.2684613926714,39.816970100221056L617.4767196092624,36.6970106087295L619.8932360424445,36.904316181966635L622.3097524756265,37.028699525908905L625.9345271253997,37.1033295322743L639.2253675079011,39.2273888042256L642.8501421576742,38.42254309926432L644.0584003742653,40.01891694441957L645.2666585908563,36.81817871524862L647.6831750240384,36.97701704587814L650.0996914572205,39.15160131238787L651.3079496738115,36.29778933602961L653.7244661069936,38.744064686478794L659.7657571899488,42.291111164880306L660.9740154065398,40.260776515657085L668.2235647060861,41.12185699425521L670.6400811392682,37.479942745150026L671.8483393558593,35.294794195686904L673.0565975724502,36.062986334141044L674.2648557890412,40.68246415347767L675.4731140056323,47.61272577483771L676.6813722222233,45.53302654976363L677.8896304388144,44.28520701471916L679.0978886554054,41.45723402556041L680.3061468719965,41.839731500197274L681.5144050885875,42.06922998497936L683.9309215217696,40.127647807716585L687.5556961715428,36.88341723322685L688.7639543881338,37.01616015666502L689.9722126047247,35.016524642595925L692.3887290379068,42.13388080017654L697.221761904271,38.08715702870285L699.6382783374531,37.73840403395059L702.0547947706352,37.52915223709931L706.8878276369993,35.324319890856486L708.0960858535904,36.08070175124283L709.3043440701814,36.53453086747464L711.7208605033635,36.8068283372138L714.1373769365456,39.049488087189275L716.5538933697277,36.23652140091042L718.9704098029098,51.183003927693505L720.1786680195008,47.67519344147706L723.8034426692739,45.57050714974724L726.219959102456,42.228414106577304L727.428217319047,40.223158280675364L728.636475535638,51.495704787420436L729.8447337522291,45.78353268918124L731.0529919688202,46.514791966501775L732.2612501854112,42.79498499662998L734.6777666185933,38.48381954657492L735.8860248351843,40.05568281280591L741.9273159181395,38.919519504412506L743.1355741347305,42.39638405564057L745.5520905679126,40.32394025011325L746.7603487845037,45.318330164686984L747.9686070010947,39.99782664740911L751.5933816508679,40.96408707330647L754.00989808405,39.46456206071281L756.426414517232,42.72340958942078L758.842930950414,38.44087430224931L761.2594473835961,35.871353129946556L763.6759638167782,40.56748423096093L764.8842220333693,37.14731908717346L766.0924802499603,35.09522000090101L769.7172548997335,33.86396054913746L774.5502877660977,41.44234234410152L775.7585459826886,41.830796491321905L778.1750624158707,42.0638689796541L779.3833206324617,38.04514993638935L781.7998370656438,41.87176231482664L786.632869932008,37.929885937492884L792.6741610149633,39.723322647356724L801.1319685311005,47.037240871165125L802.3402267476914,43.10845433942802L804.7567431808735,38.671901152253724L805.9650013974647,40.16853177621323L807.1732596140556,36.907947614324826L808.3815178306468,37.03087838532383L809.5897760472377,41.263199384187374L810.7980342638289,41.72331071537337L813.214550697011,39.92009624595295L814.4228089136019,38.838167564300704L819.2558417799661,42.34757289157346L820.464099996557,42.37393481980507L822.8806164297391,44.46903324487613L825.2971328629212,39.488248495522555L828.9219075126945,36.4997776459104L831.3384239458766,36.785976404275175L832.5466821624675,36.95769565929402L833.7549403790587,41.21928974856951L837.3797150288317,39.61768366587063L838.5879732454226,38.65672001625131L839.7962314620138,38.08014182647969L841.0044896786047,37.73419491261677L842.2127478951959,35.447345496166974L844.629264328378,36.1545171144291L845.8375225449689,36.57882008538638L847.0457807615601,38.91268313609277L849.4622971947422,48.63013843253884L850.6705554113331,41.98491160812017L851.878813627924,37.99777551346898L853.0870718445152,37.6847751248103L854.2953300611061,37.49697489161508L855.5035882776973,35.305013483565915L857.9201047108794,38.14839917500052L859.1283629274703,37.77514932172926L862.7531375772436,37.55119940976647L867.5861704436078,39.49611073072083L871.2109450933808,40.6630575232935L872.4192033099717,37.20466306257299L873.6274615265629,35.12962638614067L876.043977959745,38.043166916545374L877.2522361763359,37.71200996665618L878.4604943929271,39.592597064854715L879.668752609518,36.562386787509695L882.0852690427001,36.82354188923472L883.2935272592913,39.059516218401825L884.5017854758822,36.242538279637984L889.3348183422464,34.5523515163797L894.1678512086106,33.538239458424755L895.3761094252015,35.00905349178379L897.7926258583836,37.9708231799313L899.0008840749748,35.589322456555635L900.2091422915657,36.23970329066236L901.4174005081569,40.78849432739048L902.6256587247478,37.2799251450312L903.8339169413389,37.25406490374769L907.458691591112,37.23854875897757L908.6669498077031,35.149957803983455L915.9164991072493,35.976084499119L918.3330155404313,36.47176051620028L919.5412737570225,34.6898848583171L920.7495319736134,33.62075946358715L921.9577901902045,37.13784676301327L924.3743066233866,39.248099142668934L927.9990812731597,40.51425057046231L929.2073394897508,41.27394142713837L932.8321141395239,41.72975594114405L934.0403723561149,37.84468211328334L935.248630572706,39.672200352831L937.665147005888,42.84799256469165L940.0816634390701,38.51562408741188L943.7064380888432,42.1540468054402L944.9146963054343,38.09925663186095L947.3312127386164,35.666382527713495L950.9559873883895,40.44450186962115L952.1642456049806,43.31137347476573L953.3725038215716,42.95221516972043L955.7890202547536,38.57815765042915L956.9972784713447,35.9537231388544L958.2055366879357,34.37906243190952L960.6220531211178,33.434266007742565L961.8303113377088,32.867388153242416L963.0385695542999,42.923680174696585L969.0798606372551,40.64031792154685L973.9128935036192,39.270300569657024L975.1211517202104,42.60685269478728L977.5376681533924,40.450221433601314L979.9541845865745,39.15624267688975L982.3707010197566,40.4591366909948L983.5789592363476,37.0823105631938L984.7872174529386,39.21477742277722L985.9954756695297,36.335695002263265L987.2037338861207,34.60824554995486L988.4119921027118,35.65105714670193L990.8285085358939,38.35602537288213L993.245024969076,35.82044377232614L995.6615414022581,34.299094811992575L999.2863160520311,37.544847972056516L1001.7028324852132,37.413018599962925L1002.9110907018043,35.25463970857464L1004.1193489183953,36.038893641873756L1008.9523817847595,36.50944600185318L1011.3688982179416,36.79177741784082L1012.5771564345325,36.96117626743347L1014.9936728677146,37.062815577188985L1018.6184475174878,39.20308043117433L1021.0349639506699,36.32867680730152L1022.2432221672609,36.683315901109836L1023.4514803838518,38.975380625526896L1027.076255033625,36.19205692391307L1030.701029683398,38.68062523920878L1031.9092878999893,38.09448496025419L1034.3258043331714,37.74280079288144L1036.7423207663535,39.611071560589835L1039.1588371995356,38.65275275308289L1045.2001282824906,38.07776146857867L1047.6166447156727,35.65348542974414L1048.8249029322637,38.35748234270744L1050.0331611488548,37.90059922235332L1051.2414193654458,37.62646935014101L1054.866194015219,39.541272694945576L1062.115743314765,38.61087343369621L1064.5322597479471,38.05263387694663L1065.7405179645384,37.717690142896856L1066.9487761811292,35.43744263433507L1068.1570343977205,42.38643159522002L1069.3652926143113,38.23868750572893L1074.1983254806755,37.829322320166284L1076.6148419138576,37.583703208828695L1077.8231001304487,39.51561301015818L1081.4478747802218,40.6747588909559L1082.6561329968129,39.29096515130249L1083.864391213404,40.53997017564251L1085.072649429995,45.447948120004526L1086.280907646586,44.234159956863664L1088.697424079768,39.347324522715155L1089.9056822963591,40.573785798490064L1091.1139405129502,39.23038129582295L1092.3221987295412,36.34505732609068L1094.7387151627233,40.85170674864747L1098.3634898124965,37.317852597785304L1100.7800062456784,35.19754010726808L1101.9882644622696,36.00463388108983L1104.4047808954517,42.72674634327291L1105.6130391120425,40.5221576226927L1109.2378137618157,41.27868565847655L1110.4460719784067,41.732602479946934L1112.8625884115888,42.004952572829154L1114.0708466281799,40.089081360426405L1122.5286541443172,43.098121169248884L1123.7369123609083,38.665701250146185L1124.9451705774993,38.08553056681666L1126.1534287940904,39.81670942495094L1127.3616870106814,36.696854203567455L1128.5699452272725,34.82494107073734L1129.7782034438635,35.78107445917135L1132.1947198770456,36.354754492231734L1133.4029780936366,38.7782437802L1134.6112363102277,40.23233735298095L1138.2360109600008,43.1840747647816L1139.444269176592,40.79655467559792L1140.652527393183,39.36404262208765L1141.860785609774,38.50453538998153L1144.2773020429559,35.90954978258583L1151.5268513425021,34.35255841814836L1152.7351095590932,37.57692613575L1153.9433677756842,39.51154676631097L1156.3598842088663,38.59303787651555L1161.1929170752305,38.04193254263828L1164.8176917250037,41.86983187857595L1168.4424663747768,37.92872767574249L1173.275499241141,39.722627690306524L1176.900273890914,38.71968643091287L1178.1085321075052,44.355777873166744L1179.316790324096,41.49957654062905L1181.7333067572781,39.785855741106275L1182.9415649738694,38.75762326139278L1184.1498231904602,38.14068377356466L1187.7745978402334,39.84980134899973L1188.9828560568244,36.716709357996706L1191.3993724900065,36.91613543152698L1193.8158889231886,39.11507234377717L1195.0241471397796,38.35515322299523L1197.4406635729617,42.05776428679019L1199.8571800061438,40.12076838880307L1201.0654382227349,38.9585708500108L1203.481954655917,42.419814862999544L1205.898471089099,38.258717466396604L1207.1067293056901,35.76205902843486L1208.3149875222812,38.42262650192191L1209.5232457388722,37.939685717882014L1213.1480203886451,37.64992124745811L1214.3562786052364,37.47606256520373L1215.5645368218272,35.292466087719106L1219.1893114716006,36.0615894693604L1220.3975696881914,38.602344766477245L1230.0636354209198,42.20607921287939L1233.688410070693,42.28903861258863L1234.896668287284,38.18025171615005L1237.3131847204659,41.95282338268305L1239.729701153648,44.21636638260287L1240.937959370239,43.49521091442273L1244.5627340200122,43.062517633514574L1245.7709922366032,42.80290166496974L1248.1875086697853,46.80570701360085L1249.3957668863764,40.890252756757434L1250.6040251029674,43.5788240070475L1251.8122833195582,45.191966757221564L1255.4370579693316,39.92200860292985L1265.10312370206,36.760033710354776L1266.3113819186508,36.94213004294181L1267.519640135242,34.97210657436199L1269.936156568424,33.79009249321405L1272.352673001606,35.1601653126574L1273.560931218197,38.06149027245539L1274.7691894347881,35.643722712070144L1277.1857058679702,36.27234344397101L1279.6022223011523,36.649515883111576L1280.8104805177434,38.95510061472788L1282.0187387343344,38.259170185565665L1285.6435133841076,37.8416119280684L1286.8517716006986,37.591076973569955L1288.0600298172894,35.361474732738884L1294.101320900245,40.26155719263636L1296.517837333427,36.963762864178705L1297.7260955500178,37.064367535236215L1300.1426119832,35.045449069738595L1301.3508701997912,37.99266052670413L1303.767386632973,37.6817061327514L1311.0169359325193,37.49513349637982L1312.2251941491104,35.30390864642476L1314.6417105822925,33.98917373645173L1317.0582270154746,35.279614058599975L1321.8912598818388,33.974596983756896L1324.3077763150209,35.270868006982994L1326.724292748203,33.96934935278671L1329.1408091813848,37.34700069653297L1331.557325614567,37.29431023464866L1333.973842047749,39.34197722565017L1335.1821002643403,36.41201488398701L1336.3903584809311,34.654037478989096L1337.5986166975222,35.67853230412243L1338.8068749141132,34.21394793107032L1343.6399077804774,33.33519730723907L1346.0564242136595,34.887228201072446L1347.2646824302506,37.89772800550446L1354.5142317297968,37.62474662003166L1356.930748162979,37.46095778874786L1359.347264596161,39.441965758109745L1360.555522812752,42.709851807858854L1361.7637810293431,38.432739633312224L1369.0133303288894,37.945753596716315L1372.6381049786623,35.574280706626666L1375.0546214118444,34.15139697257291L1378.6793960616176,35.376948000272705L1382.3041707113907,34.03299734876049L1383.5124289279818,33.22662695785323L1385.9289453611639,36.90136725957291L1387.137203577755,37.0269301724727L1388.345461794346,37.10226792021251L1389.553720010937,35.068189300724384L1391.970236444119,35.927023397163566L1393.1784946607102,36.4423238550271L1395.5950110938923,38.830785397877264L1396.8032693104833,36.10529978732325L1398.0115275270743,34.47000842099084L1401.6363021768475,35.56811486932344L1402.8445603934385,34.14769747019102L1405.2610768266206,39.533290835107664L1414.9271425593488,36.52680304966151L1416.1354007759398,34.72291037839375L1417.343658992531,37.799137311897255L1418.551917209122,37.56559220386731L1422.176691858895,35.34618387091729L1423.3849500754861,34.014538871147295L1424.5932082920772,35.294833139417335L1428.2179829418503,38.14229096851136L1429.4262411584414,35.69220312970373L1430.6344993750324,38.38071296268316L1434.2592740248056,39.9938188624709L1448.758372623898,40.96168240234351L1452.3831472736713,39.463119258135066L1454.7996637068534,36.484700103477905L1456.0079219234442,34.69764861068364L1458.4244383566263,33.625417715007075L1459.6326965732173,32.98207917760112L1463.2574712229905,36.75463859142167L1466.8822458727636,34.8596117034499L1468.0905040893547,35.801876838798876L1469.2987623059457,34.28795465187619L1470.5070205225368,37.5381638759867L1471.7152787391278,37.40900814232094L1472.9235369557189,35.25223343398949L1474.13179517231,33.95816860899055L1475.3400533889007,39.41957351838738L1477.7565698220828,36.45857265962928L1480.173086255265,36.761253412506505L1481.3813444718562,34.8635805961008L1483.7978609050383,39.962820710653546L1486.2143773382204,38.863802243121086L1488.6308937714025,36.125109894469574L1489.8391519879933,36.56117575341074L1491.0474102045844,36.82281526877529L1492.2556684211754,39.05908024612614L1493.4639266377665,36.2422766962726L1494.6721848543575,34.55219456636047L1499.5052177207217,35.61742655654518L1505.546508803677,34.17728448252399L1506.754767020268,35.39248050624332L1509.1712834534499,34.04231685234288L1510.3795416700411,37.39078119626669L1515.2125745364053,35.24129726635692L1516.4208327529961,36.03088817654316L1517.6290909695874,36.50464272265475L1520.0456074027695,34.70961418218974L1523.6703820525424,35.71187832604278L1527.2951567023156,34.23395554422251L1529.7116731354977,35.42648314326243L1532.1281895686798,34.06271843455437L1533.3364477852708,33.24445960932951L1535.752964218453,34.832785582326665L1536.961222435044,33.7064998979929L1540.585997084817,35.110009755524686L1541.7942553014082,35.95211567004367L1543.002513517999,40.615941755019264L1545.419029951181,37.176393601608424L1546.6272881677723,41.35050851395812L1547.8355463843632,37.61713365697176L1550.2520628175453,37.456390010911946L1551.4603210341365,35.28066255514403L1552.6685792507274,33.97522608168333L1553.8768374673186,37.35052673387099L1555.0850956839095,37.296425857051474L1556.2933539005007,37.26396533095982L1562.3346449834557,37.24448901530485L1563.5429032000468,37.23280322591188L1565.959419633229,39.30507302040809L1570.792452499593,42.62771616523793L1572.0007107161841,40.462739515871704L1574.4172271493662,39.16375352625198L1579.2502600157302,38.38436193248015L1581.6667764489123,37.91672697621698L1584.0832928820946,35.556864734327064" style="fill: none;" fill="none"></path></g></g></g></g><g opacity="0.2"><g><g><g><path stroke="rgb(255, 112, 67)" stroke-width="2px" d="M32.67974277919881,354.30597776930875L33.88800099578985,338.71135276645094L38.721033862154016,338.71135276645094L39.92929207874506,369.90060277216656L42.34580851192714,349.10777459897866L43.55406672851818,297.12568092820766L44.76232494510922,281.5310714172173L47.1788413782913,302.3238995904052L48.387099594882336,317.918524593263L49.595357811473384,260.7382277521619L50.80361602806442,239.9453840871065L55.63664889442858,219.152571405786L66.51097284374795,239.9453840871065L67.71923106033898,245.1436182411715L70.13574749352107,234.7471809167764L73.76052214329418,208.75613408139088L74.96878035988523,187.96332140007038L77.38529679306731,203.55793091106074L79.8018132262494,167.170477735015L81.01007144284043,151.57586822402462L83.42658787602251,182.76511822974024L85.84310430920459,213.9543682354559L87.05136252579562,187.96332140007038L90.67613717556874,141.1794308996295L91.88439539215979,125.58482138863914L93.09265360875082,177.56688407567526L94.30091182534187,151.57586822402462L95.50917004193292,135.98122772929938L99.13394469170603,161.97227456468488L100.34220290829708,172.36868090534512L102.75871934147915,99.59377455325364L105.17523577466125,135.98122772929938L106.38349399125228,120.38661821830902L107.59175220784331,115.18841504797888L108.80001042443436,135.98122772929938L112.42478507420748,130.78302455896923L113.63304329079853,99.59377455325364L114.84130150738957,120.38661821830902L116.0495597239806,104.79197772358373L118.46607615716269,115.18841504797888L122.0908508069358,94.39557138292349L128.132141889891,89.1973682125934L129.34040010648204,104.79197772358373L130.54865832307308,68.40452454753802L131.75691653966413,73.6027277178681L132.96517475625515,52.809915036547636L134.1734329728462,63.20632137720787L140.2147240558014,78.80093088819825L149.8807897885297,83.99916504226326L153.50556443830283,94.39557138292349L154.71382265489387,68.40452454753802L163.17163017103118,68.40452454753802L166.7964048208043,47.61168088248263L169.21292125398637,42.413477712152485L170.4211794705774,63.20632137720787L171.62943768716846,73.6027277178681L176.46247055353263,58.008118206877725L177.67072877012367,42.413477712152485L178.87898698671472,63.20632137720787L182.50376163648784,52.809915036547636L183.71201985307886,42.413477712152485L187.336794502852,47.61168088248263L192.16982736921614,37.21527454182234L194.58634380239823,52.809915036547636L197.0028602355803,47.61168088248263L198.21111845217138,42.413477712152485L199.41937666876237,58.008118206877725L200.62763488535342,47.61168088248263L205.4606677517176,52.809915036547636L207.87718418489965,42.413477712152485L211.5019588346728,52.809915036547636L212.71021705126384,37.21527454182234L213.9184752678549,58.008118206877725L216.33499170103693,68.40452454753802L217.54324991762797,42.413477712152485L218.75150813421902,37.21527454182234L222.37628278399217,42.413477712152485L224.7927992171742,32.01707137149225L226.00105743376525,32.01707137149225L228.41757386694735,37.21527454182234L229.6258320835384,47.61168088248263L233.25060673331149,42.413477712152485L239.29189781626673,32.01707137149225L240.50015603285777,58.008118206877725L241.7084142494488,47.61168088248263L244.12493068263086,58.008118206877725L245.3331888992219,52.809915036547636L247.749705332404,37.21527454182234L250.16622176558607,37.21527454182234L251.37447998217712,52.809915036547636L252.58273819876817,42.413477712152485L253.7909964153592,47.61168088248263L256.2075128485413,47.61168088248263L257.41577106513233,37.21527454182234L265.8735785812696,47.61168088248263L270.70661144763375,37.21527454182234L275.5396443139979,42.413477712152485L276.74790253058893,42.413477712152485L277.95616074718,42.413477712152485L282.78919361354417,37.21527454182234L286.41396826331726,37.21527454182234L290.0387429130904,42.413477712152485L291.24700112968145,37.21527454182234L294.87177577945454,42.413477712152485L296.0800339960456,37.21527454182234L298.4965504292277,42.413477712152485L299.70480864581873,42.413477712152485L300.9130668624098,52.809915036547636L303.3295832955919,37.21527454182234L304.5378415121829,42.413477712152485L306.95435794536496,37.21527454182234L308.162616161956,42.413477712152485L309.37087437854706,47.61168088248263L312.9956490283202,42.413477712152485L316.6204236780933,37.21527454182234L322.66171476104853,32.01707137149225L325.0782311942306,47.61168088248263L327.49474762741266,52.809915036547636L328.7030058440037,42.413477712152485L334.74429692695895,58.008118206877725L338.36907157673204,32.01707137149225L339.5773297933231,47.61168088248263L340.78558800991414,42.413477712152485L341.9938462265052,37.21527454182234L344.4103626596872,58.008118206877725L349.2433955260514,42.413477712152485L351.6599119592335,32.01707137149225L354.07642839241555,47.61168088248263L356.49294482559765,32.01707137149225L362.53423590855283,37.21527454182234L364.9507523417349,52.809915036547636L369.78378520809906,52.809915036547636L375.8250762910543,52.809915036547636L378.24159272423634,42.413477712152485L379.4498509408274,47.61168088248263L383.07462559060053,37.21527454182234L385.49114202378263,52.809915036547636L386.6994002403736,42.413477712152485L387.90765845696467,37.21527454182234L390.32417489014676,37.21527454182234L391.5324331067378,32.01707137149225L392.74069132332886,42.413477712152485L397.57372418969305,37.21527454182234L398.7819824062841,42.413477712152485L401.1984988394661,47.61168088248263L404.8232734892392,37.21527454182234L409.6563063556034,37.21527454182234L410.86456457219447,37.21527454182234L412.0728227887855,42.413477712152485L413.28108100537656,32.01707137149225L415.69759743855866,47.61168088248263L419.3223720883317,42.413477712152485L420.53063030492274,47.61168088248263L421.7388885215138,42.413477712152485L425.36366317128693,52.809915036547636L426.571921387878,32.01707137149225L428.9884378210601,42.413477712152485L436.23798712060625,37.21527454182234L438.65450355378835,52.809915036547636L442.2792782035615,47.61168088248263L443.48753642015254,37.21527454182234L445.90405285333463,32.01707137149225L447.1123110699257,47.61168088248263L453.1536021528808,32.01707137149225L454.36186036947186,42.413477712152485L456.77837680265395,58.008118206877725L459.19489323583605,42.413477712152485L460.4031514524271,47.61168088248263L461.61140966901814,37.21527454182234L465.2361843187913,37.21527454182234L466.44444253538234,42.413477712152485L470.0692171851554,32.01707137149225L471.27747540174647,42.413477712152485L473.6939918349285,37.21527454182234L474.90225005151956,47.61168088248263L477.31876648470165,47.61168088248263L482.15179935106585,42.413477712152485L483.3600575676569,32.01707137149225L484.5683157842479,58.008118206877725L486.98483221743,42.413477712152485L488.19309043402103,63.20632137720787L491.8178650837942,37.21527454182234L493.0261233003852,37.21527454182234L494.2343815169762,37.21527454182234L495.44263973356726,32.01707137149225L497.85915616674936,32.01707137149225L499.0674143833404,37.21527454182234L500.27567259993145,37.21527454182234L501.48393081652245,47.61168088248263L512.3582547658418,42.413477712152485L513.5665129824329,52.809915036547636L515.983029415615,42.413477712152485L519.607804065388,32.01707137149225L528.0656115815253,37.21527454182234L529.2738697981164,42.413477712152485L534.1069026644806,32.01707137149225L535.3151608810716,37.21527454182234L536.5234190976626,32.01707137149225L538.9399355308447,47.61168088248263L541.3564519640267,37.21527454182234L546.1894848303909,42.413477712152485L557.0638087797103,42.413477712152485L558.2720669963013,32.01707137149225L559.4803252128924,32.01707137149225L560.6885834294834,37.21527454182234L563.1050998626655,37.21527454182234L564.3133580792565,32.01707137149225L567.9381327290297,47.61168088248263L571.5629073788028,37.21527454182234L580.02071489494,32.01707137149225L581.2289731115311,32.01707137149225L582.4372313281222,32.01707137149225L583.6454895447132,37.21527454182234L586.0620059778953,32.01707137149225L587.2702641944863,37.21527454182234L588.4785224110774,37.21527454182234L590.8950388442595,42.413477712152485L592.1032970608505,32.01707137149225L593.3115552774416,42.413477712152485L595.7280717106237,42.413477712152485L598.1445881438058,37.21527454182234L599.3528463603967,32.01707137149225L604.1858792267609,42.413477712152485L612.6436867428982,37.21527454182234L616.2684613926714,42.413477712152485L617.4767196092624,32.01707137149225L619.8932360424445,37.21527454182234L622.3097524756265,37.21527454182234L625.9345271253997,37.21527454182234L639.2253675079011,42.413477712152485L642.8501421576742,37.21527454182234L644.0584003742653,42.413477712152485L645.2666585908563,32.01707137149225L647.6831750240384,37.21527454182234L650.0996914572205,42.413477712152485L651.3079496738115,32.01707137149225L653.7244661069936,42.413477712152485L659.7657571899488,47.61168088248263L660.9740154065398,37.21527454182234L668.2235647060861,42.413477712152485L670.6400811392682,32.01707137149225L671.8483393558593,32.01707137149225L673.0565975724502,37.21527454182234L674.2648557890412,47.61168088248263L675.4731140056323,58.008118206877725L676.6813722222233,42.413477712152485L677.8896304388144,42.413477712152485L679.0978886554054,37.21527454182234L680.3061468719965,42.413477712152485L681.5144050885875,42.413477712152485L683.9309215217696,37.21527454182234L687.5556961715428,32.01707137149225L688.7639543881338,37.21527454182234L689.9722126047247,32.01707137149225L692.3887290379068,52.809915036547636L697.221761904271,32.01707137149225L699.6382783374531,37.21527454182234L702.0547947706352,37.21527454182234L706.8878276369993,32.01707137149225L708.0960858535904,37.21527454182234L709.3043440701814,37.21527454182234L711.7208605033635,37.21527454182234L714.1373769365456,42.413477712152485L716.5538933697277,32.01707137149225L718.9704098029098,73.6027277178681L720.1786680195008,42.413477712152485L723.8034426692739,42.413477712152485L726.219959102456,37.21527454182234L727.428217319047,37.21527454182234L728.636475535638,68.40452454753802L729.8447337522291,37.21527454182234L731.0529919688202,47.61168088248263L732.2612501854112,37.21527454182234L734.6777666185933,32.01707137149225L735.8860248351843,42.413477712152485L741.9273159181395,37.21527454182234L743.1355741347305,47.61168088248263L745.5520905679126,37.21527454182234L746.7603487845037,52.809915036547636L747.9686070010947,32.01707137149225L751.5933816508679,42.413477712152485L754.00989808405,37.21527454182234L756.426414517232,47.61168088248263L758.842930950414,32.01707137149225L761.2594473835961,32.01707137149225L763.6759638167782,47.61168088248263L764.8842220333693,32.01707137149225L766.0924802499603,32.01707137149225L769.7172548997335,32.01707137149225L774.5502877660977,52.809915036547636L775.7585459826886,42.413477712152485L778.1750624158707,42.413477712152485L779.3833206324617,32.01707137149225L781.7998370656438,47.61168088248263L786.632869932008,32.01707137149225L792.6741610149633,42.413477712152485L801.1319685311005,58.008118206877725L802.3402267476914,37.21527454182234L804.7567431808735,32.01707137149225L805.9650013974647,42.413477712152485L807.1732596140556,32.01707137149225L808.3815178306468,37.21527454182234L809.5897760472377,47.61168088248263L810.7980342638289,42.413477712152485L813.214550697011,37.21527454182234L814.4228089136019,37.21527454182234L819.2558417799661,47.61168088248263L820.464099996557,42.413477712152485L822.8806164297391,47.61168088248263L825.2971328629212,32.01707137149225L828.9219075126945,32.01707137149225L831.3384239458766,37.21527454182234L832.5466821624675,37.21527454182234L833.7549403790587,47.61168088248263L837.3797150288317,37.21527454182234L838.5879732454226,37.21527454182234L839.7962314620138,37.21527454182234L841.0044896786047,37.21527454182234L842.2127478951959,32.01707137149225L844.629264328378,37.21527454182234L845.8375225449689,37.21527454182234L847.0457807615601,42.413477712152485L849.4622971947422,63.20632137720787L850.6705554113331,32.01707137149225L851.878813627924,32.01707137149225L853.0870718445152,37.21527454182234L854.2953300611061,37.21527454182234L855.5035882776973,32.01707137149225L857.9201047108794,42.413477712152485L859.1283629274703,37.21527454182234L862.7531375772436,37.21527454182234L867.5861704436078,42.413477712152485L871.2109450933808,42.413477712152485L872.4192033099717,32.01707137149225L873.6274615265629,32.01707137149225L876.043977959745,42.413477712152485L877.2522361763359,37.21527454182234L878.4604943929271,42.413477712152485L879.668752609518,32.01707137149225L882.0852690427001,37.21527454182234L883.2935272592913,42.413477712152485L884.5017854758822,32.01707137149225L889.3348183422464,32.01707137149225L894.1678512086106,32.01707137149225L895.3761094252015,37.21527454182234L897.7926258583836,42.413477712152485L899.0008840749748,32.01707137149225L900.2091422915657,37.21527454182234L901.4174005081569,47.61168088248263L902.6256587247478,32.01707137149225L903.8339169413389,37.21527454182234L907.458691591112,37.21527454182234L908.6669498077031,32.01707137149225L915.9164991072493,37.21527454182234L918.3330155404313,37.21527454182234L919.5412737570225,32.01707137149225L920.7495319736134,32.01707137149225L921.9577901902045,42.413477712152485L924.3743066233866,42.413477712152485L927.9990812731597,42.413477712152485L929.2073394897508,42.413477712152485L932.8321141395239,42.413477712152485L934.0403723561149,32.01707137149225L935.248630572706,42.413477712152485L937.665147005888,47.61168088248263L940.0816634390701,32.01707137149225L943.7064380888432,47.61168088248263L944.9146963054343,32.01707137149225L947.3312127386164,32.01707137149225L950.9559873883895,47.61168088248263L952.1642456049806,47.61168088248263L953.3725038215716,42.413477712152485L955.7890202547536,32.01707137149225L956.9972784713447,32.01707137149225L958.2055366879357,32.01707137149225L960.6220531211178,32.01707137149225L961.8303113377088,32.01707137149225L963.0385695542999,58.008118206877725L969.0798606372551,37.21527454182234L973.9128935036192,37.21527454182234L975.1211517202104,47.61168088248263L977.5376681533924,37.21527454182234L979.9541845865745,37.21527454182234L982.3707010197566,42.413477712152485L983.5789592363476,32.01707137149225L984.7872174529386,42.413477712152485L985.9954756695297,32.01707137149225L987.2037338861207,32.01707137149225L988.4119921027118,37.21527454182234L990.8285085358939,42.413477712152485L993.245024969076,32.01707137149225L995.6615414022581,32.01707137149225L999.2863160520311,42.413477712152485L1001.7028324852132,37.21527454182234L1002.9110907018043,32.01707137149225L1004.1193489183953,37.21527454182234L1008.9523817847595,37.21527454182234L1011.3688982179416,37.21527454182234L1012.5771564345325,37.21527454182234L1014.9936728677146,37.21527454182234L1018.6184475174878,42.413477712152485L1021.0349639506699,32.01707137149225L1022.2432221672609,37.21527454182234L1023.4514803838518,42.413477712152485L1027.076255033625,32.01707137149225L1030.701029683398,42.413477712152485L1031.9092878999893,37.21527454182234L1034.3258043331714,37.21527454182234L1036.7423207663535,42.413477712152485L1039.1588371995356,37.21527454182234L1045.2001282824906,37.21527454182234L1047.6166447156727,32.01707137149225L1048.8249029322637,42.413477712152485L1050.0331611488548,37.21527454182234L1051.2414193654458,37.21527454182234L1054.866194015219,42.413477712152485L1062.115743314765,37.21527454182234L1064.5322597479471,37.21527454182234L1065.7405179645384,37.21527454182234L1066.9487761811292,32.01707137149225L1068.1570343977205,52.809915036547636L1069.3652926143113,32.01707137149225L1074.1983254806755,37.21527454182234L1076.6148419138576,37.21527454182234L1077.8231001304487,42.413477712152485L1081.4478747802218,42.413477712152485L1082.6561329968129,37.21527454182234L1083.864391213404,42.413477712152485L1085.072649429995,52.809915036547636L1086.280907646586,42.413477712152485L1088.697424079768,32.01707137149225L1089.9056822963591,42.413477712152485L1091.1139405129502,37.21527454182234L1092.3221987295412,32.01707137149225L1094.7387151627233,47.61168088248263L1098.3634898124965,32.01707137149225L1100.7800062456784,32.01707137149225L1101.9882644622696,37.21527454182234L1104.4047808954517,52.809915036547636L1105.6130391120425,37.21527454182234L1109.2378137618157,42.413477712152485L1110.4460719784067,42.413477712152485L1112.8625884115888,42.413477712152485L1114.0708466281799,37.21527454182234L1122.5286541443172,47.61168088248263L1123.7369123609083,32.01707137149225L1124.9451705774993,37.21527454182234L1126.1534287940904,42.413477712152485L1127.3616870106814,32.01707137149225L1128.5699452272725,32.01707137149225L1129.7782034438635,37.21527454182234L1132.1947198770456,37.21527454182234L1133.4029780936366,42.413477712152485L1134.6112363102277,42.413477712152485L1138.2360109600008,47.61168088248263L1139.444269176592,37.21527454182234L1140.652527393183,37.21527454182234L1141.860785609774,37.21527454182234L1144.2773020429559,32.01707137149225L1151.5268513425021,32.01707137149225L1152.7351095590932,42.413477712152485L1153.9433677756842,42.413477712152485L1156.3598842088663,37.21527454182234L1161.1929170752305,37.21527454182234L1164.8176917250037,47.61168088248263L1168.4424663747768,32.01707137149225L1173.275499241141,42.413477712152485L1176.900273890914,37.21527454182234L1178.1085321075052,52.809915036547636L1179.316790324096,37.21527454182234L1181.7333067572781,37.21527454182234L1182.9415649738694,37.21527454182234L1184.1498231904602,37.21527454182234L1187.7745978402334,42.413477712152485L1188.9828560568244,32.01707137149225L1191.3993724900065,37.21527454182234L1193.8158889231886,42.413477712152485L1195.0241471397796,37.21527454182234L1197.4406635729617,47.61168088248263L1199.8571800061438,37.21527454182234L1201.0654382227349,37.21527454182234L1203.481954655917,47.61168088248263L1205.898471089099,32.01707137149225L1207.1067293056901,32.01707137149225L1208.3149875222812,42.413477712152485L1209.5232457388722,37.21527454182234L1213.1480203886451,37.21527454182234L1214.3562786052364,37.21527454182234L1215.5645368218272,32.01707137149225L1219.1893114716006,37.21527454182234L1220.3975696881914,42.413477712152485L1230.0636354209198,47.61168088248263L1233.688410070693,42.413477712152485L1234.896668287284,32.01707137149225L1237.3131847204659,47.61168088248263L1239.729701153648,47.61168088248263L1240.937959370239,42.413477712152485L1244.5627340200122,42.413477712152485L1245.7709922366032,42.413477712152485L1248.1875086697853,52.809915036547636L1249.3957668863764,32.01707137149225L1250.6040251029674,47.61168088248263L1251.8122833195582,47.61168088248263L1255.4370579693316,32.01707137149225L1265.10312370206,32.01707137149225L1266.3113819186508,37.21527454182234L1267.519640135242,32.01707137149225L1269.936156568424,32.01707137149225L1272.352673001606,37.21527454182234L1273.560931218197,42.413477712152485L1274.7691894347881,32.01707137149225L1277.1857058679702,37.21527454182234L1279.6022223011523,37.21527454182234L1280.8104805177434,42.413477712152485L1282.0187387343344,37.21527454182234L1285.6435133841076,37.21527454182234L1286.8517716006986,37.21527454182234L1288.0600298172894,32.01707137149225L1294.101320900245,47.61168088248263L1296.517837333427,32.01707137149225L1297.7260955500178,37.21527454182234L1300.1426119832,32.01707137149225L1301.3508701997912,42.413477712152485L1303.767386632973,37.21527454182234L1311.0169359325193,37.21527454182234L1312.2251941491104,32.01707137149225L1314.6417105822925,32.01707137149225L1317.0582270154746,37.21527454182234L1321.8912598818388,32.01707137149225L1324.3077763150209,37.21527454182234L1326.724292748203,32.01707137149225L1329.1408091813848,42.413477712152485L1331.557325614567,37.21527454182234L1333.973842047749,42.413477712152485L1335.1821002643403,32.01707137149225L1336.3903584809311,32.01707137149225L1337.5986166975222,37.21527454182234L1338.8068749141132,32.01707137149225L1343.6399077804774,32.01707137149225L1346.0564242136595,37.21527454182234L1347.2646824302506,42.413477712152485L1354.5142317297968,37.21527454182234L1356.930748162979,37.21527454182234L1359.347264596161,42.413477712152485L1360.555522812752,47.61168088248263L1361.7637810293431,32.01707137149225L1369.0133303288894,37.21527454182234L1372.6381049786623,32.01707137149225L1375.0546214118444,32.01707137149225L1378.6793960616176,37.21527454182234L1382.3041707113907,32.01707137149225L1383.5124289279818,32.01707137149225L1385.9289453611639,42.413477712152485L1387.137203577755,37.21527454182234L1388.345461794346,37.21527454182234L1389.553720010937,32.01707137149225L1391.970236444119,37.21527454182234L1393.1784946607102,37.21527454182234L1395.5950110938923,42.413477712152485L1396.8032693104833,32.01707137149225L1398.0115275270743,32.01707137149225L1401.6363021768475,37.21527454182234L1402.8445603934385,32.01707137149225L1405.2610768266206,47.61168088248263L1414.9271425593488,32.01707137149225L1416.1354007759398,32.01707137149225L1417.343658992531,42.413477712152485L1418.551917209122,37.21527454182234L1422.176691858895,32.01707137149225L1423.3849500754861,32.01707137149225L1424.5932082920772,37.21527454182234L1428.2179829418503,42.413477712152485L1429.4262411584414,32.01707137149225L1430.6344993750324,42.413477712152485L1434.2592740248056,42.413477712152485L1448.758372623898,42.413477712152485L1452.3831472736713,37.21527454182234L1454.7996637068534,32.01707137149225L1456.0079219234442,32.01707137149225L1458.4244383566263,32.01707137149225L1459.6326965732173,32.01707137149225L1463.2574712229905,42.413477712152485L1466.8822458727636,32.01707137149225L1468.0905040893547,37.21527454182234L1469.2987623059457,32.01707137149225L1470.5070205225368,42.413477712152485L1471.7152787391278,37.21527454182234L1472.9235369557189,32.01707137149225L1474.13179517231,32.01707137149225L1475.3400533889007,47.61168088248263L1477.7565698220828,32.01707137149225L1480.173086255265,37.21527454182234L1481.3813444718562,32.01707137149225L1483.7978609050383,47.61168088248263L1486.2143773382204,37.21527454182234L1488.6308937714025,32.01707137149225L1489.8391519879933,37.21527454182234L1491.0474102045844,37.21527454182234L1492.2556684211754,42.413477712152485L1493.4639266377665,32.01707137149225L1494.6721848543575,32.01707137149225L1499.5052177207217,37.21527454182234L1505.546508803677,32.01707137149225L1506.754767020268,37.21527454182234L1509.1712834534499,32.01707137149225L1510.3795416700411,42.413477712152485L1515.2125745364053,32.01707137149225L1516.4208327529961,37.21527454182234L1517.6290909695874,37.21527454182234L1520.0456074027695,32.01707137149225L1523.6703820525424,37.21527454182234L1527.2951567023156,32.01707137149225L1529.7116731354977,37.21527454182234L1532.1281895686798,32.01707137149225L1533.3364477852708,32.01707137149225L1535.752964218453,37.21527454182234L1536.961222435044,32.01707137149225L1540.585997084817,37.21527454182234L1541.7942553014082,37.21527454182234L1543.002513517999,47.61168088248263L1545.419029951181,32.01707137149225L1546.6272881677723,47.61168088248263L1547.8355463843632,32.01707137149225L1550.2520628175453,37.21527454182234L1551.4603210341365,32.01707137149225L1552.6685792507274,32.01707137149225L1553.8768374673186,42.413477712152485L1555.0850956839095,37.21527454182234L1556.2933539005007,37.21527454182234L1562.3346449834557,37.21527454182234L1563.5429032000468,37.21527454182234L1565.959419633229,42.413477712152485L1570.792452499593,47.61168088248263L1572.0007107161841,37.21527454182234L1574.4172271493662,37.21527454182234L1579.2502600157302,37.21527454182234L1581.6667764489123,37.21527454182234L1584.0832928820946,32.01707137149225" style="fill: none;" fill="none"></path></g></g></g></g></g></g><g transform="translate(42, 377)" clip-path="url(#clip_1)"><clipPath id="clip_1"><rect width="1581" height="23"></rect></clipPath><g><g><line x1="26.638451696243607" y1="0" x2="26.638451696243607" y2="5" style="visibility: inherit;" fill="rgb(0, 0, 0)" stroke="rgb(204, 204, 204)" stroke-width="1px"></line><line x1="147.46427335534764" y1="0" x2="147.46427335534764" y2="5" style="visibility: inherit;" fill="rgb(0, 0, 0)" stroke="rgb(204, 204, 204)" stroke-width="1px"></line><line x1="268.29009501445165" y1="0" x2="268.29009501445165" y2="5" style="visibility: inherit;" fill="rgb(0, 0, 0)" stroke="rgb(204, 204, 204)" stroke-width="1px"></line><line x1="389.1159166735557" y1="0" x2="389.1159166735557" y2="5" style="visibility: inherit;" fill="rgb(0, 0, 0)" stroke="rgb(204, 204, 204)" stroke-width="1px"></line><line x1="509.9417383326598" y1="0" x2="509.9417383326598" y2="5" style="visibility: inherit;" fill="rgb(0, 0, 0)" stroke="rgb(204, 204, 204)" stroke-width="1px"></line><line x1="630.7675599917638" y1="0" x2="630.7675599917638" y2="5" style="visibility: inherit;" fill="rgb(0, 0, 0)" stroke="rgb(204, 204, 204)" stroke-width="1px"></line><line x1="751.5933816508679" y1="0" x2="751.5933816508679" y2="5" style="visibility: inherit;" fill="rgb(0, 0, 0)" stroke="rgb(204, 204, 204)" stroke-width="1px"></line><line x1="872.4192033099717" y1="0" x2="872.4192033099717" y2="5" style="visibility: inherit;" fill="rgb(0, 0, 0)" stroke="rgb(204, 204, 204)" stroke-width="1px"></line><line x1="993.245024969076" y1="0" x2="993.245024969076" y2="5" style="visibility: inherit;" fill="rgb(0, 0, 0)" stroke="rgb(204, 204, 204)" stroke-width="1px"></line><line x1="1114.0708466281799" y1="0" x2="1114.0708466281799" y2="5" style="visibility: inherit;" fill="rgb(0, 0, 0)" stroke="rgb(204, 204, 204)" stroke-width="1px"></line><line x1="1234.896668287284" y1="0" x2="1234.896668287284" y2="5" style="visibility: inherit;" fill="rgb(0, 0, 0)" stroke="rgb(204, 204, 204)" stroke-width="1px"></line><line x1="1355.722489946388" y1="0" x2="1355.722489946388" y2="5" style="visibility: inherit;" fill="rgb(0, 0, 0)" stroke="rgb(204, 204, 204)" stroke-width="1px"></line><line x1="1476.548311605492" y1="0" x2="1476.548311605492" y2="5" style="visibility: inherit;" fill="rgb(0, 0, 0)" stroke="rgb(204, 204, 204)" stroke-width="1px"></line></g><g transform="translate(0, 8)"><text x="26.638451696243607" y="0" dx="0em" dy="0.95em" style="text-anchor: middle; visibility: inherit; font-family: &quot;Helvetica Neue&quot;, sans-serif; font-size: 12px; font-weight: 200;" fill="rgb(50, 49, 63)" stroke="none" stroke-width="1px">0</text><text x="147.46427335534764" y="0" dx="0em" dy="0.95em" style="text-anchor: middle; visibility: inherit; font-family: &quot;Helvetica Neue&quot;, sans-serif; font-size: 12px; font-weight: 200;" fill="rgb(50, 49, 63)" stroke="none" stroke-width="1px">100</text><text x="268.29009501445165" y="0" dx="0em" dy="0.95em" style="text-anchor: middle; visibility: inherit; font-family: &quot;Helvetica Neue&quot;, sans-serif; font-size: 12px; font-weight: 200;" fill="rgb(50, 49, 63)" stroke="none" stroke-width="1px">200</text><text x="389.1159166735557" y="0" dx="0em" dy="0.95em" style="text-anchor: middle; visibility: inherit; font-family: &quot;Helvetica Neue&quot;, sans-serif; font-size: 12px; font-weight: 200;" fill="rgb(50, 49, 63)" stroke="none" stroke-width="1px">300</text><text x="509.9417383326598" y="0" dx="0em" dy="0.95em" style="text-anchor: middle; visibility: inherit; font-family: &quot;Helvetica Neue&quot;, sans-serif; font-size: 12px; font-weight: 200;" fill="rgb(50, 49, 63)" stroke="none" stroke-width="1px">400</text><text x="630.7675599917638" y="0" dx="0em" dy="0.95em" style="text-anchor: middle; visibility: inherit; font-family: &quot;Helvetica Neue&quot;, sans-serif; font-size: 12px; font-weight: 200;" fill="rgb(50, 49, 63)" stroke="none" stroke-width="1px">500</text><text x="751.5933816508679" y="0" dx="0em" dy="0.95em" style="text-anchor: middle; visibility: inherit; font-family: &quot;Helvetica Neue&quot;, sans-serif; font-size: 12px; font-weight: 200;" fill="rgb(50, 49, 63)" stroke="none" stroke-width="1px">600</text><text x="872.4192033099717" y="0" dx="0em" dy="0.95em" style="text-anchor: middle; visibility: inherit; font-family: &quot;Helvetica Neue&quot;, sans-serif; font-size: 12px; font-weight: 200;" fill="rgb(50, 49, 63)" stroke="none" stroke-width="1px">700</text><text x="993.245024969076" y="0" dx="0em" dy="0.95em" style="text-anchor: middle; visibility: inherit; font-family: &quot;Helvetica Neue&quot;, sans-serif; font-size: 12px; font-weight: 200;" fill="rgb(50, 49, 63)" stroke="none" stroke-width="1px">800</text><text x="1114.0708466281799" y="0" dx="0em" dy="0.95em" style="text-anchor: middle; visibility: inherit; font-family: &quot;Helvetica Neue&quot;, sans-serif; font-size: 12px; font-weight: 200;" fill="rgb(50, 49, 63)" stroke="none" stroke-width="1px">900</text><text x="1234.896668287284" y="0" dx="0em" dy="0.95em" style="text-anchor: middle; visibility: inherit; font-family: &quot;Helvetica Neue&quot;, sans-serif; font-size: 12px; font-weight: 200;" fill="rgb(50, 49, 63)" stroke="none" stroke-width="1px">1k</text><text x="1355.722489946388" y="0" dx="0em" dy="0.95em" style="text-anchor: middle; visibility: inherit; font-family: &quot;Helvetica Neue&quot;, sans-serif; font-size: 12px; font-weight: 200;" fill="rgb(50, 49, 63)" stroke="none" stroke-width="1px">1.1k</text><text x="1476.548311605492" y="0" dx="0em" dy="0.95em" style="text-anchor: middle; visibility: inherit; font-family: &quot;Helvetica Neue&quot;, sans-serif; font-size: 12px; font-weight: 200;" fill="rgb(50, 49, 63)" stroke="none" stroke-width="1px">1.2k</text></g><line x1="0" y1="0" x2="1581.809375" y2="0" fill="rgb(0, 0, 0)" stroke="rgb(204, 204, 204)" stroke-width="1px"></line></g></g></g></g></svg>