<svg viewBox="0 0 1641 400" xmlns="http://www.w3.org/2000/svg"><g><g><g><g><g><line x1="63.984375" y1="347.8840439914297" x2="58.984375" y2="347.8840439914297" style="visibility: inherit;" fill="rgb(0, 0, 0)" stroke="rgb(204, 204, 204)" stroke-width="1px"></line><line x1="63.984375" y1="308.2568004225984" x2="58.984375" y2="308.2568004225984" style="visibility: inherit;" fill="rgb(0, 0, 0)" stroke="rgb(204, 204, 204)" stroke-width="1px"></line><line x1="63.984375" y1="268.6295568537671" x2="58.984375" y2="268.6295568537671" style="visibility: inherit;" fill="rgb(0, 0, 0)" stroke="rgb(204, 204, 204)" stroke-width="1px"></line><line x1="63.984375" y1="229.00231328493584" x2="58.984375" y2="229.00231328493584" style="visibility: inherit;" fill="rgb(0, 0, 0)" stroke="rgb(204, 204, 204)" stroke-width="1px"></line><line x1="63.984375" y1="189.3750697161046" x2="58.984375" y2="189.3750697161046" style="visibility: inherit;" fill="rgb(0, 0, 0)" stroke="rgb(204, 204, 204)" stroke-width="1px"></line><line x1="63.984375" y1="149.74782614727334" x2="58.984375" y2="149.74782614727334" style="visibility: inherit;" fill="rgb(0, 0, 0)" stroke="rgb(204, 204, 204)" stroke-width="1px"></line><line x1="63.984375" y1="110.120582578442" x2="58.984375" y2="110.120582578442" style="visibility: inherit;" fill="rgb(0, 0, 0)" stroke="rgb(204, 204, 204)" stroke-width="1px"></line><line x1="63.984375" y1="70.49333900961079" x2="58.984375" y2="70.49333900961079" style="visibility: inherit;" fill="rgb(0, 0, 0)" stroke="rgb(204, 204, 204)" stroke-width="1px"></line><line x1="63.984375" y1="30.866095440779475" x2="58.984375" y2="30.866095440779475" style="visibility: inherit;" fill="rgb(0, 0, 0)" stroke="rgb(204, 204, 204)" stroke-width="1px"></line></g><g transform="translate(53.984375, 0)"><text x="0" y="347.8840439914297" dx="0em" dy="0.3em" style="text-anchor: end; visibility: inherit; font-family: &quot;Helvetica Neue&quot;, sans-serif; font-size: 12px; font-weight: 200;" fill="rgb(50, 49, 63)" stroke="none" stroke-width="1px">-0.01</text><text x="0" y="308.2568004225984" dx="0em" dy="0.3em" style="text-anchor: end; visibility: inherit; font-family: &quot;Helvetica Neue&quot;, sans-serif; font-size: 12px; font-weight: 200;" fill="rgb(50, 49, 63)" stroke="none" stroke-width="1px">0</text><text x="0" y="268.6295568537671" dx="0em" dy="0.3em" style="text-anchor: end; visibility: inherit; font-family: &quot;Helvetica Neue&quot;, sans-serif; font-size: 12px; font-weight: 200;" fill="rgb(50, 49, 63)" stroke="none" stroke-width="1px">0.01</text><text x="0" y="229.00231328493584" dx="0em" dy="0.3em" style="text-anchor: end; visibility: inherit; font-family: &quot;Helvetica Neue&quot;, sans-serif; font-size: 12px; font-weight: 200;" fill="rgb(50, 49, 63)" stroke="none" stroke-width="1px">0.02</text><text x="0" y="189.3750697161046" dx="0em" dy="0.3em" style="text-anchor: end; visibility: inherit; font-family: &quot;Helvetica Neue&quot;, sans-serif; font-size: 12px; font-weight: 200;" fill="rgb(50, 49, 63)" stroke="none" stroke-width="1px">0.03</text><text x="0" y="149.74782614727334" dx="0em" dy="0.3em" style="text-anchor: end; visibility: inherit; font-family: &quot;Helvetica Neue&quot;, sans-serif; font-size: 12px; font-weight: 200;" fill="rgb(50, 49, 63)" stroke="none" stroke-width="1px">0.04</text><text x="0" y="110.120582578442" dx="0em" dy="0.3em" style="text-anchor: end; visibility: inherit; font-family: &quot;Helvetica Neue&quot;, sans-serif; font-size: 12px; font-weight: 200;" fill="rgb(50, 49, 63)" stroke="none" stroke-width="1px">0.05</text><text x="0" y="70.49333900961079" dx="0em" dy="0.3em" style="text-anchor: end; visibility: inherit; font-family: &quot;Helvetica Neue&quot;, sans-serif; font-size: 12px; font-weight: 200;" fill="rgb(50, 49, 63)" stroke="none" stroke-width="1px">0.06</text><text x="0" y="30.866095440779475" dx="0em" dy="0.3em" style="text-anchor: end; visibility: inherit; font-family: &quot;Helvetica Neue&quot;, sans-serif; font-size: 12px; font-weight: 200;" fill="rgb(50, 49, 63)" stroke="none" stroke-width="1px">0.07</text></g><line x1="63.984375" y1="0" x2="63.984375" y2="377" fill="rgb(0, 0, 0)" stroke="rgb(204, 204, 204)" stroke-width="1px"></line></g></g><g transform="translate(63, 0)" clip-path="url(#clip_0)"><clipPath id="clip_0"><rect width="1577" height="377"></rect></clipPath><g><g><g><line x1="9.294672305760946" y1="0" x2="9.294672305760946" y2="377" fill="rgb(0, 0, 0)" stroke="rgb(60, 60, 60)" stroke-width="1px" opacity="0.25"></line><line x1="119.80357112756057" y1="0" x2="119.80357112756057" y2="377" fill="rgb(0, 0, 0)" stroke="rgb(60, 60, 60)" stroke-width="1px" opacity="0.25"></line><line x1="230.31246994936018" y1="0" x2="230.31246994936018" y2="377" fill="rgb(0, 0, 0)" stroke="rgb(60, 60, 60)" stroke-width="1px" opacity="0.25"></line><line x1="340.8213687711598" y1="0" x2="340.8213687711598" y2="377" fill="rgb(0, 0, 0)" stroke="rgb(60, 60, 60)" stroke-width="1px" opacity="0.25"></line><line x1="451.33026759295944" y1="0" x2="451.33026759295944" y2="377" fill="rgb(0, 0, 0)" stroke="rgb(60, 60, 60)" stroke-width="1px" opacity="0.25"></line><line x1="561.8391664147591" y1="0" x2="561.8391664147591" y2="377" fill="rgb(0, 0, 0)" stroke="rgb(60, 60, 60)" stroke-width="1px" opacity="0.25"></line><line x1="672.3480652365587" y1="0" x2="672.3480652365587" y2="377" fill="rgb(0, 0, 0)" stroke="rgb(60, 60, 60)" stroke-width="1px" opacity="0.25"></line><line x1="782.8569640583584" y1="0" x2="782.8569640583584" y2="377" fill="rgb(0, 0, 0)" stroke="rgb(60, 60, 60)" stroke-width="1px" opacity="0.25"></line><line x1="893.3658628801579" y1="0" x2="893.3658628801579" y2="377" fill="rgb(0, 0, 0)" stroke="rgb(60, 60, 60)" stroke-width="1px" opacity="0.25"></line><line x1="1003.8747617019576" y1="0" x2="1003.8747617019576" y2="377" fill="rgb(0, 0, 0)" stroke="rgb(60, 60, 60)" stroke-width="1px" opacity="0.25"></line><line x1="1114.383660523757" y1="0" x2="1114.383660523757" y2="377" fill="rgb(0, 0, 0)" stroke="rgb(60, 60, 60)" stroke-width="1px" opacity="0.25"></line><line x1="1224.892559345557" y1="0" x2="1224.892559345557" y2="377" fill="rgb(0, 0, 0)" stroke="rgb(60, 60, 60)" stroke-width="1px" opacity="0.25"></line><line x1="1335.4014581673564" y1="0" x2="1335.4014581673564" y2="377" fill="rgb(0, 0, 0)" stroke="rgb(60, 60, 60)" stroke-width="1px" opacity="0.25"></line><line x1="1445.910356989156" y1="0" x2="1445.910356989156" y2="377" fill="rgb(0, 0, 0)" stroke="rgb(60, 60, 60)" stroke-width="1px" opacity="0.25"></line><line x1="1556.4192558109557" y1="0" x2="1556.4192558109557" y2="377" fill="rgb(0, 0, 0)" stroke="rgb(60, 60, 60)" stroke-width="1px" opacity="0.25"></line></g><g><line x1="0" y1="347.8840439914297" x2="1577.015625" y2="347.8840439914297" fill="rgb(0, 0, 0)" stroke="rgb(60, 60, 60)" stroke-width="1px" opacity="0.25"></line><line x1="0" y1="308.2568004225984" x2="1577.015625" y2="308.2568004225984" fill="rgb(0, 0, 0)" stroke="rgb(60, 60, 60)" stroke-width="1px" opacity="0.25"></line><line x1="0" y1="268.6295568537671" x2="1577.015625" y2="268.6295568537671" fill="rgb(0, 0, 0)" stroke="rgb(60, 60, 60)" stroke-width="1px" opacity="0.25"></line><line x1="0" y1="229.00231328493584" x2="1577.015625" y2="229.00231328493584" fill="rgb(0, 0, 0)" stroke="rgb(60, 60, 60)" stroke-width="1px" opacity="0.25"></line><line x1="0" y1="189.3750697161046" x2="1577.015625" y2="189.3750697161046" fill="rgb(0, 0, 0)" stroke="rgb(60, 60, 60)" stroke-width="1px" opacity="0.25"></line><line x1="0" y1="149.74782614727334" x2="1577.015625" y2="149.74782614727334" fill="rgb(0, 0, 0)" stroke="rgb(60, 60, 60)" stroke-width="1px" opacity="0.25"></line><line x1="0" y1="110.120582578442" x2="1577.015625" y2="110.120582578442" fill="rgb(0, 0, 0)" stroke="rgb(60, 60, 60)" stroke-width="1px" opacity="0.25"></line><line x1="0" y1="70.49333900961079" x2="1577.015625" y2="70.49333900961079" fill="rgb(0, 0, 0)" stroke="rgb(60, 60, 60)" stroke-width="1px" opacity="0.25"></line><line x1="0" y1="30.866095440779475" x2="1577.015625" y2="30.866095440779475" fill="rgb(0, 0, 0)" stroke="rgb(60, 60, 60)" stroke-width="1px" opacity="0.25"></line></g></g></g><g><g><line x1="0" y1="308.2568004225984" x2="1577.015625" y2="308.2568004225984" fill="rgb(0, 0, 0)" stroke="rgb(153, 153, 153)" stroke-width="1.5px"></line></g></g><g><g><line x1="230.31246994936018" y1="0" x2="230.31246994936018" y2="377" fill="rgb(0, 0, 0)" stroke="rgb(153, 153, 153)" stroke-width="1.5px"></line></g></g><g><g><g><g><g><path stroke="rgb(255, 112, 67)" stroke-width="2px" d="M273.96348498397106,-31.12456805594229L276.72620745451604,0.7732364414267181L277.27875194862503,-12.335093952495527L277.831296442734,32.437127358136536L278.383840936843,53.9803225851162L278.93638543095204,99.22787916698888L279.48892992506103,95.98931385068772L282.251652395606,87.64510617379051L286.672008348478,85.67330862589819L288.32964183080503,70.23694145561166L288.882186324914,104.9418935626112L292.74999778367703,115.4294193752043L294.407631266004,156.6517536052584L295.51272025422196,185.1618815684349L296.065264748331,171.5001394028707L296.61780924244,148.09516304099287L298.82798721887593,160.54713150578206L299.380531712985,189.97727604228848L299.93307620709396,181.7623116453362L301.590709689421,184.88098237538333L302.14325418352996,200.17858691834175L303.800887665857,205.20883154343576L306.011065642293,225.51939023055436L307.11615463051095,213.64971841955997L308.2212436187289,219.77212705346474L308.7737881128379,227.36446649945213L309.32633260694695,203.94957176283896L309.87887710105593,213.3098524981L312.0890550774919,210.47500947649291L313.1941440657099,233.09119817610176L314.8517775480369,225.15241209893136L315.4043220421459,244.4638631180622L315.9568665362549,232.33780252579L317.0619555244729,200.04886246478685L317.6145000185819,218.87511169051882L318.1670445126909,238.8360692127497L319.8246779950179,242.61000203238666L320.9297669832359,263.46969632520364L321.48231147734487,278.50851521154374L322.5874004655629,273.51458993810644L323.1399449596719,265.24536314782597L324.7975784419989,263.47640148577665L327.5603009125439,277.0372023048503L328.11284540665287,241.12768408327798L328.66538990076185,228.8612558532303L329.7704788889799,214.93199888965037L330.32302338308887,210.04475405706296L331.42811237130684,238.50401514764133L332.53320135952487,254.71220999515782L333.08574585363385,240.0288862689501L333.63829034774284,253.16803856228677L334.1908348418519,246.04737174073477L335.29592383006985,239.08001070188624L335.84846832417884,253.92457726116396L339.71627978294185,247.04312151057616L341.92645775937785,265.76682585840496L344.13663573581385,263.2839951555688L344.6891802299228,259.01313429772205L345.2417247240318,256.8849054169018L347.4519027004678,266.5765869797992L349.1095361827948,271.08842226948855L350.7671696651218,267.9965751629477L351.3197141592308,274.58971855006325L352.9773476415578,275.1389436253103L353.5298921356668,276.62681128765735L354.63498112388476,277.1909496903187L355.1875256179938,266.5945508596364L355.7400701121027,245.69881318387345L356.84515910032076,261.59709916164024L357.3977035944298,260.87086874227015L358.50279258264777,268.5803158419601L359.05533707675676,262.63119455060837L359.60788157086574,251.84672952662643L361.26551505319276,254.8761550587736L362.9231485355198,265.0462414251051L365.68587100606476,281.0837358551381L366.79095999428273,262.46990558603784L367.8960489825007,240.70342848750676L368.44859347660974,244.65036714038197L371.21131594715473,220.77287732030686L372.8689494294817,255.18291024318032L373.42149392359073,250.1740837352089L373.9740384176997,257.20525835322456L374.5265829118087,269.3342064930924L375.63167190002673,236.7961458637989L377.84184987646273,245.6416511287882L378.9469388646807,270.391581996548L380.05202785289873,257.6839252151462L381.1571168411167,277.02361645236954L383.9198393116617,281.00881343622075L385.02492829987966,262.42222406190575L387.23510627631566,245.85672296279915L389.99782874686065,227.84769148886846L391.1029177350787,242.24771205514685L391.65546222918766,240.90768275852218L393.3130957115147,256.9969776117847L394.4181846997327,241.7348628270345L394.97072919384163,248.16767073771848L395.5232736879506,263.7614814887984L396.62836267616865,272.68572712740576L397.1809071702776,286.2701359453425L397.7334516643867,275.94597905013353L399.9436296408226,280.6823366777687L400.4961741349316,271.8762090251497L401.6012631231496,256.1021876591066L403.2588966054766,265.6700247635546L405.46907458191265,272.30362465717593L406.0216190760216,273.3714716820772L406.57416357013057,267.84515141577657L407.1267080642396,282.9327563881572L408.2317970524576,260.7135424028062L409.88943053478454,257.8434217283473L410.4419750288936,250.08744134630558L410.99451952300257,255.27786755300247L412.6521530053296,236.619790703237L413.2046974994386,264.1512768543659L414.30978648765654,262.4696049343543L417.6250534523105,271.7445563362919L418.73014244052854,248.87477438216754L420.38777592285555,240.78601825624006L420.9403204169646,259.5983398067483L422.0454094051825,278.85700506315953L422.59795389929155,261.00812775627685L425.3606763698365,279.4208997996271L425.9132208639456,269.2231163567465L427.0183098521635,233.9289508764713L428.1233988403815,244.17325128580788L428.67594333449057,244.18555025715764L429.22848782859955,261.03924924606446L430.8861213109265,271.8339806337173L431.4386658050355,272.7079469884484L433.09629928736246,285.679356313455L433.64884378147156,273.4148324855582L434.75393276968947,276.51948043390666L435.3064772637985,261.20507850767365L436.4115662520165,255.65146590152725L438.6217442284525,255.4645905837654L439.17428872256147,276.2732497880511L439.7268332166705,242.8910030833092L440.83192220488843,252.95769789124543L441.3844666989975,222.51096068687465L443.0421001813245,248.75617482885474L443.59464467543347,264.53373653072606L444.14718916954246,273.2495405470099L444.6997336636515,286.9982185012616L445.80482265186953,295.351619918555L446.35736714597846,289.51158938309345L446.90991164008744,288.3858836551769L447.4624561341965,266.6323225220658L452.4353565811775,269.11120457194545L452.98790107528646,244.37770654763227L454.09299006350443,250.8988442440442L455.75062354583144,273.71479573441565L459.6184350045944,276.7129422667644L460.17097949870345,266.6904811402132L462.3811574751394,283.2395403063034L462.9337019692484,282.22475056926754L463.4862464633574,292.06472670996305L464.59133545157545,268.4667799316021L465.69642443979336,274.5558012654014L467.9066024162294,273.7390579263697L472.8795028632104,267.09447382255667L473.43204735731933,283.4654476968059L473.98459185142843,293.2634639178055L474.53713634553736,288.51459875268256L475.6422253337554,285.7048536855866L476.1947698278644,292.4126824474943L477.85240331019133,269.8943435090151L479.51003679251835,276.92797944253L483.37784825128136,286.9925264172866L483.93039274539035,295.33510002577134L484.4829372394993,300.37048699633266L485.0354817336084,292.90024652998545L486.1405707218263,298.72520521856836L486.69311521593534,294.437217947199L487.2456597100443,291.0323833150675L488.35074869826235,276.4724121907301L488.9032931923713,288.580388210412L489.4558376864804,282.4427820885137L490.5609266746983,276.20715711231105L491.6660156629163,281.06486092056286L492.2185601570253,291.87667681217204L494.4287381334613,276.9309325783532L498.29654959222427,278.67262726880597L499.9541830745513,269.4423579508723L500.5067275686603,284.8778227200601L501.61181655687824,287.62677424587656L502.71690554509627,283.30246219549235L504.3745390274233,282.50055241077536L510.45252846262224,271.5128158558618L512.1101619449493,278.09916949876515L512.6627064390582,274.73665171369737L513.2152509331672,287.7712333464157L514.3203399213852,287.879402998283L515.4254289096032,277.29026457630675L515.9779734037122,289.5782016099853L517.0830623919302,278.34383951544066L519.8457848624752,259.5938354818486L520.3983293565842,268.38274331843763L523.7135963212382,264.5020065862852L524.8186853094562,281.9401480960546L525.3712298035653,292.3641603751838L525.9237742976742,290.5100243770977L526.4763187917831,268.3644264020469L527.0288632858923,233.49662425784297L527.5814077800012,243.72916862550863L528.1339522741101,253.58501239295435L528.6864967682192,266.1425347172578L529.2390412623282,261.78662184203023L529.7915857564371,261.5030091815049L530.8966747446551,269.6969289432092L532.5543082269821,285.0505321316349L533.1068527210912,283.68893721434273L533.6593972152002,293.44226637411623L534.7644862034182,257.25084940435977L536.9746641798541,277.0351264642627L538.0797531680722,279.09127667297986L539.1848421562901,287.5291744501373L541.3950201327261,295.7739579644315L541.9475646268352,290.148420035248L542.5001091209442,285.89928213207344L543.6051981091621,286.8942287607809L544.7102870973802,277.4573029744278L545.8153760855981,289.69724555890116L546.9204650738161,217.54269435440187L547.4730095679251,239.75779358708354L549.1306430502522,245.91304473816197L550.2357320384701,260.0988128591505L550.7882765325792,268.64995109981163L551.3408210266881,216.21622129530434L551.8933655207971,242.38153938796935L552.4459100149061,238.75868015940537L552.9984545090151,255.8310457034784L554.1035434972331,276.6293586239485L554.656087991342,270.5775068507572L557.4188104618871,277.6556735688485L557.971354955996,258.03601632120433L559.076443944214,270.0130270382016L559.6289884383231,243.06377548995604L560.1815329324321,269.11550550496474L561.8391664147591,263.5902448439757L562.9442554029771,270.8126031945775L564.0493443911951,252.13023950513542L565.154433379413,274.50327483376094L566.2595223676311,287.90727400062036L567.3646113558491,276.0657052046647L567.917155849958,288.63890595704123L568.4697003440671,296.3721560596276L570.127333826394,299.8021810579881L572.33751180283,262.8960034918576L572.8900562969391,266.317040417184L573.995145285157,263.9154194528469L574.547689779266,281.60376500395915L575.652778767484,265.37632914808927L577.86295674392,282.44152204249826L580.625679214465,274.6530441192073L584.493490673228,237.51332557571962L585.046035167337,254.8347723086302L586.1511241555551,276.1225283512121L586.703668649664,270.00403659583185L587.2562131437729,285.22317636650246L587.808757637882,283.83678112647254L588.361302131991,264.5432170411487L588.9138466260999,261.68562571405545L590.018935614318,272.0775286653534L590.571480108427,275.91652793852006L592.781658084863,259.77400581611255L593.3342025789719,265.83644767906276L594.43929156719,251.0744008248709L595.544380555408,273.9096203314816L597.202014037735,286.54344223771795L598.3071030259529,284.6153844303955L598.859647520062,283.52819900892206L599.412192014171,266.916831749632L601.069825496498,279.3470674680424L601.622369990607,282.34931092588226L602.1749144847159,284.66320696051343L602.7274589788249,283.50402578323866L603.2800034729339,292.05540410001583L604.3850924611519,286.3135086439985L604.9376369552609,284.4742238078269L605.49018144937,272.3278992273842L606.5952704375879,223.23228723998122L607.1478149316969,257.21494239118823L607.7003594258059,277.6089303594862L608.252903919915,279.2784394374014L608.8054484140239,279.1015141063737L609.3579929081328,290.74136167901463L610.4630818963509,274.22055483835027L611.0156263904599,279.8288377854335L612.673259872787,282.1398473400618L614.8834378492229,275.8946465845204L616.5410713315499,269.8371614458413L617.0936158256588,285.18364210900455L617.6461603197679,294.38263900578363L618.7512493079859,278.77128221253156L619.3037938020949,279.98228248272966L619.8563382962038,272.52578771072604L620.4088827903129,286.75891081230367L621.5139717785308,287.1939744911748L622.0665162726399,277.02852888966385L622.6190607667488,289.4159083372761L624.8292387431849,296.889118366561L627.0394167196208,301.4077845244985L627.5919612137299,293.52318453800194L628.6970502019478,280.04833274050173L629.2495946960569,291.30945730548063L629.8021391901659,287.45437939728504L630.3546836842748,269.174459270737L630.9072281783838,284.778217768618L631.4597726724928,285.90385676120343L633.1174061548198,284.6053746868876L633.6699506489289,293.96800015160454L636.9852176135828,289.06105069869614L638.0903066018009,288.76239122501084L638.6428510959098,296.53569773398004L639.1953955900188,301.00755321496547L639.7479400841278,284.86027456674435L640.8530290723459,274.45143191830266L642.5106625546729,269.947004345186L643.0632070487818,273.0512101499511L644.7208405311088,265.98172809961113L645.2733850252179,282.85709751884576L645.8259295193268,271.8461935360734L646.9310185075449,254.69128168105254L648.0361074957627,276.0976882355292L649.6937409780897,262.77982966713245L650.2462854721988,280.94150701345126L651.3513744604168,291.8388244905534L653.0090079427437,271.1321072285054L653.5615524368528,254.2547490142569L654.1140969309618,257.2899094110939L655.2191859191797,277.5578497254392L655.7717304132888,289.7893772057573L656.3242749073978,297.00671791306496L657.4293638956157,301.4584808386335L657.9819083897248,304.1247648385473L658.5344528838338,255.59191675082863L661.2971753543787,266.0538594364028L663.5073533308147,274.9809270296412L664.0598978249237,257.8662557316932L665.1649868131417,267.40190985949886L666.2700758013597,274.37988838418767L667.3751647895778,266.7504718522182L667.9277092836867,283.3253365386279L668.4802537777957,272.41845171986836L669.0327982719048,286.7105021269754L669.5853427660137,295.28749361726034L670.1378872601226,289.84344505374037L671.2429762483407,275.6036908034446L672.3480652365587,288.61828967415966L673.4531542247768,296.3822492666019L675.1107877071037,282.193016410347L676.2158766953216,282.1378021402003L676.7684211894307,292.53097932248545L677.3209656835397,290.37426883432073L679.5311436599757,288.6123485347663L680.6362326481936,286.3468896664917L681.1887771423027,286.9779567549788L682.2938661305207,287.42124037553504L683.9514996128477,274.58084843359967L685.0565886010656,288.02057965257694L685.6091330951746,288.14553920034075L686.1616775892837,277.2779389466886L687.8193110716106,289.6461708776176L689.4769445539376,278.26470249578506L690.0294890480466,279.640904106461L691.1345780362647,280.2170322473652L692.2396670244826,270.2476725582563L693.3447560127006,274.8409046070361L696.1074784832456,277.5851122376049L697.2125674714637,289.8380936023944L697.7651119655726,278.7048304196197L698.3176564596816,282.56122694047997L698.8702009537906,281.946515627607L700.5278344361176,273.9083853750005L703.8431014007716,277.0553504206415L704.9481903889896,278.9566287736908L705.5007348830985,279.98565182813627L706.0532793772077,291.25606573156705L706.6058238713166,260.4879335182893L707.1583683654255,279.5631211455981L709.3685463418616,280.29474147960514L710.4736353300796,282.38785211994593L711.0261798241886,274.12511532123574L712.6838133065156,269.19180151010596L713.2363578006245,276.87945176573584L713.7889022947335,268.2687823290185L714.3414467888425,245.53098935971238L714.8939912829516,251.3773894754812L715.9990802711695,274.0745697708586L716.5516247652786,268.5137635664106L717.1041692593876,273.81995613417706L717.6567137534965,287.36431710813474L718.7618027417145,268.512808639241L720.4194362240415,284.3262871744469L721.5245252122595,293.8476705562703L722.0770697063685,289.0948669126773L723.1821586945865,259.045784918506L723.7347031886956,268.1418822559174L725.3923366710226,265.08692317107386L725.9448811651315,261.2046528093631L727.0499701533495,259.44874832006656L727.6025146474585,268.35812890142125L731.4703261062215,256.4000536559713L732.0228706003305,277.0887701311469L732.5754150944396,278.7770079634457L733.1279595885485,270.0972483113456L733.6805040826574,285.3424996777346L734.2330485767666,294.4873154983776L734.7855930708755,289.41798968806586L735.8906820590935,286.623844279738L736.4432265532025,276.4366269073273L736.9957710473115,268.01792204783874L738.6534045296385,260.8106344204708L739.2059490237475,273.0117767724186L739.7584935178564,276.8333338786956L740.3110380119655,280.9070811285888L741.4161270001835,291.83096290610615L744.7313939648374,298.14310258835224L745.2839384589465,283.385469982535L745.8364829530555,272.95880747777346L746.9415719412734,276.4434292714288L749.1517499177094,278.5605080256161L750.8093834000364,258.68370274320284L752.4670168823634,278.4928597923108L754.6771948587995,270.14211329690306L756.3348283411265,274.80184491216056L756.8873728352354,248.40857319876733L757.4399173293444,261.6689708073915L758.5450063175624,269.7083174231216L759.0975508116715,274.5415791977306L759.6500953057804,279.63047366069804L761.3077287881074,273.59165748512373L761.8602732822163,287.43414206600954L762.9653622704344,285.1419566894335L764.0704512586524,273.2508822251681L764.6229957527614,279.09913739086346L765.7280847409794,259.1517723231316L766.8331737291974,268.2152716981601L767.3857182233064,273.7943438936786L768.4908072115244,258.41235484191253L769.5958961997424,278.31900652539025L770.1484406938514,290.28111100705013L770.7009851879603,280.60724833464474L771.2535296820694,281.03671875541147L772.9111631643963,281.3460306710028L773.4637076585054,281.52446474856987L774.0162521526144,291.38681932360544L775.6738856349414,289.5508200384006L776.2264301290504,280.97184607521143L780.6467860819223,260.17336938318135L782.3044195642493,258.22461182819893L782.8569640583584,278.2237342386093L783.9620530465763,260.95794615494015L785.0671420347943,252.81727040432338L785.6196865289033,256.4226997858109L787.2773200112304,260.0418522085965L787.8298645053393,260.5190259361108L788.9349534935574,242.74077475594066L789.4874979876663,268.9187084880517L790.0400424817752,255.49026559112463L790.5925869758843,248.49673784592326L792.2502204582113,272.32363032195224L796.6705764110832,286.6747201637989L797.2231209051923,285.60107152443885L797.7756653993014,294.580918419707L798.8807543875192,299.99272845979476L799.9858433757372,293.1334037943486L800.5383878698464,280.67921907920714L801.0909323639553,291.6976835851607L802.1960213521733,290.1562062702167L803.3011103403911,286.8273105547131L803.8536548345003,274.24820765004074L804.4061993286093,277.27774094581423L806.0638328109362,279.07786278711467L806.6163773050454,282.6028205470317L807.1689217991543,292.8517527651668L809.9316442696993,270.3906521026887L811.0367332579173,285.5256553701127L811.5892777520262,286.67991318095574L812.6943667402442,295.2966453153887L813.2469112343533,281.9800116392315L814.3520002225712,283.4704069061067L817.6672671872252,282.8560626286276L818.2198116813341,293.000346397131L819.3249006695522,299.0607476165572L820.4299896577702,292.16120234114874L822.6401676342063,298.52548662116124L823.7452566224242,297.2926376529442L824.8503456106421,301.63457204036575L825.9554345988603,283.1200608745163L827.0605235870781,284.8901739091965L828.1656125752961,275.5792528007306L828.7181570694053,288.62644090794L829.2707015635142,296.44704324061854L829.8232460576231,290.54550637762577L830.3757905517322,297.6051746356774L832.5859685281682,301.85479991947165L833.6910575163861,293.83856743828403L834.2436020104951,278.37179246608855L837.558868975149,280.14362861983983L838.6639579633671,283.3706374948978L839.7690469515851,272.1537491732084L840.321591445694,254.88590361819828L840.8741359398032,276.1958934334168L844.1894029044572,279.7959239683955L845.8470363867841,291.1633893046304L846.952125375002,297.98252994503696L848.6097588573291,294.03430313629286L850.2673923396562,299.70716276997814L850.8199368337652,303.11970862486476L851.9250258219831,284.0329615025497L852.477570316092,283.1337815050171L853.030114810201,285.02893010304786L853.5826593043101,294.2778724847061L854.6877482925281,289.2745043092203L855.240292786637,286.24884084460246L856.345381774855,276.2115466060634L856.8979262689642,289.018420809197L857.4504707630731,296.6983142256368L859.1081042454,290.74219521770306L859.6606487395092,297.71896220868274L860.7657377277271,273.99718255210234L865.186093680599,287.6927423181404L865.7386381747082,295.903917536819L866.2911826688171,279.700934448294L866.843727162926,280.54353705943913L868.5013606452529,291.6073063172648L869.0539051393621,298.2524758189511L869.6064496334711,291.66586948593203L871.264083115798,278.5387983101156L871.816627609907,290.42302693693824L872.3691721040161,278.68075865304735L874.026805586343,269.3572856673445L880.657339515651,265.2423620524129L882.314972997978,271.85238021850176L883.420061986196,286.4075457575724L883.9726064803049,295.14254679701014L885.0776954685231,300.3560742297484L885.630239962632,303.50644105872044L887.2878734449589,284.2554822327245L888.9455069272859,293.8436608502182L889.498051421395,289.0339861480529L890.0505959155039,296.71874356757206L890.6031404096128,284.65604983913477L891.155684903722,284.8551983869139L891.708229397831,294.2049139180849L892.26077389194,299.8168827638266L892.8133183860489,275.5591761181551L893.9184073742671,288.62809552030484L895.0234963624849,285.8963431571412L895.576040856594,294.8309547857456L896.6811298448118,273.7155238607728L897.7862188330299,276.9518234801757L898.8913078212479,289.4666221106771L899.4438523153568,286.40195172548357L899.9963968094659,284.56994458041396L900.548941303575,274.57669601102873L901.101485797684,288.0348043671463L901.6540302917929,296.111468238983L903.8642082682289,290.39778099762725L906.6269307387739,297.52746272439674L907.179475232883,291.2447042365987L908.2845642211008,298.04203811197544L908.8371087152099,283.76998988728747L911.0472866916459,293.4379371417749L911.5998311857549,289.1561217949966L912.1523756798638,286.1567839179393L913.257464668082,294.9864230584088L914.9150981504089,289.93365694449255L916.5727316327359,297.236855646566L917.6778206209539,293.40010824053724L918.782909609172,299.33878857349384L919.3354541032809,302.89771171623937L920.4405430914989,294.46709351905656L920.9930875856078,299.9751287239885L922.6507210679349,292.69050715673734L923.2032655620438,288.3455165708953L923.7558100561528,272.4044745307453L924.8608990443707,286.7190955592834L925.4134435384799,266.26286258375774L925.9659880325888,283.0517232497071L927.0710770208068,283.2868226527379L927.6236215149157,293.2629567516431L928.1761660090249,298.68535903385225L928.7287105031339,281.53484479734595L929.2812549972429,281.6495091808676L929.8337994913518,281.7162875904169L932.5965219618968,281.75572945280067L933.1490664560058,281.75757884535665L934.2541554442237,273.8523792644093L936.4643334206597,258.3574980528024L937.0168779147688,267.7391529573803L938.1219669029869,275.39120156328136L940.3321448794227,277.9628456800691L941.4372338676408,279.549593508118L942.5423228558587,291.0137432673003L943.6474118440768,287.3315552406764L944.1999563381859,295.6958116527604L944.7525008322948,300.7099060114315L945.3050453264037,303.67177743123045L946.4101343146217,294.9087207680212L948.0677677969488,281.5365501941726L948.6203122910578,281.64961568022045L949.7254012792757,273.53986342264557L950.2779457733848,287.4129531825822L950.8304902674938,295.74431788559485L951.9355792557117,282.7994511627072L954.1457572321477,282.510654707695L955.2508462203657,263.57299472366975L955.8033907144746,270.87110891176405L956.9084797026928,277.7265537823966L957.4610241968018,268.7994999476486L959.1186576791287,284.5758832007914L959.6712021732378,285.93667553965963L962.4339246437828,268.0792993662554L962.9864691378917,273.5726456135831L963.5390136320008,277.20873095864823L964.0915581261097,289.6201026186905L965.1966471143277,287.25912715617636L966.3017361025458,291.17517682548953L966.8542805966547,297.9957936855757L967.4068250907636,294.16572586497534L967.9593695848727,291.4949622288179L968.5119140789816,290.252761705981L969.0644585730907,289.51841494694486L970.7220920554176,296.99844151897406L972.3797255377448,287.92413141647575L973.4848145259626,278.64610413102076L974.5899035141806,279.9411872316876L975.1424480082898,280.6948978979977L975.6949925023987,282.9207074481703L976.2475369965076,282.4771922643003L976.8000814906167,274.20786904266816L979.0102594670527,279.86900005876066L981.2204374434888,291.2192839444457L982.3255264317066,278.0872069430725L982.8780709258157,279.56035889577606L984.5357044081427,277.1144194934509L985.0882489022516,289.5635653215776L985.6407933963607,275.8844600777003L987.2984268786877,278.25670749477865L988.9560603610146,290.246836838915L989.5086048551236,281.4843629732335L990.0611493492326,283.46075631159727L991.1662383374506,282.80070637813526L991.7187828315597,266.08920316477594L992.2713273256686,261.8076682781083L993.9289608079956,280.35913659788866L995.0340497962136,283.5018709760394L995.5865942903225,293.3918921636073L996.1391387844316,299.3224534911005L996.6916832785407,302.8695933436002L997.2442277726497,294.4122760069161L997.7967722667586,280.9570053941113L998.9018612549766,270.73844555172354L999.4544057490855,285.7408611343388L1001.1120392314126,294.73837272364955L1003.8747617019576,289.61307478055005L1010.5052956312655,297.0633505975243L1011.0578401253745,301.51243508777L1011.6103846194835,293.637869522356L1012.1629291135924,299.4761478535286L1014.3731070900285,292.416690626215L1016.0307405723556,298.74586080983687L1016.5832850664646,302.54698203626924L1017.6883740546825,294.24090655281077L1018.2409185487915,263.60920750368444L1018.7934630429006,273.4782125544767L1019.3460075370095,287.3789337177168L1020.4510965252275,295.723301018748L1021.5561855134456,290.16365465658737L1022.1087300075545,297.3937840788843L1022.6612745016636,301.7288714902841L1023.7663634898814,295.50291851370173L1024.3189079839904,300.59217705910555L1024.8714524780996,293.0622529839889L1025.9765414663175,289.8422478094927L1027.0816304545353,278.63383622143704L1030.3968974191894,271.82479917070657L1031.5019864074075,286.3884703200164L1034.2647088779524,263.4304741202891L1034.8172533720615,270.78049617556866L1037.0274313484974,285.7513803857719L1039.7901538190424,284.1684813370499L1040.3426983131515,283.2966351763912L1042.5528762895874,293.275648735456L1044.7630542660233,299.26315980224734L1046.4206877483502,302.81625107586126L1048.0783212306774,304.96376103280284L1048.6308657247864,287.1762019059596L1049.1834102188955,274.4635315253316L1050.8410437012224,287.91158067623985L1051.3935881953314,296.04132315257L1053.0512216776585,300.9241412375605L1054.1563106658764,293.2846503724183L1054.7088551599854,290.19142468866727L1055.2613996540942,278.8621185165339L1059.1292111128575,271.041043983947L1059.6817556069664,285.9018048505489L1060.2343001010754,286.87281358967726L1060.7868445951844,284.3787734900732L1061.8919335834023,293.8889445280328L1062.4444780775113,299.6059925158274L1062.9970225716204,301.4334762830224L1063.5495670657294,304.1543437805917L1064.1021115598382,297.29770670736895L1064.6546560539473,283.1837825104129L1065.2072005480566,282.6317379279083L1065.7597450421654,266.29757940620914L1066.3122895362744,272.5074097626409L1067.9699230186013,278.659740496499L1069.0750120068194,281.93063486113084L1071.8377344773644,292.45080373010495L1072.3902789714734,290.8153742447297L1072.9428234655823,297.76251037340586L1074.0479124538003,283.25863645728424L1077.9157239125634,293.2440310070528L1079.0208129007813,299.2401081598331L1081.7835353713263,302.8241374744473L1082.3360798654353,296.9898883139608L1084.5462578418712,293.56578390475045L1085.6513468300893,278.3033450768719L1086.2038913241981,279.7085898661344L1087.3089803124165,291.12111058880254L1087.8615248065253,297.9703663857158L1088.9666137947434,283.506503064529L1089.5191582888522,293.40185120334763L1092.8344252535062,291.37533992039494L1093.3869697476152,298.09398092590635L1093.9395142417243,302.1538974270234L1096.7022367122693,294.01629653953387L1097.2547812063783,299.69674865193633L1102.2276816533592,295.1455932826261L1102.7802261474683,300.38311563625524L1104.4378596297952,277.0005818993969L1104.9904041239042,281.5606802962979L1105.542948618013,292.23564495468526L1106.6480376062314,298.6391748838106L1107.7531265944492,294.5009139656454L1108.8582155826673,270.83764025426535L1110.5158490649942,285.78066056703483L1111.0683935591032,275.9779397967039L1112.1734825473213,288.8649651953837L1112.7260270414301,296.6166648973428L1113.8311160296482,269.5540398438292L1114.936205017866,266.5867629900822L1115.4887495119754,283.2387370432744L1116.5938385001932,282.66069973109495L1117.1463829943023,292.89303217440636L1119.3565609707382,288.4390695735994L1119.9091054648472,285.79020244986907L1121.014194453065,284.1981157208728L1121.5667389471741,293.8176866862401L1122.1192834412832,289.5588065908257L1122.6718279353922,276.0560893038075L1123.77691692361,269.84978306798047L1124.3294614177191,274.6416416087582L1124.8820059118282,288.08447301371115L1125.4345504059372,296.1459528274228L1127.6447283823732,292.7566205582446L1128.7498173705912,298.95527065072486L1129.3023618647,284.10437652272816L1129.854906358809,285.8146768970107L1130.9599953470272,284.21847427862554L1132.065084335245,285.76828265307944L1133.1701733234631,284.12950852998506L1134.2752623116812,283.2102954554184L1134.8278068057903,293.062815309039L1135.380351299899,278.0026902828284L1136.4854402881172,290.0990418135748L1137.0379847822262,297.3593481470499L1137.5905292763352,291.4535795156913L1138.143073770444,298.1625282143324L1138.695618264553,283.23532170806413L1139.2481627586621,293.2389550841554L1140.3532517468802,299.24372710508567L1140.905796240989,292.5152595748913L1142.563429723316,298.8077786279057L1143.1159742174252,302.58465323671305L1144.221063205643,304.8033891481031L1144.7736076997521,306.18197138340844L1146.4312411820792,289.04901553287897L1146.983785676188,288.8029800438885L1147.536330170297,296.58196180986914L1148.0888746644061,301.24576642694L1148.641419158515,282.91363012761826L1149.746508146733,282.474287764912L1151.956686123169,271.6535861491122L1153.061775111387,277.4584942813078L1153.6143196054961,289.7699291703202L1154.1668640996052,289.16462342993714L1155.824497581932,286.2281321901107L1156.377042076041,295.03377753816284L1157.482131064259,300.2823009118282L1159.6923090406951,282.3330427040186L1160.244853534804,282.1329488788182L1160.797398028913,292.5772316593267L1161.349942523022,298.84556620872434L1162.4550315112401,294.6684864988921L1164.665209487676,289.52711079953997L1165.217753981785,275.88111109676373L1166.322842970003,288.8144859976232L1166.875387464112,286.019373908907L1167.427931958221,273.9833374813858L1167.9804764523299,287.6900541247984L1169.085565440548,277.39455563696333L1170.7431989228749,289.7353420852691L1171.2957434169841,288.9337512636375L1171.848287911093,286.08095596900534L1172.400832405202,294.90856346982537L1172.953376899311,300.22976201549824L1174.6110103816382,292.8698334351045L1175.163554875747,269.9519147007221L1177.3737328521831,285.2650324166467L1177.926277346292,283.8891813892954L1179.03136633451,293.6299712664016L1179.5839108286189,270.2372359866495L1180.136455322728,266.8262602720214L1182.3466332991638,266.99960716359163L1184.004266781491,283.5000251296967L1185.109355769709,282.8338513532475L1186.766989252036,292.9968348276333L1187.319533746145,299.0969305948131L1187.872078240254,292.188935145932L1188.4246227343629,290.2706113714612L1188.977167228472,297.4569696270334L1190.08225621669,280.63663490088624L1190.634800710799,281.6039274524376L1191.1873452049078,284.09565011865527L1192.8449786872347,293.7585030971478L1193.397523181344,299.5529491370829L1194.5026121695619,292.46330283909725L1195.055156663671,276.45545478571887L1195.60770115778,268.0331617848303L1197.2653346401069,275.92449280960824L1198.370423628325,270.25067811621426L1198.9229681224338,285.4465128002498L1199.475512616543,284.007313032727L1200.0280571106518,293.70339814518877L1203.895868569415,299.5183053021291L1204.448413063524,302.99809447858036L1206.1060465458509,305.0979683838483L1208.8687690163958,297.98284197637867L1211.0789469928318,291.52066355114414L1212.1840359810499,298.21157978648193L1213.289124969268,302.2237211401198L1214.3942139574858,286.1383341894835L1214.9467584515949,294.9715933013637L1215.499302945704,289.70916974336444L1216.051847439813,286.5527836608688L1218.262025416249,295.2262987849642L1218.814569910358,289.9253528191253L1219.3671144044667,289.3074154646395L1220.4722033926848,296.88417801379626L1221.0247478867939,301.42831752407324L1221.577292380903,304.14301024500423L1223.7874703573389,305.78461519279443L1224.892559345557,306.7661640894282L1225.9976483337748,296.78786526830817L1227.1027373219927,301.36591079463426L1227.655281816102,293.5430395476944L1228.7603708043198,278.2898667528423L1230.970548780756,290.2741495598552L1232.0756377689738,289.3638121922936L1232.6281822630829,275.8080610260654L1234.2858157454098,280.8756932533486L1235.9434492277367,291.82531262204395L1238.1536272041728,298.3558553423638L1239.2587161923907,302.30785198139534L1239.8112606865,304.6848726549002L1241.4688941688269,306.1072295381911L1243.6790721452628,296.39498460373113L1244.2316166393719,292.23160998820555L1244.7841611334807,298.6355000092004L1245.3367056275897,291.96501734981155L1246.9943391099168,287.90754702011816L1247.5468836040257,296.04123850158214L1248.0994280981347,279.7887285522104L1249.2045170863528,270.03887743626063L1249.7570615804618,276.99826566995847L1250.3096060745709,289.49762292595767L1251.4146950627887,289.01992211031563L1251.9672395568978,288.7793806597872L1253.6248730392247,270.021739232508L1254.1774175333337,285.3076086226728L1255.2825065215518,283.8869680866195L1256.3875955097697,285.51062720378394L1256.9401400038787,275.5617380927315L1257.4926844979877,267.5042435355356L1261.3604959567506,283.7968278058385L1261.9130404508599,293.57821809872195L1262.4655849449687,288.8833475844583L1263.0181294390777,288.59347171825203L1266.3333964037317,275.3167632035553L1266.8859408978406,278.925434226963L1267.4384853919496,282.48300208286616L1267.9910298860586,292.7839191325501L1268.5435743801677,288.403190561689L1269.6486633683855,296.33883720614733L1271.3062968507127,290.5379652878396L1272.9639303330396,265.94397973616867L1275.1741083094757,274.9402715265927L1275.7266528035846,267.227058720311L1276.2791972976936,273.0681981719234L1276.8317417918026,266.0045234871112L1277.3842862859117,282.89895142959085L1278.4893752741295,293.0405788581609L1279.0419197682386,299.1237497268838L1281.2520977446748,292.20835699973907L1282.9097312270017,298.62319404878957L1283.4622757211107,293.04322811686137L1285.1199092034376,299.12548422077367L1285.6724536975466,294.63340550852655L1286.2249981916555,300.0777421305449L1286.7775426857647,282.2115474683312L1287.3300871798735,271.8818255041649L1288.4351761680916,286.4269059671165L1288.9877206622004,295.15393117699386L1289.5402651563095,271.2851694009185L1290.0928096504188,275.498163497152L1290.6453541445276,278.71857157578955L1292.8555321209637,290.5320344767612L1293.4080766150726,289.6031141367843L1293.9606211091816,275.9153180808193L1295.6182545915085,278.2830057185881L1296.7233435797266,290.26632172212203L1297.2758880738356,286.888207854541L1297.8284325679444,266.14389931818465L1298.9335215561628,272.55256858889413L1299.4860660502716,276.2626707613172L1300.0386105443806,289.0563644441513L1301.1436995325985,296.73377963181423L1301.6962440267075,290.76764407264966L1303.3538775090346,297.7604427084998L1304.4589664972525,301.9555733572685L1305.5640554854706,304.47453403348777L1306.1165999795796,305.85594352291366L1307.2216889677975,287.6750367126398L1308.8793224501246,287.9260278969973L1309.9844114383425,288.08112584680043L1310.5369559324515,288.1701729620371L1311.0895004265606,296.2010208541352L1312.1945894147786,300.99955408271103L1313.2996784029965,293.3286130214153L1313.8522228971055,299.2892289787925L1314.4047673912144,302.8696548876041L1316.6149453676505,294.4412898492447L1317.1674898617593,299.95642849670224L1318.2725788499777,294.9930603204671L1319.3776678381955,292.2929965207616L1322.1403903087405,288.1046423166141L1324.3505682851765,296.15811564963764L1324.9031127792855,300.9935032457257L1325.4556572733945,303.8940633868042L1326.0082017675034,305.63271465528544L1332.6387356968114,296.1075941024466L1333.7438246850295,300.96145670420776L1334.8489136732474,285.2618009675508" style="fill: none;" fill="none"></path></g></g></g></g><g opacity="0.2"><g><g><g><path stroke="rgb(255, 112, 67)" stroke-width="2px" d="M272.30585150164404,-84.63864726699734L273.96348498397106,7.135699256798603L276.72620745451604,48.6199431491047L277.27875194862503,-31.997589533916653L277.831296442734,99.59545930469352L278.383840936843,86.29511541998727L278.93638543095204,167.099214032743L279.48892992506103,91.13146587653898L282.251652395606,75.12879465891297L286.672008348478,82.71561230412624L288.32964183080503,47.082390700493704L288.882186324914,156.9993217226898L292.74999778367703,131.16070809401748L294.407631266004,218.48525495015966L295.51272025422196,227.92707351312504L296.065264748331,151.00752615454584L296.61780924244,112.98769849819826L298.82798721887593,179.2250842029587L299.380531712985,234.12249284703813L299.93307620709396,169.43986504990949L301.590709689421,189.55898847045353L302.14325418352996,223.12499373277828L303.800887665857,212.7541984810766L306.011065642293,255.9852282612316L307.11615463051095,195.8452107030686L308.2212436187289,228.95574000432183L308.7737881128379,238.7529756684332L309.32633260694695,168.8272296579192L309.87887710105593,227.35027360099153L312.0890550774919,206.2227449440822L313.1941440657099,267.01548122551503L314.8517775480369,213.2442329831758L315.4043220421459,273.43103964675845L315.9568665362549,214.14871163738178L317.0619555244729,151.615452373282L317.6145000185819,247.11448552911673L318.1670445126909,268.77750549609607L319.8246779950179,248.2709012618421L320.9297669832359,294.75923776442914L321.48231147734487,301.0667435410539L322.5874004655629,266.02370202795043L323.1399449596719,252.84152296240535L324.7975784419989,260.82295899270264L327.5603009125439,297.3784035334609L328.11284540665287,187.26340675091944L328.66538990076185,210.46161350815876L329.7704788889799,194.0381134442805L330.32302338308887,202.7138868081818L331.42811237130684,281.19290678350893L332.53320135952487,279.0245022664326L333.08574585363385,218.00390067963852L333.63829034774284,272.87676700229184L334.1908348418519,235.36637150840673L335.29592383006985,228.62896914361338L335.84846832417884,276.1914271000806L339.71627978294185,236.72093788469445L341.92645775937785,293.8523823801482L344.13663573581385,259.5597491013145L344.6891802299228,252.60684301095193L345.2417247240318,253.69256209567146L347.4519027004678,281.11410932414515L349.1095361827948,277.8561752040226L350.7671696651218,263.3588045031364L351.3197141592308,284.4794336307366L352.9773476415578,275.9627812381808L353.5298921356668,278.85861278117795L354.63498112388476,278.03715729431065L355.1875256179938,250.6999526136131L355.7400701121027,214.35520667022902L356.84515910032076,285.4445281282905L357.3977035944298,259.781523113215L358.50279258264777,280.14448649149506L359.05533707675676,253.7075126135808L359.60788157086574,235.67003199065348L361.26551505319276,259.42029335699436L362.9231485355198,280.3013709746024L365.68587100606476,305.1399775001876L366.79095999428273,234.5491601823875L367.8960489825007,208.05371283971002L368.44859347660974,250.5707751196948L371.21131594715473,184.95664259019424L372.8689494294817,306.79795962749057L373.42149392359073,242.6608439732518L373.9740384176997,267.7520202802481L374.5265829118087,287.5276287028941L375.63167190002673,187.98905491985872L377.84184987646273,258.9099090262721L378.9469388646807,307.5164782981877L380.05202785289873,238.62244004304347L381.1571168411167,306.0331533082045L383.9198393116617,286.9866089119976L385.02492829987966,234.5423400004333L387.23510627631566,221.00847131413929L389.99782874686065,200.8341442779724L391.1029177350787,263.8477429045644L391.65546222918766,238.89763881358522L393.3130957115147,281.1309198916784L394.4181846997327,218.84169064990917L394.97072919384163,257.81688260374443L395.5232736879506,287.15219761541823L396.62836267616865,286.0720955853168L397.1809071702776,306.64674917224755L397.7334516643867,260.45974370732006L399.9436296408226,287.7868731192216L400.4961741349316,258.6670175462212L401.6012631231496,232.44115561004196L403.2588966054766,280.0217804202265L405.46907458191265,282.25402449760793L406.0216190760216,274.9732422194291L406.57416357013057,259.5556710163256L407.1267080642396,305.56416384672815L408.2317970524576,227.3847214247797L409.88943053478454,253.53824071665898L410.4419750288936,238.45347077324297L410.99451952300257,263.0635068630478L412.6521530053296,208.63267542858873L413.2046974994386,305.44850608105935L414.30978648765654,259.94709705433695L417.6250534523105,285.6569834391983L418.73014244052854,214.5701014509809L420.38777592285555,228.6528840673489L420.9403204169646,287.81682213251077L422.0454094051825,307.7450029477763L422.59795389929155,234.23481179595277L425.3606763698365,307.0400578646525L425.9132208639456,253.92644119242573L427.0183098521635,180.98770265605842L428.1233988403815,259.5397018998127L428.67594333449057,244.2039987141823L429.22848782859955,286.3197977294247L430.8861213109265,288.02607771519655L431.4386658050355,274.01889652054496L433.09629928736246,305.136470300965L433.64884378147156,255.0180467437129L434.75393276968947,281.1764523564295L435.3064772637985,238.23347561832404L436.4115662520165,247.32104699230769L438.6217442284525,255.18427760712268L439.17428872256147,307.4862385944796L439.7268332166705,192.81763302619635L440.83192220488843,268.0577401031498L441.3844666989975,176.84085488031852L443.0421001813245,288.1239960418248L443.59464467543347,288.20007908353307L444.14718916954246,286.3232465714356L444.6997336636515,307.6212354326391L445.80482265186953,307.8817220444952L446.35736714597846,280.75154357990107L446.90991164008744,286.69732506330206L447.4624561341965,234.00198082239928L452.4353565811775,272.82952764676486L452.98790107528646,207.2774595111625L454.09299006350443,260.6805507886621L455.75062354583144,307.93872296997284L459.6184350045944,281.21016206528753L460.17097949870345,251.65678945038636L462.3811574751394,308.06312905543876L462.9337019692484,280.7025659637137L463.4862464633574,306.82469092100627L464.59133545157545,233.0698597640607L465.69642443979336,283.6893332661002L467.9066024162294,272.51394291782225L472.8795028632104,257.127597666837L473.43204735731933,308.02190850817976L473.98459185142843,307.9604882493049L474.53713634553736,281.39130100499824L475.6422253337554,281.4902360849427L476.1947698278644,302.47442559035585L477.85240331019133,236.11683510129623L479.51003679251835,287.47843334280236L483.37784825128136,302.08934687942167L483.93039274539035,307.84896043849835L484.4829372394993,307.92356745217467L485.0354817336084,281.6948858304646L486.1405707218263,307.46264325144267L486.69311521593534,288.00523704014495L487.2456597100443,285.9251313668702L488.35074869826235,254.63245550422408L488.9032931923713,306.74235223993486L489.4558376864804,273.2363729056662L490.5609266746983,266.8537196480071L491.6660156629163,288.35141663294064L492.2185601570253,308.09440064958574L494.4287381334613,254.51231622762492L498.29654959222427,281.2851693044852L499.9541830745513,255.59695397397184L500.5067275686603,308.03101987384184L501.61181655687824,291.7502015346012L502.71690554509627,276.81599411991607L504.3745390274233,281.29768773369983L510.45252846262224,255.03121102349138L512.1101619449493,287.9786999631202L512.6627064390582,269.6928750360958L513.2152509331672,307.32310579549323L514.3203399213852,288.04165747608386L515.4254289096032,261.4065569433424L515.9779734037122,308.010107160503L517.0830623919302,261.49229637362384L519.8457848624752,231.46882943146036L520.3983293565842,281.5661050733212L523.7135963212382,258.6809014880565L524.8186853094562,308.0973603607087L525.3712298035653,308.0001787938777L525.9237742976742,287.7288203799685L526.4763187917831,235.14602943947065L527.0288632858923,181.19492104153716L527.5814077800012,259.0779851770071L528.1339522741101,268.36877804412296L528.6864967682192,284.97881820371293L529.2390412623282,255.2527525291889L529.7915857564371,261.07759019071693L530.8966747446551,281.9878085857656L532.5543082269821,308.0809369142735L533.1068527210912,281.64654483840445L533.6593972152002,308.0722601137765L534.7644862034182,202.96372394972502L536.9746641798541,306.7115420541171L538.0797531680722,282.1755019860557L539.1848421562901,300.1860211158734L541.3950201327261,308.1411332358728L541.9475646268352,281.7101131414728L542.5001091209442,279.52557527731153L543.6051981091621,288.386648703842L544.7102870973802,263.3019142948983L545.8153760855981,308.0571594356111L546.9204650738161,109.310867547653L547.4730095679251,273.08044243610607L549.1306430502522,255.14592146477958L550.2357320384701,281.3774650406333L550.7882765325792,281.4766584608033L551.3408210266881,137.56562658854338L551.8933655207971,281.6295165269669L552.4459100149061,233.3243913165594L552.9984545090151,281.4395940195879L554.1035434972331,307.82682800465375L554.656087991342,261.4997291909701L557.4188104618871,288.27292364598554L557.971354955996,228.60653044973807L559.076443944214,287.9785431136976L559.6289884383231,202.63989816758772L560.1815329324321,308.1931005274777L561.8391664147591,255.3023538524922L562.9442554029771,281.6461407204803L564.0493443911951,224.10669397097226L565.154433379413,308.0628278266992L566.2595223676311,308.0132727509095L567.3646113558491,258.30335201073126L567.917155849958,307.498707085606L568.4697003440671,307.9720312135072L570.127333826394,304.9472185555288L572.33751180283,207.53673714266182L572.8900562969391,271.4485958051737L573.995145285157,260.3129880063412L574.547689779266,308.1362833306276L575.652778767484,241.0351753642844L577.86295674392,308.0393113841118L580.625679214465,262.9703272342709L584.493490673228,181.8037477604881L585.046035167337,280.81694240799607L586.1511241555551,308.054162415085L586.703668649664,260.82629896276137L587.2562131437729,308.05188602250837L587.808757637882,281.75718826642776L588.361302131991,235.6028709131629L588.9138466260999,257.39923872341564L590.018935614318,287.6653830923003L590.571480108427,281.67502684827L592.781658084863,235.5602226325012L593.3342025789719,274.9301104734882L594.43929156719,228.93133054358313L595.544380555408,308.1624495913978L597.202014037735,305.4941750970725L598.3071030259529,281.72329771941185L598.859647520062,281.8974208767118L599.412192014171,241.99978086069706L601.069825496498,297.9924210456578L601.622369990607,286.8526761126421L602.1749144847159,288.1340510124602L602.7274589788249,281.7652540173265L603.2800034729339,304.8824715751815L604.3850924611519,277.7006654599726L604.9376369552609,281.7152965535695L605.49018144937,254.10841235672012L606.5952704375879,149.58886925887674L607.1478149316969,308.1889251179988L607.7003594258059,308.19991231193296L608.252903919915,281.7827030542743L608.8054484140239,278.8361261098322L609.3579929081328,308.2011330379761L610.4630818963509,249.4393445773536L611.0156263904599,288.2412622060585L612.673259872787,285.60636167200414L614.8834378492229,266.5268454512084L616.5410713315499,260.7509337378226L617.0936158256588,308.20336310374944L617.6461603197679,308.1811343509522L618.7512493079859,255.3542470226535L619.3037938020949,281.7987828880267L619.8563382962038,261.34104555272063L620.4088827903129,308.10859546467015L621.5139717785308,287.8465700094814L622.0665162726399,261.78036048739745L622.6190607667488,307.9969775086945L624.8292387431849,308.09893341048826L627.0394167196208,308.1857837614047L627.5919612137299,281.69628455825716L628.6970502019478,259.8360550442514L629.2495946960569,308.201144152949L629.8021391901659,281.6717625349917L630.3546836842748,241.75457908091494L630.9072281783838,308.1838555154395L631.4597726724928,287.5923152500815L633.1174061548198,282.657651575414L633.6699506489289,308.0119383486798L636.9852176135828,281.7006265193336L638.0903066018009,288.314402014483L638.6428510959098,308.1956574974338L639.1953955900188,307.71533643644364L639.7479400841278,260.63935659441273L640.8530290723459,258.8381679456402L642.5106625546729,263.19036298551094L643.0632070487818,277.70751885709865L644.7208405311088,255.37750502410123L645.2733850252179,308.17015164769776L645.8259295193268,255.3298375619148L646.9310185075449,228.9589138985213L648.0361074957627,308.2072980672442L649.6937409780897,242.80304181453724L650.2462854721988,308.18402303292953L651.3513744604168,308.18480070620666L653.0090079427437,240.0720313354334L653.5615524368528,228.93871169288423L654.1140969309618,261.8426500063493L655.2191859191797,307.95976019695723L655.7717304132888,308.1366684262344L656.3242749073978,307.8327289740265L657.4293638956157,308.13612522698617L657.9819083897248,308.12419083841814L658.5344528838338,182.79264461925064L661.2971753543787,281.7467734647639L663.5073533308147,288.37152841949876L664.0598978249237,232.19424878477128L665.1649868131417,281.7053910512074L666.2700758013597,284.8468561712208L667.3751647895778,255.3063470542641L667.9277092836867,308.1876335682423L668.4802537777957,256.05812449172913L669.0327982719048,308.148577737636L669.5853427660137,308.1529808526876L670.1378872601226,281.67737220846044L671.2429762483407,254.24405942800084L672.3480652365587,308.1401879802323L673.4531542247768,308.02818865526524L675.1107877071037,260.9091671259647L676.2158766953216,282.0549807349802L676.7684211894307,308.12074509591326L677.3209656835397,287.1392031020737L679.5311436599757,285.96946808543447L680.6362326481936,282.9487013640798L681.1887771423027,287.9245573877094L682.2938661305207,288.0861658063694L683.9514996128477,255.32026052069665L685.0565886010656,308.1801764810429L685.6091330951746,288.3329785219865L686.1616775892837,260.97653856621037L687.8193110716106,308.198518774011L689.4769445539376,261.1924999230363L690.0294890480466,281.7052065224749L691.1345780362647,281.08122445872146L692.2396670244826,255.29363302459296L693.3447560127006,281.7307526802059L696.1074784832456,281.7014236834581L697.2125674714637,308.21756564957866L697.7651119655726,262.00493564545764L698.3176564596816,288.3458217217704L698.8702009537906,281.0244486582975L700.5278344361176,261.8511899960906L703.8431014007716,281.7757979891031L704.9481903889896,281.80854630326473L705.5007348830985,281.5291864098045L706.0532793772077,308.16168658671324L706.6058238713166,214.33573519837276L707.1583683654255,308.1759025865611L709.3685463418616,281.39217198061573L710.4736353300796,285.5275180804572L711.0261798241886,261.73101012317034L712.6838133065156,261.7918307934113L713.2363578006245,288.4109271491806L713.7889022947335,255.35277817394257L714.3414467888425,211.42429990575312L714.8939912829516,260.1469896491344L715.9990802711695,308.12034021392475L716.5516247652786,260.1725542597387L717.1041692593876,281.7792449858267L717.6567137534965,307.6808585690711L718.7618027417145,240.23554593590038L720.4194362240415,308.04650497725584L721.5245252122595,308.12974562900536L722.0770697063685,281.9656614472877L723.1821586945865,213.9721619272491L723.7347031886956,281.78602826203445L725.3923366710226,260.5044845438086L725.9448811651315,255.3812472667969L727.0499701533495,256.8148915861218L727.6025146474585,281.7221997734533L731.4703261062215,238.46294078779627L732.0228706003305,308.1218448439102L732.5754150944396,281.30936471189415L733.1279595885485,257.0776088331954L733.6805040826574,308.21037672731813L734.2330485767666,308.2045392293421L734.7855930708755,281.81400097259825L735.8906820590935,282.4326261672464L736.4432265532025,261.15580084871124L736.9957710473115,255.38986475860588L738.6534045296385,249.9997029794189L739.2059490237475,291.3134903003404L739.7584935178564,282.56566953811114L740.3110380119655,287.01770200342844L741.4161270001835,308.21678557238226L744.7313939648374,307.6113121117213L745.2839384589465,261.24902107380933L745.8364829530555,257.318813720631L746.9415719412734,281.67036196191174L749.1517499177094,281.7361261568971L750.8093834000364,228.868494819583L752.4670168823634,308.2065953659728L754.6771948587995,257.6159935537914L756.3348283411265,281.7914423350468L756.8873728352354,208.81866562867754L757.4399173293444,281.5595672203278L758.5450063175624,281.7673373467168L759.0975508116715,281.791471859644L759.6500953057804,287.2638153551493L761.3077287881074,264.5334332217622L761.8602732822163,308.1978689373382L762.9653622704344,281.70367862456953L764.0704512586524,255.41427052876995L764.6229957527614,287.8715201394064L765.7280847409794,229.23072472153385L766.8331737291974,281.8105207607028L767.3857182233064,282.1629521869565L768.4908072115244,235.33937126426335L769.5958961997424,308.1789840506068L770.1484406938514,308.22426772954L770.7009851879603,266.0964543260366L771.2535296820694,281.6809243865616L772.9111631643963,281.8099985443897L773.4637076585054,281.7921158649205L774.0162521526144,306.18035118615865L775.6738856349414,286.79682111059344L776.2264301290504,268.1033851304277L780.6467860819223,228.97565434513615L782.3044195642493,255.30147549572536L782.8569640583584,308.2224178542249L783.9620530465763,235.05926402943638L785.0671420347943,240.6062567783982L785.6196865289033,261.8308438580422L787.2773200112304,265.47058084277484L787.8298645053393,261.2347865273822L788.9349534935574,216.07339798568555L789.4874979876663,308.18560908621816L790.0400424817752,235.34760124573407L790.5925869758843,238.00644622812118L792.2502204582113,308.06396903599574L796.6705764110832,308.2013549265688L797.2231209051923,283.99059856539884L797.7756653993014,308.0506887626093L798.8807543875192,308.1104435199264L799.9858433757372,282.8444167961794L800.5383878698464,261.9979420064949L801.0909323639553,308.2253803440911L802.1960213521733,287.8439902978007L803.3011103403911,281.8339669814577L803.8536548345003,255.37955329303227L804.4061993286093,281.82204088947447L806.0638328109362,281.7780455490653L806.6163773050454,287.89025718690726L807.1689217991543,308.22515109236946L809.9316442696993,236.6990011089716L811.0367332579173,308.22816027124867L811.5892777520262,288.4112998972203L812.6943667402442,308.22174351703796L813.2469112343533,262.0050611249958L814.3520002225712,285.70599980641947L817.6672671872252,281.934546212409L818.2198116813341,308.21677204988606L819.3249006695522,308.15134944569644L820.4299896577702,281.81188442803614L822.6401676342063,308.07191304118L823.7452566224242,295.44336420061876L824.8503456106421,308.14747362149797L825.9554345988603,255.34829412574214L827.0605235870781,287.5453434612167L828.1656125752961,261.6128711380318L828.7181570694053,308.197223068754L829.2707015635142,308.17794673963647L829.8232460576231,281.6932010831366L830.3757905517322,308.1946770227547L832.5859685281682,308.229237845163L833.6910575163861,281.81421871650264L834.2436020104951,255.17163000779527L837.558868975149,282.8013828504667L838.6639579633671,288.2111508074847L839.7690469515851,255.32841669067432L840.321591445694,228.98413528568312L840.8741359398032,308.1608781562446L844.1894029044572,285.19596977086366L845.8470363867841,308.2145873089827L846.952125375002,308.21124090564683L848.6097588573291,288.1119629231767L850.2673923396562,308.21645222050614L850.8199368337652,308.2385274071947L851.9250258219831,255.4028408190772L852.477570316092,281.78501150871824L853.030114810201,287.87165300009383L853.5826593043101,308.15128605719354L854.6877482925281,281.76945204599156L855.240292786637,281.71034564767575L856.345381774855,261.15560524825474L856.8979262689642,308.2287321138973L857.4504707630731,308.2181543502966L859.1081042454,281.8080167058024L859.6606487395092,308.1841126951523L860.7657377277271,238.4145130672318L865.186093680599,308.23608196719744L865.7386381747082,308.22068036483694L866.2911826688171,255.39645981550643L866.843727162926,281.8074409761569L868.5013606452529,308.2029602040032L869.0539051393621,308.2202300714806L869.6064496334711,281.78595998640344L871.264083115798,258.84819154639104L871.816627609907,308.2493698771721L872.3691721040161,261.06735622721095L874.026805586343,255.3720761887903L880.657339515651,259.06997663001545L882.314972997978,281.7674074676351L883.420061986196,308.2402940661783L883.9726064803049,308.2450483561669L885.0776954685231,308.17636537885573L885.630239962632,308.23199130217847L887.2878734449589,255.37904399373048L888.9455069272859,308.22592877645883L889.498051421395,281.819474094805L890.0505959155039,308.2458796968507L890.6031404096128,266.56200924647874L891.155684903722,285.1539212085827L891.708229397831,308.2294872148414L892.26077389194,308.2348360324391L892.8133183860489,239.17261614964795L893.9184073742671,308.23147462352944L895.0234963624849,281.7987146123957L895.576040856594,308.23287222865207L896.6811298448118,242.04237747331365L897.7862188330299,281.80627290928L898.8913078212479,308.2388200564294L899.4438523153568,281.80494614769316L899.9963968094659,281.8219338628096L900.548941303575,259.58682315695086L901.101485797684,308.22196690132256L901.6540302917929,308.2264640467381L903.8642082682289,281.8272501355937L906.6269307387739,308.221985314551L907.179475232883,281.82056650490154L908.2845642211008,308.23803892504054L908.8371087152099,262.3619175502555L911.0472866916459,307.9398580235062L911.5998311857549,282.7333987748291L912.1523756798638,281.6577771023534L913.257464668082,308.230881769113L914.9150981504089,282.3545077736183L916.5727316327359,308.1916536996761L917.6778206209539,287.6449871314941L918.782909609172,308.24680907292884L919.3354541032809,308.23609643035763L920.4405430914989,281.82116622328226L920.9930875856078,308.23718153138645L922.6507210679349,281.76357480586057L923.2032655620438,281.8280306921323L923.7558100561528,248.49291147052023L924.8608990443707,308.1910271020906L925.4134435384799,235.5785131204693L925.9659880325888,308.23501424863105L927.0710770208068,283.63947175728407L927.6236215149157,308.2271579000009L928.1761660090249,306.81896245716587L928.7287105031339,255.8090734425865L929.2812549972429,281.82150575615015L929.8337994913518,281.81645520474086L932.5965219618968,281.81489224637636L933.1490664560058,281.7603529341906L934.2541554442237,261.9945798929882L936.4643334206597,235.1151762353921L937.0168779147688,281.81163531424727L938.1219669029869,286.86927447213293L940.3321448794227,281.8203118552507L941.4372338676408,281.9297152501914L942.5423228558587,308.20996790607364L943.6474118440768,281.8082732007406L944.1999563381859,308.24219627088655L944.7525008322948,308.231047549438L945.3050453264037,308.1145845609289L946.4101343146217,281.7641357732074L948.0677677969488,261.47829433339973L948.6203122910578,281.81921390929216L949.7254012792757,261.37523503628324L950.2779457733848,308.2225878224871L950.8304902674938,308.2413649401139L951.9355792557117,263.3821510783758L954.1457572321477,282.0774600251766L955.2508462203657,235.1665047476319L955.8033907144746,281.81828019390554L956.9084797026928,288.0097210883454L957.4610241968018,255.40891919552666L959.1186576791287,308.2404580805056L959.6712021732378,287.9778640479619L962.4339246437828,241.29323510614904L962.9864691378917,281.8126649845748L963.5390136320008,282.6628589762459L964.0915581261097,308.2371601087539L965.1966471143277,283.71766396240514L966.3017361025458,297.0492513294592L966.8542805966547,308.2267189757049L967.4068250907636,288.42062413407496L967.9593695848727,287.48881677458166L968.5119140789816,288.38946092172574L969.0644585730907,288.41689480839057L970.7220920554176,308.2184813770179L972.3797255377448,274.31266626272827L973.4848145259626,264.72906320283823L974.5899035141806,281.88381188268795L975.1424480082898,281.82546389746284L975.6949925023987,286.2594217734291L976.2475369965076,281.81191948849533L976.8000814906167,261.80388421021996L979.0102594670527,288.3606965828994L981.2204374434888,308.24470977297324L982.3255264317066,258.3890914410127L982.8780709258157,281.7700868248314L984.5357044081427,273.4455103899632L985.0882489022516,308.23728406376756L985.6407933963607,255.36580221188436L987.2984268786877,281.8150786203962L988.9560603610146,308.23203085511943L989.5086048551236,268.3406521747112L990.0611493492326,286.42534631914293L991.1662383374506,281.8106314779423L991.7187828315597,241.02194834473687L992.2713273256686,255.38536594810688L993.9289608079956,308.1863390775592L995.0340497962136,288.21597254326565L995.5865942903225,308.2269239449591L996.1391387844316,308.21829548234024L996.6916832785407,308.1903031223497L997.2442277726497,281.72630000189L997.7967722667586,260.7740994749041L998.9018612549766,255.41060578814194L999.4544057490855,308.2444845082616L1001.1120392314126,308.2346401076157L1003.8747617019576,281.9251278659008L1010.5052956312655,308.2387643229856L1011.0578401253745,308.1860618231386L1011.6103846194835,281.82602117423505L1012.1629291135924,308.23356535028734L1014.3731070900285,281.8275047852446L1016.0307405723556,308.2396160852697L1016.5832850664646,308.2486638759179L1017.6883740546825,281.78179332762295L1018.2409185487915,217.66165892999499L1018.7934630429006,288.2817201306651L1019.3460075370095,308.230015462577L1020.4510965252275,308.2398519702947L1021.5561855134456,281.8241851133464L1022.1087300075545,308.23897821232987L1022.6612745016636,308.23150260738385L1023.7663634898814,286.16398904882806L1024.3189079839904,308.2260648772113L1024.8714524780996,281.767366871314L1025.9765414663175,285.01224004774826L1027.0816304545353,261.8212188393536L1030.3968974191894,261.61124359461087L1031.5019864074075,308.233977043981L1034.2647088779524,228.9934798206983L1034.8172533720615,281.8055292584879L1037.0274313484974,308.2077067010767L1039.7901538190424,281.79413276396707L1040.3426983131515,281.988865935403L1042.5528762895874,308.24416907405333L1044.7630542660233,308.2444264024343L1046.4206877483502,308.1458879862822L1048.0783212306774,308.18502596821526L1048.6308657247864,260.49486321569464L1049.1834102188955,255.3945259543895L1050.8410437012224,308.0836544026024L1051.3935881953314,308.23593686706516L1053.0512216776585,308.2483683650462L1054.1563106658764,281.82541407470507L1054.7088551599854,285.5515861630407L1055.2613996540942,261.8681592583339L1059.1292111128575,259.3094321850667L1059.6817556069664,308.1929461504518L1060.2343001010754,288.32932669836975L1060.7868445951844,280.637713340667L1061.8919335834023,308.15420108497227L1062.4444780775113,308.18156449751916L1062.9970225716204,304.17470193381496L1063.5495670657294,308.2356450269457L1064.1021115598382,287.01275109753476L1064.6546560539473,262.01289621497887L1065.2072005480566,281.8036710541514L1065.7597450421654,241.79634162366048L1066.3122895362744,281.82215529728865L1067.9699230186013,287.8882365972861L1069.0750120068194,286.83697640807867L1071.8377344773644,308.2310570335661L1072.3902789714734,288.3622300166667L1072.9428234655823,308.18321456642013L1074.0479124538003,261.50282558310187L1077.9157239125634,308.22212283170563L1079.0208129007813,308.2342238890036L1081.7835353713263,308.20018144636856L1082.3360798654353,288.23851457323116L1084.5462578418712,288.42962729093495L1085.6513468300893,255.40968683505398L1086.2038913241981,281.8164570500282L1087.3089803124165,308.2398916728048L1087.8615248065253,308.2442500810857L1088.9666137947434,261.8107080827489L1089.5191582888522,308.24487341157555L1092.8344252535062,288.33557299596583L1093.3869697476152,308.17194243417356L1093.9395142417243,308.24377217869903L1096.7022367122693,281.8098952082995L1097.2547812063783,308.21742682054L1102.2276816533592,288.3188602286608L1102.7802261474683,308.2393991666989L1104.4378596297952,241.9267812941093L1104.9904041239042,288.40082789164944L1105.542948618013,308.24809194226634L1106.6480376062314,308.2444697774987L1107.7531265944492,288.29352258839754L1108.8582155826673,235.34272968719534L1110.5158490649942,308.195191036189L1111.0683935591032,261.2738586412075L1112.1734825473213,308.19550329340353L1112.7260270414301,308.24421445028133L1113.8311160296482,228.96010226355878L1114.936205017866,262.13584770946176L1115.4887495119754,308.2166981230626L1116.5938385001932,281.79364376282587L1117.1463829943023,308.24153083937335L1119.3565609707382,281.75812567238904L1119.9091054648472,281.81690176427355L1121.014194453065,281.80998562737847L1121.5667389471741,308.24704313429095L1122.1192834412832,283.17048644770426L1122.6718279353922,255.80201337328003L1123.77691692361,260.54032371424L1124.3294614177191,281.82942941992485L1124.8820059118282,308.24872012114054L1125.4345504059372,308.2381725479902L1127.6447283823732,287.6726221544774L1128.7498173705912,308.2532457894452L1129.3023618647,261.82803533073314L1129.854906358809,288.3801274584345L1130.9599953470272,281.8241703510478L1132.065084335245,288.0929952147602L1133.1701733234631,281.67134734534346L1134.2752623116812,281.83147584356857L1134.8278068057903,307.84159508946993L1135.380351299899,255.41250274351233L1136.4854402881172,308.24356910969436L1137.0379847822262,308.2498076472625L1137.5905292763352,282.5949265686533L1138.143073770444,308.2259512622941L1138.695618264553,260.8445119486618L1139.2481627586621,308.24440514829234L1140.3532517468802,308.2508851364811L1140.905796240989,282.4225582795997L1142.563429723316,308.24655720742726L1143.1159742174252,308.2499651499241L1144.221063205643,308.1314930151882L1144.7736076997521,308.2498447363664L1146.4312411820792,263.3495817570847L1146.983785676188,288.4339268104028L1147.536330170297,308.2504344588401L1148.0888746644061,308.2414733525463L1148.641419158515,255.41542567863556L1149.746508146733,281.8152742208527L1151.956686123169,255.4225337254125L1153.061775111387,286.1658564796012L1153.6143196054961,308.23708150383874L1154.1668640996052,288.2566648193625L1155.824497581932,281.8233953303712L1156.377042076041,308.2422455602409L1157.482131064259,308.1550859723263L1159.6923090406951,255.40915539230429L1160.244853534804,281.83280814101744L1160.797398028913,308.24365583008944L1161.349942523022,308.2480680328208L1162.4550315112401,288.40286693414384L1164.665209487676,281.81504725051167L1165.217753981785,255.41211154259938L1166.322842970003,308.2145483489124L1166.875387464112,281.82670577583275L1167.427931958221,255.929282840104L1167.9804764523299,308.2501290899173L1169.085565440548,261.9513079052106L1170.7431989228749,308.2465217577278L1171.2957434169841,287.7313650311901L1171.848287911093,281.80176302705706L1172.400832405202,308.1499747210554L1172.953376899311,308.2115598340075L1174.6110103816382,281.82994056451395L1175.163554875747,235.5750365991485L1177.3737328521831,308.2347089905337L1177.926277346292,281.8254048482684L1179.03136633451,308.24115608206085L1179.5839108286189,235.14813306702146L1180.136455322728,261.70979670007904L1182.3466332991638,267.2596275009471L1184.004266781491,308.2506520788544L1185.109355769709,281.83459068857366L1186.766989252036,308.2413100392119L1187.319533746145,308.247074245583L1187.872078240254,281.82694197261037L1188.4246227343629,287.39312570975505L1188.977167228472,308.2365070103916L1190.08225621669,255.4061328116655L1190.634800710799,283.05486627976467L1191.1873452049078,287.8332341179817L1192.8449786872347,308.25278256488656L1193.397523181344,308.24461819698564L1194.5026121695619,281.8288333921188L1195.055156663671,252.44368270565138L1195.60770115778,255.39972228349748L1197.2653346401069,287.76148934677514L1198.370423628325,261.73995607612324L1198.9229681224338,308.24026482630313L1199.475512616543,281.8485133814428L1200.0280571106518,308.24752581388145L1203.895868569415,308.2406660375394L1204.448413063524,308.21777824325727L1206.1060465458509,308.2477792417503L1208.8687690163958,287.3101523651742L1211.0789469928318,281.82739591329243L1212.1840359810499,308.24795413948857L1213.289124969268,308.24193317057654L1214.3942139574858,262.0102537635291L1214.9467584515949,308.2214819691841L1215.499302945704,281.81553440636554L1216.051847439813,281.8182045371252L1218.262025416249,308.23657147110737L1218.814569910358,281.97393387036686L1219.3671144044667,288.38050943291086L1220.4722033926848,308.24932183753134L1221.0247478867939,308.24452678948865L1221.577292380903,308.2150493264008L1223.7874703573389,308.24702261447965L1224.892559345557,308.2384874343788L1225.9976483337748,281.8204170366282L1227.1027373219927,308.2329790841233L1227.655281816102,281.8087326772846L1228.7603708043198,255.41010756056414L1230.970548780756,308.25057377037456L1232.0756377689738,287.99830614095123L1232.6281822630829,255.47443427672312L1234.2858157454098,288.47714159427335L1235.9434492277367,308.2497416750871L1238.1536272041728,308.1516694228435L1239.2587161923907,308.23584693994275L1239.8112606865,308.25040366515736L1241.4688941688269,308.24076486312754L1243.6790721452628,281.8266172020411L1244.2316166393719,285.9865480649172L1244.7841611334807,308.24133504069266L1245.3367056275897,281.95929336072817L1246.9943391099168,281.8213415255782L1247.5468836040257,308.2417757237782L1248.0994280981347,255.40996362815275L1249.2045170863528,255.414100762336L1249.7570615804618,287.43734802050517L1250.3096060745709,308.24665880995656L1251.4146950627887,288.3033708868525L1251.9672395568978,288.4185684839946L1253.6248730392247,241.8852770915893L1254.1774175333337,308.2364127079199L1255.2825065215518,281.7560072825396L1256.3875955097697,287.94611587953057L1256.9401400038787,260.6384044261529L1257.4926844979877,255.41800169974164L1261.3604959567506,308.235704211293L1261.9130404508599,308.25030353804704L1262.4655849449687,281.84104181306276L1263.0181294390777,288.1586579189427L1266.3333964037317,255.40170043151016L1266.8859408978406,284.3384407620745L1267.4384853919496,287.81935386672103L1267.9910298860586,308.235294707076L1268.5435743801677,281.8320977053972L1269.6486633683855,308.242307172835L1271.3062968507127,281.83665741037794L1272.9639303330396,229.05300140866225L1275.1741083094757,288.43470921222877L1275.7266528035846,255.6572395108885L1276.2791972976936,281.8299073493421L1276.8317417918026,255.4090114598929L1277.3842862859117,308.24059334331025L1278.4893752741295,308.2530200010161L1279.0419197682386,308.248506029968L1281.2520977446748,281.83526790902204L1282.9097312270017,308.2454496223653L1283.4622757211107,284.67327921896907L1285.1199092034376,308.24886837664206L1285.6724536975466,287.8952874401559L1286.2249981916555,308.24424706357235L1286.7775426857647,255.41225547501074L1287.3300871798735,256.38724255791533L1288.4351761680916,308.24452666154394L1288.9877206622004,308.2444689918099L1289.5402651563095,235.4820267368055L1290.0928096504188,281.81765464150226L1290.6453541445276,283.5491836937458L1292.8555321209637,308.2522288282188L1293.4080766150726,288.2097336268189L1293.9606211091816,255.38362399687182L1295.6182545915085,281.83453717524117L1296.7233435797266,308.2412957274229L1297.2758880738356,281.8210370531695L1297.8284325679444,235.0274365136501L1298.9335215561628,282.1655724949584L1299.4860660502716,281.82782401995183L1300.0386105443806,308.2469049684025L1301.1436995325985,308.24990241330863L1301.6962440267075,281.81844073390283L1303.3538775090346,308.2496406622749L1304.4589664972525,308.24826933042164L1305.5640554854706,308.2529750478166L1306.1165999795796,307.92805775705244L1307.2216889677975,260.403676497229L1308.8793224501246,288.30251467353355L1309.9844114383425,288.31377277150506L1310.5369559324515,288.3037436348922L1311.0895004265606,308.2472926922824L1312.1945894147786,308.1973539255747L1313.2996784029965,281.82220142947176L1313.8522228971055,308.23015291485825L1314.4047673912144,308.2402937508216L1316.6149453676505,281.7987422917056L1317.1674898617593,308.22913646788857L1318.2725788499777,287.54800805611444L1319.3776678381955,288.2429008212033L1322.1403903087405,281.82211101039286L1324.3505682851765,308.23832564917296L1324.9031127792855,308.24658463985793L1325.4556572733945,308.2449035984219L1326.0082017675034,308.2406915580073L1332.6387356968114,281.81991327318843L1333.7438246850295,308.2422506068495L1334.8489136732474,261.7123173625654" style="fill: none;" fill="none"></path></g></g></g></g></g></g><g transform="translate(63, 377)" clip-path="url(#clip_1)"><clipPath id="clip_1"><rect width="1577" height="23"></rect></clipPath><g><g><line x1="9.294672305760946" y1="0" x2="9.294672305760946" y2="5" style="visibility: inherit;" fill="rgb(0, 0, 0)" stroke="rgb(204, 204, 204)" stroke-width="1px"></line><line x1="119.80357112756057" y1="0" x2="119.80357112756057" y2="5" style="visibility: inherit;" fill="rgb(0, 0, 0)" stroke="rgb(204, 204, 204)" stroke-width="1px"></line><line x1="230.31246994936018" y1="0" x2="230.31246994936018" y2="5" style="visibility: inherit;" fill="rgb(0, 0, 0)" stroke="rgb(204, 204, 204)" stroke-width="1px"></line><line x1="340.8213687711598" y1="0" x2="340.8213687711598" y2="5" style="visibility: inherit;" fill="rgb(0, 0, 0)" stroke="rgb(204, 204, 204)" stroke-width="1px"></line><line x1="451.33026759295944" y1="0" x2="451.33026759295944" y2="5" style="visibility: inherit;" fill="rgb(0, 0, 0)" stroke="rgb(204, 204, 204)" stroke-width="1px"></line><line x1="561.8391664147591" y1="0" x2="561.8391664147591" y2="5" style="visibility: inherit;" fill="rgb(0, 0, 0)" stroke="rgb(204, 204, 204)" stroke-width="1px"></line><line x1="672.3480652365587" y1="0" x2="672.3480652365587" y2="5" style="visibility: inherit;" fill="rgb(0, 0, 0)" stroke="rgb(204, 204, 204)" stroke-width="1px"></line><line x1="782.8569640583584" y1="0" x2="782.8569640583584" y2="5" style="visibility: inherit;" fill="rgb(0, 0, 0)" stroke="rgb(204, 204, 204)" stroke-width="1px"></line><line x1="893.3658628801579" y1="0" x2="893.3658628801579" y2="5" style="visibility: inherit;" fill="rgb(0, 0, 0)" stroke="rgb(204, 204, 204)" stroke-width="1px"></line><line x1="1003.8747617019576" y1="0" x2="1003.8747617019576" y2="5" style="visibility: inherit;" fill="rgb(0, 0, 0)" stroke="rgb(204, 204, 204)" stroke-width="1px"></line><line x1="1114.383660523757" y1="0" x2="1114.383660523757" y2="5" style="visibility: inherit;" fill="rgb(0, 0, 0)" stroke="rgb(204, 204, 204)" stroke-width="1px"></line><line x1="1224.892559345557" y1="0" x2="1224.892559345557" y2="5" style="visibility: inherit;" fill="rgb(0, 0, 0)" stroke="rgb(204, 204, 204)" stroke-width="1px"></line><line x1="1335.4014581673564" y1="0" x2="1335.4014581673564" y2="5" style="visibility: inherit;" fill="rgb(0, 0, 0)" stroke="rgb(204, 204, 204)" stroke-width="1px"></line><line x1="1445.910356989156" y1="0" x2="1445.910356989156" y2="5" style="visibility: inherit;" fill="rgb(0, 0, 0)" stroke="rgb(204, 204, 204)" stroke-width="1px"></line><line x1="1556.4192558109557" y1="0" x2="1556.4192558109557" y2="5" style="visibility: inherit;" fill="rgb(0, 0, 0)" stroke="rgb(204, 204, 204)" stroke-width="1px"></line></g><g transform="translate(0, 8)"><text x="9.294672305760946" y="0" dx="0em" dy="0.95em" style="text-anchor: middle; visibility: hidden; font-family: &quot;Helvetica Neue&quot;, sans-serif; font-size: 12px; font-weight: 200;" fill="rgb(50, 49, 63)" stroke="none" stroke-width="1px">-400</text><text x="119.80357112756057" y="0" dx="0em" dy="0.95em" style="text-anchor: middle; visibility: inherit; font-family: &quot;Helvetica Neue&quot;, sans-serif; font-size: 12px; font-weight: 200;" fill="rgb(50, 49, 63)" stroke="none" stroke-width="1px">-200</text><text x="230.31246994936018" y="0" dx="0em" dy="0.95em" style="text-anchor: middle; visibility: inherit; font-family: &quot;Helvetica Neue&quot;, sans-serif; font-size: 12px; font-weight: 200;" fill="rgb(50, 49, 63)" stroke="none" stroke-width="1px">0</text><text x="340.8213687711598" y="0" dx="0em" dy="0.95em" style="text-anchor: middle; visibility: inherit; font-family: &quot;Helvetica Neue&quot;, sans-serif; font-size: 12px; font-weight: 200;" fill="rgb(50, 49, 63)" stroke="none" stroke-width="1px">200</text><text x="451.33026759295944" y="0" dx="0em" dy="0.95em" style="text-anchor: middle; visibility: inherit; font-family: &quot;Helvetica Neue&quot;, sans-serif; font-size: 12px; font-weight: 200;" fill="rgb(50, 49, 63)" stroke="none" stroke-width="1px">400</text><text x="561.8391664147591" y="0" dx="0em" dy="0.95em" style="text-anchor: middle; visibility: inherit; font-family: &quot;Helvetica Neue&quot;, sans-serif; font-size: 12px; font-weight: 200;" fill="rgb(50, 49, 63)" stroke="none" stroke-width="1px">600</text><text x="672.3480652365587" y="0" dx="0em" dy="0.95em" style="text-anchor: middle; visibility: inherit; font-family: &quot;Helvetica Neue&quot;, sans-serif; font-size: 12px; font-weight: 200;" fill="rgb(50, 49, 63)" stroke="none" stroke-width="1px">800</text><text x="782.8569640583584" y="0" dx="0em" dy="0.95em" style="text-anchor: middle; visibility: inherit; font-family: &quot;Helvetica Neue&quot;, sans-serif; font-size: 12px; font-weight: 200;" fill="rgb(50, 49, 63)" stroke="none" stroke-width="1px">1k</text><text x="893.3658628801579" y="0" dx="0em" dy="0.95em" style="text-anchor: middle; visibility: inherit; font-family: &quot;Helvetica Neue&quot;, sans-serif; font-size: 12px; font-weight: 200;" fill="rgb(50, 49, 63)" stroke="none" stroke-width="1px">1.2k</text><text x="1003.8747617019576" y="0" dx="0em" dy="0.95em" style="text-anchor: middle; visibility: inherit; font-family: &quot;Helvetica Neue&quot;, sans-serif; font-size: 12px; font-weight: 200;" fill="rgb(50, 49, 63)" stroke="none" stroke-width="1px">1.4k</text><text x="1114.383660523757" y="0" dx="0em" dy="0.95em" style="text-anchor: middle; visibility: inherit; font-family: &quot;Helvetica Neue&quot;, sans-serif; font-size: 12px; font-weight: 200;" fill="rgb(50, 49, 63)" stroke="none" stroke-width="1px">1.6k</text><text x="1224.892559345557" y="0" dx="0em" dy="0.95em" style="text-anchor: middle; visibility: inherit; font-family: &quot;Helvetica Neue&quot;, sans-serif; font-size: 12px; font-weight: 200;" fill="rgb(50, 49, 63)" stroke="none" stroke-width="1px">1.8k</text><text x="1335.4014581673564" y="0" dx="0em" dy="0.95em" style="text-anchor: middle; visibility: inherit; font-family: &quot;Helvetica Neue&quot;, sans-serif; font-size: 12px; font-weight: 200;" fill="rgb(50, 49, 63)" stroke="none" stroke-width="1px">2k</text><text x="1445.910356989156" y="0" dx="0em" dy="0.95em" style="text-anchor: middle; visibility: inherit; font-family: &quot;Helvetica Neue&quot;, sans-serif; font-size: 12px; font-weight: 200;" fill="rgb(50, 49, 63)" stroke="none" stroke-width="1px">2.2k</text><text x="1556.4192558109557" y="0" dx="0em" dy="0.95em" style="text-anchor: middle; visibility: inherit; font-family: &quot;Helvetica Neue&quot;, sans-serif; font-size: 12px; font-weight: 200;" fill="rgb(50, 49, 63)" stroke="none" stroke-width="1px">2.4k</text></g><line x1="0" y1="0" x2="1577.015625" y2="0" fill="rgb(0, 0, 0)" stroke="rgb(204, 204, 204)" stroke-width="1px"></line></g></g></g></g></svg>